<?xml version="1.0" encoding="UTF-8" standalone="no"?>
<svg xmlns:ffdec="https://www.free-decompiler.com/flash" xmlns:xlink="http://www.w3.org/1999/xlink" ffdec:objectType="shape" height="102.85px" width="137.15px" xmlns="http://www.w3.org/2000/svg">
  <g transform="matrix(1.0, 0.0, 0.0, 1.0, 3.25, -4.4)">
    <path d="M7.65 28.5 L39.45 56.9 44.1 61.25 51.55 68.2 Q62.5 77.75 67.5 81.5 L69.25 81.1 69.65 81.55 72.65 80.25 73.05 80.05 95.8 72.95 119.5 65.35 119.65 66.4 Q120.1 69.7 121.0 72.8 121.4 75.15 122.15 77.55 L122.85 79.5 123.5 81.3 123.65 81.95 125.35 87.55 126.25 89.85 126.8 91.05 126.7 91.05 126.85 91.3 127.6 92.45 Q128.6 93.95 133.9 107.25 L12.05 101.5 -3.25 100.85 7.65 28.5 M2.45 74.9 L2.5 74.9 2.5 74.6 2.45 74.9 M126.25 94.1 L126.4 93.95 126.25 94.05 126.25 94.1" fill="#83d01e" fill-rule="evenodd" stroke="none"/>
    <path d="M7.65 28.5 L11.55 4.4 Q58.85 67.35 117.15 40.1 L117.2 41.25 117.85 54.95 118.25 54.8 118.3 55.4 119.5 65.35 95.8 72.95 73.05 80.05 72.65 80.25 69.65 81.55 69.25 81.1 67.5 81.5 Q62.5 77.75 51.55 68.2 L44.1 61.25 39.45 56.9 7.65 28.5" fill="#5c9f05" fill-rule="evenodd" stroke="none"/>
  </g>
</svg>
