<?xml version="1.0" encoding="UTF-8" standalone="no"?>
<svg xmlns:ffdec="https://www.free-decompiler.com/flash" xmlns:xlink="http://www.w3.org/1999/xlink" ffdec:objectType="shape" height="205.65px" width="229.3px" xmlns="http://www.w3.org/2000/svg">
  <g transform="matrix(1.0, 0.0, 0.0, 1.0, 114.75, 102.55)">
    <path d="M10.1 36.45 L-24.55 58.5 -37.6 34.55 -37.85 33.1 -65.95 38.6 -71.75 15.65 -93.05 17.35 Q-99.2 0.6 -102.4 -6.15 -104.75 -11.15 -108.3 -19.8 L-114.1 -33.45 -114.75 -35.0 -83.3 -45.15 -96.45 -87.3 -10.3 -102.55 15.5 -71.1 16.1 -73.4 59.85 -75.65 62.45 -56.6 96.65 -29.0 91.45 -19.3 103.0 6.25 93.6 9.0 91.1 -10.85 80.45 -11.2 89.55 -26.5 67.45 -47.65 67.45 -47.75 66.5 -47.45 60.5 -43.3 55.4 -67.3 23.35 -69.5 23.3 -69.45 21.9 -69.55 21.9 -69.45 21.85 -69.35 20.3 -65.2 24.75 -59.8 -8.4 -93.2 -86.9 -82.4 -80.25 -43.95 -86.0 -41.35 -107.6 -31.8 -106.6 -29.0 -89.4 12.5 -67.85 9.7 -54.85 31.6 -36.1 27.1 -35.65 28.65 -23.7 51.2 -23.25 51.7 10.1 36.45 M96.0 -28.15 Q95.75 -29.05 94.75 -29.75 94.35 -29.75 93.8 -29.1 L93.75 -27.1 94.55 -26.75 Q95.65 -27.15 96.0 -28.15" fill="#ffffff" fill-opacity="0.7019608" fill-rule="evenodd" stroke="none"/>
    <path d="M53.95 -59.55 L54.0 -59.6 53.95 -59.45 53.95 -59.55" fill="#26731e" fill-rule="evenodd" stroke="none"/>
    <path d="M114.5 15.9 L114.55 15.9 114.25 16.0 114.5 15.9 M-103.85 -60.7 L-104.0 -60.35 -104.3 -60.45 -104.15 -60.8 -103.85 -60.7" fill="#96d955" fill-rule="evenodd" stroke="none"/>
    <path d="M81.2 11.4 L81.9 10.9 81.3 11.5 81.2 11.4" fill="#347e6f" fill-rule="evenodd" stroke="none"/>
    <path d="M22.1 58.65 L22.05 58.4 22.2 58.4 22.4 58.3 22.1 58.65" fill="#1a5616" fill-rule="evenodd" stroke="none"/>
    <path d="M93.6 9.0 L93.7 9.75 84.6 13.15 84.2 11.95 92.65 8.75 89.75 -7.9 78.4 -0.5 76.9 -2.9 75.1 -5.35 87.75 -27.0 67.5 -45.4 64.65 -23.9 65.8 -18.45 68.5 -15.75 68.2 -15.55 66.35 -15.8 66.25 -15.85 -9.65 -89.7 -83.2 -80.4 36.9 -20.8 36.95 -20.8 36.95 -20.75 40.45 -19.4 40.35 -9.25 36.2 -9.45 36.1 -15.75 34.65 -16.65 -10.6 -30.45 -11.8 -31.5 -13.2 -32.4 -13.6 -32.0 -13.9 -31.45 -66.95 -47.65 -102.5 -32.0 22.15 -11.1 22.15 -10.9 22.2 -11.25 22.25 -11.65 22.3 -11.65 22.35 -11.3 22.4 -10.95 22.45 -10.6 22.5 -10.4 22.55 -10.25 23.15 -3.8 23.15 -3.7 23.1 -3.7 -56.45 -13.25 -67.15 5.55 22.1 4.8 22.3 3.85 22.25 4.3 22.25 4.35 22.2 4.75 21.25 12.3 21.1 13.4 20.45 13.6 20.4 12.5 20.2 12.5 -40.15 13.15 -40.05 13.25 -36.1 27.1 -54.85 31.6 -67.85 9.7 -89.4 12.5 -106.6 -29.0 -107.6 -31.8 -86.0 -41.35 -80.25 -43.95 -86.9 -82.4 -8.4 -93.2 24.75 -59.8 20.3 -65.2 21.85 -69.35 21.9 -69.45 21.9 -69.55 23.3 -69.45 23.35 -69.5 55.4 -67.3 60.5 -43.3 66.5 -47.45 67.45 -47.75 67.45 -47.65 89.55 -26.5 80.45 -11.2 91.1 -10.85 93.6 9.0 M16.5 33.5 L10.1 36.45 -23.25 51.7 -23.7 51.2 -24.5 36.5 Q-24.25 31.1 -24.75 29.45 L-24.4 28.65 -24.5 28.5 Q-18.95 27.2 17.05 23.65 L18.2 23.55 19.4 23.45 20.1 23.35 20.6 23.3 20.35 30.85 21.3 58.85 56.2 85.3 55.4 101.2 55.15 101.3 45.05 93.2 12.8 63.65 17.85 32.9 16.5 33.5 M23.65 -68.2 L34.75 -49.75 64.8 -19.5 53.65 -66.0 23.65 -68.2 M23.25 -2.45 L23.25 -2.15 23.2 -2.15 23.25 -2.45 M31.95 67.35 L32.0 67.35 31.9 67.3 31.95 67.35 M-43.2 -42.8 Q-42.9 -42.2 -40.55 -42.3 L-39.85 -42.7 -39.85 -43.75 -39.95 -43.5 -42.3 -44.05 -43.15 -44.05 Q-42.95 -43.7 -43.2 -42.8 M-55.9 -53.65 L-55.9 -54.2 -56.95 -55.4 -59.15 -55.3 -59.8 -55.3 Q-60.4 -55.15 -59.35 -54.15 -58.3 -53.1 -57.2 -53.1 L-55.9 -53.35 Q-55.75 -53.5 -55.9 -53.65 M-18.75 -42.55 L-17.05 -41.15 -16.7 -41.65 -17.75 -43.45 Q-18.25 -44.5 -19.5 -45.25 -19.5 -45.05 -20.2 -44.9 -19.95 -43.9 -18.75 -42.55" fill="#2c8009" fill-rule="evenodd" stroke="none"/>
    <path d="M78.4 -0.5 L89.75 -7.9 92.65 8.75 84.2 11.95 Q82.0 5.4 78.4 -0.5" fill="url(#gradient0)" fill-rule="evenodd" stroke="none"/>
    <path d="M76.75 -19.15 L75.7 -18.8 74.45 -18.1 Q74.4 -17.25 75.25 -15.95 L76.0 -15.95 76.65 -16.7 Q77.05 -17.25 77.1 -18.35 L76.95 -19.4 76.75 -19.15 M68.2 -15.55 L68.7 -15.6 68.5 -15.75 65.8 -18.45 64.65 -23.9 67.5 -45.4 87.75 -27.0 75.1 -5.35 Q72.0 -9.25 67.8 -11.8 L68.2 -15.55" fill="url(#gradient1)" fill-rule="evenodd" stroke="none"/>
    <path d="M53.95 -59.55 L53.95 -59.45 54.0 -59.6 53.95 -59.55 M23.65 -68.2 L53.65 -66.0 64.8 -19.5 34.75 -49.75 23.65 -68.2" fill="url(#gradient2)" fill-rule="evenodd" stroke="none"/>
    <path d="M68.5 -15.75 L68.7 -15.6 68.2 -15.55 68.5 -15.75" fill="#2c8022" fill-rule="evenodd" stroke="none"/>
    <path d="M3.35 -62.8 L4.35 -62.95 6.65 -62.6 8.8 -61.15 Q8.8 -60.15 7.7 -59.7 5.95 -60.25 4.85 -61.25 L4.35 -61.8 3.35 -62.8 M21.45 -45.2 Q19.8 -45.2 18.15 -46.6 L16.7 -48.3 19.6 -47.75 Q21.65 -47.25 22.85 -46.2 L22.75 -45.45 Q22.6 -45.15 21.45 -45.2 M-13.9 -31.45 L-13.6 -32.0 -13.2 -32.4 -11.8 -31.5 -10.6 -30.45 -10.35 -30.2 Q-9.65 -29.35 -11.4 -30.0 -13.05 -30.7 -13.95 -31.3 L-13.9 -31.45 M76.75 -19.15 L76.95 -19.4 77.1 -18.35 Q77.05 -17.25 76.65 -16.7 L76.0 -15.95 75.25 -15.95 Q74.4 -17.25 74.45 -18.1 L75.7 -18.8 76.75 -19.15 M96.0 -28.15 Q95.65 -27.15 94.55 -26.75 L93.75 -27.1 93.8 -29.1 Q94.35 -29.75 94.75 -29.75 95.75 -29.05 96.0 -28.15 M-18.8 -79.6 L-18.5 -78.75 -18.1 -78.0 Q-18.35 -77.1 -20.55 -76.6 L-21.6 -76.8 Q-22.0 -76.95 -22.0 -78.05 -22.0 -80.1 -18.8 -79.6 M-55.9 -53.65 Q-55.75 -53.5 -55.9 -53.35 L-57.2 -53.1 Q-58.3 -53.1 -59.35 -54.15 -60.4 -55.15 -59.8 -55.3 L-59.15 -55.3 -56.95 -55.4 -55.9 -54.2 -55.9 -53.65 M-43.2 -42.8 Q-42.95 -43.7 -43.15 -44.05 L-42.3 -44.05 -39.95 -43.5 -39.85 -43.75 -39.85 -42.7 -40.55 -42.3 Q-42.9 -42.2 -43.2 -42.8 M-49.85 -2.1 Q-49.85 -0.3 -50.0 -0.5 -50.0 -0.15 -50.55 0.0 -51.55 -0.5 -52.7 -1.5 -54.1 -2.65 -54.1 -3.4 L-53.3 -3.45 -50.2 -3.0 -50.0 -3.2 Q-49.85 -3.2 -49.85 -2.1 M-18.75 -42.55 Q-19.95 -43.9 -20.2 -44.9 -19.5 -45.05 -19.5 -45.25 -18.25 -44.5 -17.75 -43.45 L-16.7 -41.65 -17.05 -41.15 -18.75 -42.55 M-24.35 -6.65 Q-24.35 -6.3 -24.85 -6.1 -25.95 -6.3 -27.0 -7.4 L-25.65 -8.55 Q-25.1 -9.15 -24.65 -9.35 L-24.35 -8.9 -24.35 -7.55 -24.35 -6.65 M-12.0 22.15 L-12.2 21.05 Q-12.35 20.1 -12.65 19.4 L-11.4 19.3 Q-11.25 19.6 -11.1 19.45 L-11.1 20.65 -11.15 21.75 -11.3 22.0 -12.0 22.15 M-24.85 23.95 L-25.05 24.35 -26.3 24.5 -27.75 24.25 -28.0 22.1 -27.85 21.8 -26.5 22.85 -24.85 23.95" fill="#d7f0b0" fill-rule="evenodd" stroke="none"/>
    <path d="M3.35 -62.8 L4.35 -61.8 4.85 -61.25 Q5.95 -60.25 7.7 -59.7 8.8 -60.15 8.8 -61.15 L6.65 -62.6 4.35 -62.95 3.35 -62.8 M21.45 -45.2 Q22.6 -45.15 22.75 -45.45 L22.85 -46.2 Q21.65 -47.25 19.6 -47.75 L16.7 -48.3 18.15 -46.6 Q19.8 -45.2 21.45 -45.2 M36.95 -20.75 L37.4 -20.8 36.95 -20.8 36.9 -20.8 -83.2 -80.4 -9.65 -89.7 66.25 -15.85 40.45 -19.4 36.95 -20.75 M-18.8 -79.6 Q-22.0 -80.1 -22.0 -78.05 -22.0 -76.95 -21.6 -76.8 L-20.55 -76.6 Q-18.35 -77.1 -18.1 -78.0 L-18.5 -78.75 -18.8 -79.6" fill="url(#gradient3)" fill-rule="evenodd" stroke="none"/>
    <path d="M36.95 -20.8 L37.4 -20.8 36.95 -20.75 36.95 -20.8 M40.45 -19.4 L66.25 -15.85 66.35 -15.8 68.2 -15.55 67.8 -11.8 67.65 -9.8 67.6 -9.2 67.6 -8.95 67.55 -8.3 40.35 -9.25 40.45 -19.4" fill="#c1f37b" fill-rule="evenodd" stroke="none"/>
    <path d="M-10.6 -30.45 L34.65 -16.65 36.1 -15.75 22.35 -11.3 22.3 -11.65 22.25 -11.65 22.2 -11.25 22.15 -11.2 22.15 -11.1 -102.5 -32.0 -66.95 -47.65 -13.9 -31.45 -13.95 -31.3 Q-13.05 -30.7 -11.4 -30.0 -9.65 -29.35 -10.35 -30.2 L-10.6 -30.45" fill="url(#gradient4)" fill-rule="evenodd" stroke="none"/>
    <path d="M36.1 -15.75 L36.2 -9.45 36.2 -9.25 23.6 -2.15 23.25 -2.15 23.25 -2.45 23.4 -3.7 23.15 -3.7 23.15 -3.8 22.55 -10.25 22.5 -10.4 22.5 -10.45 22.5 -10.6 22.5 -10.65 22.4 -10.95 22.35 -11.3 36.1 -15.75 M22.15 -11.1 L22.15 -11.2 22.2 -11.25 22.15 -10.9 22.15 -11.1" fill="#8fd44e" fill-rule="evenodd" stroke="none"/>
    <path d="M22.5 -10.6 L22.45 -10.6 22.5 -10.65 22.5 -10.6" fill="#a5e262" fill-rule="evenodd" stroke="none"/>
    <path d="M22.5 -10.65 L22.45 -10.6 22.5 -10.6 22.5 -10.45 22.45 -10.6 22.4 -10.95 22.5 -10.65" fill="url(#gradient5)" fill-rule="evenodd" stroke="none"/>
    <path d="M22.45 -10.6 L22.5 -10.45 22.5 -10.4 22.45 -10.6" fill="url(#gradient6)" fill-rule="evenodd" stroke="none"/>
    <path d="M23.15 -3.7 L23.4 -3.7 23.25 -2.45 23.2 -2.15 22.3 3.85 22.1 4.8 -67.15 5.55 -56.45 -13.25 23.1 -3.7 23.15 -3.7 M-49.85 -2.1 Q-49.85 -3.2 -50.0 -3.2 L-50.2 -3.0 -53.3 -3.45 -54.1 -3.4 Q-54.1 -2.65 -52.7 -1.5 -51.55 -0.5 -50.55 0.0 -50.0 -0.15 -50.0 -0.5 -49.85 -0.3 -49.85 -2.1 M-24.35 -6.65 L-24.35 -7.55 -24.35 -8.9 -24.65 -9.35 Q-25.1 -9.15 -25.65 -8.55 L-27.0 -7.4 Q-25.95 -6.3 -24.85 -6.1 -24.35 -6.3 -24.35 -6.65" fill="url(#gradient7)" fill-rule="evenodd" stroke="none"/>
    <path d="M84.6 13.15 L86.0 18.5 87.15 24.0 87.6 30.0 87.85 36.55 87.85 37.0 87.85 37.55 87.85 38.0 87.85 38.5 87.95 54.5 Q87.85 66.2 97.25 72.9 L56.7 83.7 22.9 57.6 21.7 34.15 21.55 15.2 21.25 12.3 22.2 4.75 22.25 4.35 22.25 4.3 22.3 3.85 23.2 -2.15 23.25 -2.15 23.6 -2.15 36.2 -9.25 36.2 -9.45 40.35 -9.25 67.55 -8.3 67.6 -8.95 67.6 -9.2 67.65 -9.8 67.8 -11.8 Q72.0 -9.25 75.1 -5.35 L76.9 -2.9 78.4 -0.5 Q82.0 5.4 84.2 11.95 L84.6 13.15 M81.2 11.4 L81.3 11.5 81.9 10.9 81.2 11.4 M52.2 11.25 L52.0 11.25 52.1 11.5 52.2 11.25 M31.95 67.35 L31.9 67.3 32.0 67.35 31.95 67.35" fill="#83d01e" fill-rule="evenodd" stroke="none"/>
    <path d="M99.1 75.35 L99.2 75.2 98.7 75.4 99.1 75.35 M56.2 85.3 L102.9 73.6 104.8 84.0 55.4 101.2 56.2 85.3" fill="url(#gradient8)" fill-rule="evenodd" stroke="none"/>
    <path d="M97.25 72.9 L104.15 71.05 106.25 84.8 54.55 103.1 11.15 64.4 16.5 33.5 17.85 32.9 12.8 63.65 45.05 93.2 55.15 101.3 55.4 101.2 104.8 84.0 102.9 73.6 56.2 85.3 21.3 58.85 20.35 30.85 20.6 23.3 20.45 13.6 21.1 13.4 21.25 12.3 21.55 15.2 21.7 34.15 22.9 57.6 56.7 83.7 97.25 72.9 M22.1 58.65 L22.4 58.3 22.2 58.4 22.05 58.4 22.1 58.65" fill="#1d6600" fill-rule="evenodd" stroke="none"/>
    <path d="M-40.05 13.25 L-40.15 13.15 20.2 12.5 20.4 12.5 20.45 13.6 20.6 23.3 20.1 23.35 19.4 23.45 18.2 23.55 17.05 23.65 Q-18.95 27.2 -24.5 28.5 L-40.05 13.25 M-24.85 23.95 L-26.5 22.85 -27.85 21.8 -28.0 22.1 -27.75 24.25 -26.3 24.5 -25.05 24.35 -24.85 23.95 M-12.0 22.15 L-11.3 22.0 -11.15 21.75 -11.1 20.65 -11.1 19.45 Q-11.25 19.6 -11.4 19.3 L-12.65 19.4 Q-12.35 20.1 -12.2 21.05 L-12.0 22.15" fill="url(#gradient9)" fill-rule="evenodd" stroke="none"/>
    <path d="M-23.7 51.2 L-35.65 28.65 -36.1 27.1 -40.05 13.25 -24.5 28.5 -24.4 28.65 -24.75 29.45 Q-24.25 31.1 -24.5 36.5 L-23.7 51.2" fill="#237207" fill-rule="evenodd" stroke="none"/>
  </g>
  <defs>
    <radialGradient cx="0" cy="0" gradientTransform="matrix(0.0177, 0.0181, -0.0314, 0.024, 82.5, 6.25)" gradientUnits="userSpaceOnUse" id="gradient0" r="819.2" spreadMethod="pad">
      <stop offset="0.5725490196078431" stop-color="#61b825"/>
      <stop offset="0.9803921568627451" stop-color="#25743d"/>
    </radialGradient>
    <radialGradient cx="0" cy="0" gradientTransform="matrix(0.0313, 0.0079, -0.0045, 0.0379, 77.1, -24.25)" gradientUnits="userSpaceOnUse" id="gradient1" r="819.2" spreadMethod="pad">
      <stop offset="0.00784313725490196" stop-color="#ccfa85"/>
      <stop offset="0.5725490196078431" stop-color="#61b825"/>
      <stop offset="0.9803921568627451" stop-color="#25743d"/>
    </radialGradient>
    <radialGradient cx="0" cy="0" gradientTransform="matrix(0.0489, -0.007, 0.0097, 0.0563, 46.05, -48.05)" gradientUnits="userSpaceOnUse" id="gradient2" r="819.2" spreadMethod="pad">
      <stop offset="0.00784313725490196" stop-color="#ccfa85"/>
      <stop offset="0.5725490196078431" stop-color="#61b825"/>
      <stop offset="0.9803921568627451" stop-color="#25743d"/>
    </radialGradient>
    <radialGradient cx="0" cy="0" gradientTransform="matrix(0.1131, 0.0126, -0.0168, 0.1077, 2.15, -52.9)" gradientUnits="userSpaceOnUse" id="gradient3" r="819.2" spreadMethod="pad">
      <stop offset="0.00784313725490196" stop-color="#ccfa85"/>
      <stop offset="0.5725490196078431" stop-color="#61b825"/>
    </radialGradient>
    <radialGradient cx="0" cy="0" gradientTransform="matrix(0.0958, -0.0012, 0.0025, 0.0957, -27.7, -25.3)" gradientUnits="userSpaceOnUse" id="gradient4" r="819.2" spreadMethod="pad">
      <stop offset="0.00784313725490196" stop-color="#ccfa85"/>
      <stop offset="0.5725490196078431" stop-color="#61b825"/>
      <stop offset="0.9803921568627451" stop-color="#2f9538"/>
    </radialGradient>
    <radialGradient cx="0" cy="0" gradientTransform="matrix(0.1126, 0.0066, 0.0089, 0.0957, -5.2, -50.55)" gradientUnits="userSpaceOnUse" id="gradient5" r="819.2" spreadMethod="pad">
      <stop offset="0.00784313725490196" stop-color="#ccfa85"/>
      <stop offset="0.5725490196078431" stop-color="#61b825"/>
      <stop offset="0.9803921568627451" stop-color="#2f801a"/>
    </radialGradient>
    <radialGradient cx="0" cy="0" gradientTransform="matrix(0.012, -1.0E-4, 3.0E-4, 0.0117, 29.5, -9.55)" gradientUnits="userSpaceOnUse" id="gradient6" r="819.2" spreadMethod="pad">
      <stop offset="0.00784313725490196" stop-color="#ccfa85"/>
      <stop offset="0.5725490196078431" stop-color="#61b825"/>
      <stop offset="0.9803921568627451" stop-color="#2f801a"/>
    </radialGradient>
    <radialGradient cx="0" cy="0" gradientTransform="matrix(0.0644, 0.0027, -0.0047, 0.0618, -27.6, -4.65)" gradientUnits="userSpaceOnUse" id="gradient7" r="819.2" spreadMethod="pad">
      <stop offset="0.00784313725490196" stop-color="#ccfa85"/>
      <stop offset="0.5725490196078431" stop-color="#61b825"/>
      <stop offset="0.9803921568627451" stop-color="#2f9538"/>
    </radialGradient>
    <radialGradient cx="0" cy="0" gradientTransform="matrix(0.0606, 6.0E-4, -6.0E-4, 0.0606, 55.85, 88.95)" gradientUnits="userSpaceOnUse" id="gradient8" r="819.2" spreadMethod="repeat">
      <stop offset="0.00784313725490196" stop-color="#88dc0a"/>
      <stop offset="0.9803921568627451" stop-color="#379d1e"/>
    </radialGradient>
    <radialGradient cx="0" cy="0" gradientTransform="matrix(0.0442, 5.0E-4, 0.0, 0.047, -2.3, 18.65)" gradientUnits="userSpaceOnUse" id="gradient9" r="819.2" spreadMethod="pad">
      <stop offset="0.00784313725490196" stop-color="#ccfa85"/>
      <stop offset="0.5725490196078431" stop-color="#61b825"/>
    </radialGradient>
  </defs>
</svg>
