<?xml version="1.0" encoding="UTF-8" standalone="no"?>
<svg xmlns:ffdec="https://www.free-decompiler.com/flash" xmlns:xlink="http://www.w3.org/1999/xlink" ffdec:objectType="shape" height="44.65px" width="41.6px" xmlns="http://www.w3.org/2000/svg">
  <g transform="matrix(1.0, 0.0, 0.0, 1.0, -0.25, -1.55)">
    <path d="M41.8 25.1 Q41.8 29.7 40.1 33.5 L39.15 35.8 38.6 36.65 36.85 38.85 36.6 39.1 Q35.35 40.0 34.6 41.1 L28.85 44.35 28.2 44.35 26.95 44.9 Q25.8 45.45 24.5 45.6 L22.5 45.8 14.0 46.05 Q11.05 45.6 5.95 39.6 0.8 33.65 0.3 24.0 -0.2 14.35 2.9 10.0 7.9 2.95 19.1 1.55 L19.9 1.7 Q38.95 0.7 41.55 18.45 42.0 21.8 41.8 25.1" fill="#f4f9ea" fill-rule="evenodd" stroke="none"/>
  </g>
</svg>
