<?xml version="1.0" encoding="UTF-8" standalone="no"?>
<svg xmlns:ffdec="https://www.free-decompiler.com/flash" xmlns:xlink="http://www.w3.org/1999/xlink" ffdec:objectType="shape" height="43.95px" width="42.3px" xmlns="http://www.w3.org/2000/svg">
  <g transform="matrix(1.0, 0.0, 0.0, 1.0, 0.0, -1.85)">
    <path d="M41.5 28.9 Q40.75 31.75 39.4 34.2 36.25 39.8 30.2 43.1 23.15 46.8 16.0 45.4 12.95 43.75 9.5 42.95 L8.7 42.35 8.05 41.85 4.8 38.45 Q2.35 34.25 0.9 29.65 0.25 27.75 0.0 25.85 -0.1 19.7 2.75 14.15 5.25 9.35 9.25 5.85 L10.95 5.0 Q13.0 3.65 15.35 2.85 L17.75 2.2 19.75 1.85 Q31.15 1.55 36.9 7.8 40.55 11.9 41.9 18.75 42.9 23.9 41.5 28.9 M28.8 5.7 L29.0 5.65 29.1 5.65 29.6 5.65 28.85 5.55 28.35 5.5 28.8 5.7 M30.35 5.95 L30.6 5.95 29.85 5.7 30.35 5.95 M39.8 17.3 L39.8 17.1 39.65 17.1 39.8 17.3" fill="#f4f9ea" fill-rule="evenodd" stroke="none"/>
  </g>
</svg>
