<?xml version="1.0" encoding="UTF-8" standalone="no"?>
<svg xmlns:ffdec="https://www.free-decompiler.com/flash" xmlns:xlink="http://www.w3.org/1999/xlink" ffdec:objectType="shape" height="19.95px" width="19.15px" xmlns="http://www.w3.org/2000/svg">
  <g transform="matrix(1.0, 0.0, 0.0, 1.0, 0.0, 0.0)">
    <path d="M15.65 1.85 L15.3 1.75 13.5 1.35 Q11.55 2.0 11.15 3.7 L7.45 3.2 Q2.6 4.95 3.3 9.9 4.35 17.35 11.9 15.45 14.2 14.9 14.95 12.75 16.0 9.7 15.5 7.65 L15.95 7.35 Q18.0 6.15 17.9 4.05 19.3 6.25 19.0 9.65 L19.15 13.05 Q19.0 16.25 16.05 17.9 6.55 23.25 1.55 14.5 0.2 12.3 0.1 10.3 -0.55 6.5 2.4 2.85 4.6 0.15 8.0 0.0 12.85 0.1 15.65 1.85" fill="#4f9221" fill-rule="evenodd" stroke="none"/>
    <path d="M11.15 3.7 Q11.55 2.0 13.5 1.35 L15.3 1.75 15.65 1.85 16.8 2.25 17.55 2.6 17.9 4.05 Q18.0 6.15 15.95 7.35 L15.5 7.65 Q11.7 9.7 11.1 5.3 10.95 4.4 11.15 3.7" fill="#ffffff" fill-rule="evenodd" stroke="none"/>
    <path d="M15.5 7.65 Q16.0 9.7 14.95 12.75 14.2 14.9 11.9 15.45 4.35 17.35 3.3 9.9 2.6 4.95 7.45 3.2 L11.15 3.7 Q10.95 4.4 11.1 5.3 11.7 9.7 15.5 7.65" fill="#16290a" fill-rule="evenodd" stroke="none"/>
  </g>
</svg>
