<?xml version="1.0" encoding="UTF-8" standalone="no"?>
<svg xmlns:ffdec="https://www.free-decompiler.com/flash" xmlns:xlink="http://www.w3.org/1999/xlink" ffdec:objectType="shape" height="19.85px" width="21.3px" xmlns="http://www.w3.org/2000/svg">
  <g transform="matrix(1.0, 0.0, 0.0, 1.0, 0.0, 0.0)">
    <path d="M20.7 11.45 Q20.5 13.2 19.2 14.9 12.4 24.1 3.05 16.15 -1.4 12.4 0.65 6.9 1.3 5.05 2.65 3.75 4.5 0.35 9.5 0.0 15.6 0.35 18.25 3.25 19.3 3.95 20.05 5.15 21.9 7.75 21.05 10.7 L20.7 11.45 M16.2 9.95 L17.35 9.2 Q21.55 4.1 15.25 2.7 14.4 2.85 13.85 3.5 L13.05 4.65 Q11.4 3.85 8.9 3.7 3.85 4.75 3.65 10.2 3.45 18.1 12.15 16.15 15.1 15.45 15.85 12.5 L16.2 9.95" fill="#4f9221" fill-rule="evenodd" stroke="none"/>
    <path d="M13.05 4.65 L13.85 3.5 Q14.4 2.85 15.25 2.7 21.55 4.1 17.35 9.2 L16.2 9.95 Q15.25 10.2 14.15 9.3 11.4 7.35 13.05 4.65" fill="#ffffff" fill-rule="evenodd" stroke="none"/>
    <path d="M13.05 4.65 Q11.4 7.35 14.15 9.3 15.25 10.2 16.2 9.95 L15.85 12.5 Q15.1 15.45 12.15 16.15 3.45 18.1 3.65 10.2 3.85 4.75 8.9 3.7 11.4 3.85 13.05 4.65" fill="#16290a" fill-rule="evenodd" stroke="none"/>
  </g>
</svg>
