<?xml version="1.0" encoding="UTF-8" standalone="no"?>
<svg xmlns:ffdec="https://www.free-decompiler.com/flash" xmlns:xlink="http://www.w3.org/1999/xlink" ffdec:objectType="shape" height="53.4px" width="45.4px" xmlns="http://www.w3.org/2000/svg">
  <g transform="matrix(1.0, 0.0, 0.0, 1.0, 2.6, 2.4)">
    <path d="M27.75 -1.8 Q30.9 -1.7 33.5 -0.15 37.1 2.0 39.45 7.0 42.8 14.15 42.8 24.7 42.8 35.7 39.8 41.6 35.05 51.0 22.4 51.0 15.6 51.0 11.8 49.9 6.95 48.55 3.6 44.8 1.85 42.85 -0.15 38.0 -2.6 32.05 -2.6 27.5 -2.6 22.35 -1.85 17.2 -1.0 11.45 0.6 7.2 1.45 4.85 7.55 1.3 13.9 -2.4 17.9 -2.4 L21.15 -2.4 26.0 -2.2 27.05 -1.95 27.75 -1.8 M2.75 34.3 Q7.85 46.2 20.9 46.95 26.25 47.65 30.7 44.85 41.3 38.2 41.85 25.4 42.4 12.7 32.75 4.8 28.2 1.05 22.3 0.9 10.4 0.4 3.85 10.75 0.9 14.85 0.25 21.0 -0.2 24.6 0.1 27.55 L0.3 28.05 1.6 31.8 1.85 32.75 2.75 34.3" fill="#83d01e" fill-rule="evenodd" stroke="none"/>
    <path d="M3.85 10.75 Q10.4 0.4 22.3 0.9 28.2 1.05 32.75 4.8 42.4 12.7 41.85 25.4 41.3 38.2 30.7 44.85 26.25 47.65 20.9 46.95 7.85 46.2 2.75 34.3 8.0 42.3 17.15 44.3 28.75 46.6 35.75 37.65 43.7 27.55 39.35 15.3 35.75 5.25 25.45 3.5 12.7 1.6 3.85 10.75" fill="#216905" fill-rule="evenodd" stroke="none"/>
  </g>
</svg>
