<?xml version="1.0" encoding="UTF-8" standalone="no"?>
<svg xmlns:ffdec="https://www.free-decompiler.com/flash" xmlns:xlink="http://www.w3.org/1999/xlink" ffdec:objectType="shape" height="52.5px" width="44.85px" xmlns="http://www.w3.org/2000/svg">
  <g transform="matrix(1.0, 0.0, 0.0, 1.0, 2.25, 2.5)">
    <path d="M29.1 -2.35 Q31.85 -1.8 32.2 -1.2 L33.2 -0.1 33.95 0.45 35.85 3.45 Q39.45 9.35 40.7 13.2 42.6 18.95 42.6 28.8 42.6 37.9 37.0 44.0 35.7 45.4 29.15 47.7 22.55 50.0 19.7 50.0 17.5 50.0 15.2 49.05 10.9 47.35 9.8 47.0 6.2 45.85 2.6 41.8 0.5 39.45 -0.8 33.2 L-1.9 28.05 Q-2.4 25.65 -2.15 18.05 -1.9 10.45 5.15 4.65 12.2 -1.15 19.5 -1.95 L29.1 -2.35 M37.25 8.7 Q29.3 -2.15 16.5 1.9 6.2 5.15 2.45 15.6 -1.8 27.6 5.6 37.85 13.4 48.65 26.2 45.8 34.3 44.1 38.05 36.35 L38.3 35.65 40.45 28.65 Q41.75 23.9 40.8 19.0 39.55 12.5 37.25 8.7" fill="#83d01e" fill-rule="evenodd" stroke="none"/>
    <path d="M37.25 8.7 Q33.2 4.7 27.85 3.55 14.95 0.9 7.3 11.45 -0.2 21.75 4.7 33.55 8.35 42.3 17.3 44.15 30.2 46.55 38.05 36.35 34.3 44.1 26.2 45.8 13.4 48.65 5.6 37.85 -1.8 27.6 2.45 15.6 6.2 5.15 16.5 1.9 29.3 -2.15 37.25 8.7" fill="#216905" fill-rule="evenodd" stroke="none"/>
  </g>
</svg>
