<?xml version="1.0" encoding="UTF-8" standalone="no"?>
<svg xmlns:ffdec="https://www.free-decompiler.com/flash" xmlns:xlink="http://www.w3.org/1999/xlink" ffdec:objectType="shape" height="17.75px" width="27.35px" xmlns="http://www.w3.org/2000/svg">
  <g transform="matrix(1.0, 0.0, 0.0, 1.0, 0.0, 0.0)">
    <path d="M27.35 8.7 Q26.15 11.95 23.7 14.35 L23.65 14.35 20.65 16.55 18.3 16.45 Q11.85 15.65 7.0 11.75 3.55 8.95 1.45 5.8 L0.0 3.2 0.2 3.15 1.8 3.8 1.85 4.05 2.1 4.45 2.2 4.6 2.6 5.0 3.3 5.55 4.05 6.05 6.75 7.5 10.25 8.7 Q15.75 10.15 19.25 10.35 22.85 10.5 25.6 9.4 L27.35 8.7" fill="#2f800f" fill-rule="evenodd" stroke="none"/>
    <path d="M1.8 3.8 Q1.6 3.35 1.85 2.95 3.2 0.85 7.95 0.0 L10.8 0.15 10.9 0.2 10.9 0.15 15.35 0.85 Q18.6 1.6 21.5 3.15 L23.9 4.6 25.9 6.55 Q26.15 7.25 26.85 8.0 L27.35 8.7 25.6 9.4 Q22.85 10.5 19.25 10.35 15.75 10.15 10.25 8.7 L6.75 7.5 4.05 6.05 3.3 5.55 2.6 5.0 2.2 4.6 2.1 4.45 1.85 4.05 1.8 3.8" fill="#a7f345" fill-rule="evenodd" stroke="none"/>
    <path d="M23.7 14.35 L25.7 15.0 Q12.2 22.6 2.7 9.2 1.55 7.6 1.45 5.8 3.55 8.95 7.0 11.75 11.85 15.65 18.3 16.45 L20.65 16.55 23.65 14.35 23.7 14.35" fill="#000000" fill-opacity="0.2" fill-rule="evenodd" stroke="none"/>
  </g>
</svg>
