<?xml version="1.0" encoding="UTF-8" standalone="no"?>
<svg xmlns:ffdec="https://www.free-decompiler.com/flash" xmlns:xlink="http://www.w3.org/1999/xlink" ffdec:objectType="shape" height="150.05px" width="229.5px" xmlns="http://www.w3.org/2000/svg">
  <g transform="matrix(1.0, 0.0, 0.0, 1.0, 114.95, 100.05)">
    <path d="M54.0 -59.6 L53.95 -59.45 53.95 -59.55 54.0 -59.6 M7.4 -77.65 L7.4 -77.55 6.75 -77.6 6.85 -77.75 7.4 -77.65" fill="#26731e" fill-rule="evenodd" stroke="none"/>
    <path d="M4.1 -72.85 L5.4 -72.8 5.35 -72.75 4.1 -72.85" fill="url(#gradient0)" fill-rule="evenodd" stroke="none"/>
    <path d="M-104.0 -60.35 L-104.3 -60.45 -104.15 -60.8 -103.85 -60.7 -104.0 -60.35 M114.25 16.0 L114.5 15.9 114.55 15.9 114.25 16.0" fill="#96d955" fill-rule="evenodd" stroke="none"/>
    <path d="M-114.55 -0.75 L-114.95 -4.15 -114.9 -8.9 -112.95 -6.5 -110.5 -3.85 -112.3 -1.2 -113.9 1.55 -114.1 1.6 -114.25 1.9 -114.55 -0.75 M-104.15 -60.8 L-103.25 -62.7 -101.8 -64.6 Q-100.95 -63.6 -99.05 -62.65 L-95.8 -60.95 -97.55 -60.6 -99.35 -60.3 -103.85 -60.35 -103.85 -60.7 -104.15 -60.8 M-19.95 -100.05 L-19.2 -100.05 -19.55 -96.65 -20.0 -93.3 Q-20.5 -93.8 -23.55 -95.15 L-26.35 -96.3 -23.85 -97.65 Q-21.1 -98.95 -19.95 -100.05 M112.2 9.9 L112.6 9.95 113.15 12.4 Q113.8 15.0 114.5 15.9 L114.25 16.0 110.4 14.55 Q107.35 13.35 106.45 12.35 L106.8 12.0 112.2 9.9 M71.4 -69.35 L74.2 -70.25 77.25 -70.9 78.5 -70.9 76.7 -68.2 74.85 -65.2 71.4 -69.35 M-75.2 43.95 L-75.25 50.0 -77.95 48.95 -79.95 48.0 -77.9 46.45 Q-76.2 45.15 -75.55 43.95 L-75.2 43.95" fill="#4da12c" fill-rule="evenodd" stroke="none"/>
  </g>
  <defs>
    <radialGradient cx="0" cy="0" gradientTransform="matrix(0.0535, -0.0022, 0.016, 0.0557, 32.8, -49.65)" gradientUnits="userSpaceOnUse" id="gradient0" r="819.2" spreadMethod="pad">
      <stop offset="0.00784313725490196" stop-color="#ccfa85"/>
      <stop offset="0.5725490196078431" stop-color="#61b825"/>
      <stop offset="0.9803921568627451" stop-color="#25743d"/>
    </radialGradient>
  </defs>
</svg>
