<?xml version="1.0" encoding="UTF-8" standalone="no"?>
<svg xmlns:ffdec="https://www.free-decompiler.com/flash" xmlns:xlink="http://www.w3.org/1999/xlink" ffdec:objectType="shape" height="65.3px" width="214.45px" xmlns="http://www.w3.org/2000/svg">
  <g transform="matrix(1.0, 0.0, 0.0, 1.0, 109.45, 34.2)">
    <path d="M105.0 15.85 L105.0 29.85 Q80.95 32.75 58.95 29.0 36.9 25.2 23.35 26.3 9.75 27.4 5.75 23.55 1.7 19.7 -11.85 20.25 -38.45 21.3 -52.1 15.75 -65.65 10.05 -77.2 6.6 -88.85 3.2 -109.45 -0.3 -75.75 -11.3 -50.5 -12.85 -25.25 -14.45 -46.75 -18.55 -2.4 -22.3 18.25 -27.3 38.9 -32.35 51.15 -31.6 63.35 -30.85 72.9 -32.2 84.2 -34.1 96.25 -34.15 L98.8 -34.15 105.0 -33.3 105.0 -23.75 104.1 -23.55 100.75 -22.75 Q94.95 -21.45 87.75 -20.9 80.55 -20.35 64.25 -17.8 47.9 -15.3 30.6 -9.95 13.25 -4.7 -6.15 -0.85 L31.35 7.7 Q62.05 14.65 104.0 15.7 L105.0 15.85" fill="#ff6600" fill-rule="evenodd" stroke="none"/>
    <path d="M104.0 15.7 Q62.05 14.65 31.35 7.7 L-6.15 -0.85 Q13.25 -4.7 30.6 -9.95 47.9 -15.3 64.25 -17.8 80.55 -20.35 87.75 -20.9 94.95 -21.45 100.75 -22.75 68.1 -14.85 56.25 -2.75 71.6 8.95 104.0 15.7 M104.1 -23.55 L105.0 -23.75 104.1 -23.55" fill="#ffcc00" fill-rule="evenodd" stroke="none"/>
    <path d="M105.0 -23.75 L105.0 15.85 104.0 15.7 Q71.6 8.95 56.25 -2.75 68.1 -14.85 100.75 -22.75 L104.1 -23.55 105.0 -23.75" fill="#ffff99" fill-rule="evenodd" stroke="none"/>
  </g>
</svg>
