<?xml version="1.0" encoding="UTF-8" standalone="no"?>
<svg xmlns:ffdec="https://www.free-decompiler.com/flash" xmlns:xlink="http://www.w3.org/1999/xlink" ffdec:objectType="shape" height="68.1px" width="210.05px" xmlns="http://www.w3.org/2000/svg">
  <g transform="matrix(1.0, 0.0, 0.0, 1.0, 100.25, 35.35)">
    <path d="M105.95 19.85 Q106.65 22.95 106.65 26.35 106.7 29.25 105.0 30.75 L104.4 30.35 Q102.7 31.55 100.05 31.8 61.65 34.9 27.8 28.0 10.75 24.5 -6.9 22.95 -14.85 22.25 -22.8 20.0 -30.9 17.7 -48.75 16.75 -42.3 16.95 -36.8 13.2 L-44.8 10.6 Q-51.4 8.6 -60.1 7.65 -63.9 7.25 -68.15 5.65 -81.85 0.45 -100.25 -3.25 L-72.3 -10.15 -38.55 -18.25 Q-18.2 -23.2 13.65 -25.35 45.5 -27.5 22.0 -30.75 L63.3 -34.8 Q75.9 -35.8 90.85 -34.95 105.75 -34.1 105.75 -33.4 L104.95 -33.35 105.0 -32.75 Q108.6 -30.2 108.45 -25.5 L108.25 -23.85 108.0 -24.75 107.75 -23.6 107.55 -22.85 106.0 -22.75 Q80.9 -20.7 64.95 -16.25 48.95 -11.85 36.85 -8.1 24.7 -4.35 15.3 -2.15 10.5 -1.0 5.5 -0.75 56.65 16.2 100.1 17.45 L101.6 17.65 104.25 18.05 104.75 18.1 104.4 18.1 104.6 18.15 105.15 18.3 105.5 20.25 105.95 19.85" fill="#ff6600" fill-rule="evenodd" stroke="none"/>
    <path d="M108.25 -23.85 L108.3 -23.7 107.75 -23.6 108.0 -24.75 108.25 -23.85 M100.1 17.45 Q56.65 16.2 5.5 -0.75 10.5 -1.0 15.3 -2.15 24.7 -4.35 36.85 -8.1 48.95 -11.85 64.95 -16.25 80.9 -20.7 106.0 -22.75 76.2 -15.3 64.0 -2.0 77.5 13.5 100.1 17.45" fill="#ffcc00" fill-rule="evenodd" stroke="none"/>
    <path d="M108.3 -23.7 Q111.35 -12.05 108.2 2.2 106.75 8.8 107.2 15.7 107.4 18.35 105.95 19.85 L105.5 20.25 105.15 18.3 105.1 18.05 104.75 18.1 104.25 18.05 101.6 17.65 100.1 17.45 Q77.5 13.5 64.0 -2.0 76.2 -15.3 106.0 -22.75 L107.55 -22.85 107.75 -23.6 108.3 -23.7" fill="#ffff99" fill-rule="evenodd" stroke="none"/>
  </g>
</svg>
