<?xml version="1.0" encoding="UTF-8" standalone="no"?>
<svg xmlns:ffdec="https://www.free-decompiler.com/flash" xmlns:xlink="http://www.w3.org/1999/xlink" ffdec:objectType="shape" height="68.65px" width="208.4px" xmlns="http://www.w3.org/2000/svg">
  <g transform="matrix(1.0, 0.0, 0.0, 1.0, 99.5, 36.75)">
    <path d="M106.1 18.3 Q84.9 14.95 65.15 3.05 60.6 0.3 55.75 -1.75 72.2 -11.2 90.45 -19.35 97.45 -22.5 104.95 -24.15 L105.8 -24.3 107.15 -24.6 108.0 -24.75 Q110.0 -22.4 107.3 -20.8 L108.4 10.85 108.85 18.35 108.25 18.6 107.25 18.45 106.1 18.3" fill="#ffff99" fill-rule="evenodd" stroke="none"/>
    <path d="M104.95 -24.15 Q78.45 -24.0 53.85 -13.8 49.4 -11.95 44.45 -11.15 18.45 -6.9 -8.0 -4.25 1.55 -3.65 15.55 1.65 50.35 14.95 88.55 17.35 L106.1 18.3 107.25 18.45 107.75 19.95 Q108.35 25.55 105.15 30.2 L104.85 30.6 70.0 31.85 Q33.6 32.25 4.25 27.7 L6.35 27.7 Q5.15 27.6 9.0 26.15 L13.5 24.35 Q0.15 21.6 -31.1 18.5 -62.35 15.4 -82.1 9.4 -91.8 6.45 -99.5 2.9 -87.4 0.05 -69.6 -6.35 -51.85 -12.8 -33.45 -14.5 -15.05 -16.25 -2.05 -20.5 L22.5 -28.8 Q34.1 -32.75 64.5 -36.75 85.75 -36.75 107.0 -36.4 108.4 -36.4 108.25 -35.0 L105.8 -34.7 Q107.5 -31.4 107.1 -26.7 L107.05 -26.25 107.0 -27.25 105.8 -24.3 104.95 -24.15 M104.35 -34.5 L104.15 -34.5 104.2 -33.75 Q104.2 -34.2 104.35 -34.5" fill="#ff6600" fill-rule="evenodd" stroke="none"/>
    <path d="M106.1 18.3 L88.55 17.35 Q50.35 14.95 15.55 1.65 1.55 -3.65 -8.0 -4.25 18.45 -6.9 44.45 -11.15 49.4 -11.95 53.85 -13.8 78.45 -24.0 104.95 -24.15 97.45 -22.5 90.45 -19.35 72.2 -11.2 55.75 -1.75 60.6 0.3 65.15 3.05 84.9 14.95 106.1 18.3 M105.8 -24.3 L107.0 -27.25 107.05 -26.25 107.15 -24.6 105.8 -24.3 M107.75 19.95 L107.25 18.45 108.25 18.6 108.85 18.35 108.9 18.7 Q108.9 19.9 108.0 20.6 L107.75 19.95" fill="#ffcc00" fill-rule="evenodd" stroke="none"/>
  </g>
</svg>
