<?xml version="1.0" encoding="UTF-8" standalone="no"?>
<svg xmlns:ffdec="https://www.free-decompiler.com/flash" xmlns:xlink="http://www.w3.org/1999/xlink" ffdec:objectType="shape" height="85.4px" width="48.15px" xmlns="http://www.w3.org/2000/svg">
  <g transform="matrix(1.0, 0.0, 0.0, 1.0, 0.0, 0.0)">
    <path d="M45.85 45.35 L46.15 46.5 Q48.25 54.5 48.15 59.9 48.0 64.35 46.25 67.9 L45.55 69.15 44.4 70.7 44.4 70.75 43.5 71.75 43.2 72.2 39.05 76.8 37.0 78.8 35.3 80.1 Q35.7 76.7 34.5 72.2 33.2 67.15 30.9 60.35 L27.5 50.5 23.65 39.75 20.85 32.5 19.1 27.75 17.4 22.5 15.7 17.75 14.95 15.95 14.6 15.15 12.0 10.2 Q10.2 7.15 7.95 4.8 L8.85 4.9 10.15 5.0 11.45 5.0 Q19.3 15.3 27.4 38.1 33.05 54.1 37.45 72.1 46.75 64.9 45.7 50.85 45.3 44.95 44.3 40.5 L44.15 39.8 45.3 43.45 45.85 45.35" fill="#9a8162" fill-rule="evenodd" stroke="none"/>
    <path d="M45.85 45.35 L45.3 43.45 44.15 39.8 44.3 40.5 Q45.3 44.95 45.7 50.85 46.75 64.9 37.45 72.1 33.05 54.1 27.4 38.1 19.3 15.3 11.45 5.0 L14.8 4.7 15.1 4.65 16.0 4.55 19.95 4.25 20.6 4.25 22.05 4.35 22.1 4.0 Q33.0 8.25 39.75 22.65 44.9 33.55 45.85 45.35 M27.2 7.65 Q24.75 6.25 22.1 5.75 L19.85 5.95 19.9 6.3 Q18.85 6.45 18.2 7.05 L18.45 7.3 Q20.65 7.85 25.0 9.4 L31.55 11.65 Q30.0 9.3 27.2 7.65" fill="#c8c0b4" fill-rule="evenodd" stroke="none"/>
    <path d="M27.2 7.65 Q30.0 9.3 31.55 11.65 L25.0 9.4 Q20.65 7.85 18.45 7.3 L18.2 7.05 Q18.85 6.45 19.9 6.3 L19.85 5.95 22.1 5.75 Q24.75 6.25 27.2 7.65" fill="#e4ddd3" fill-rule="evenodd" stroke="none"/>
    <path d="M7.95 4.8 Q10.2 7.15 12.0 10.2 L14.6 15.15 14.95 15.95 15.7 17.75 17.4 22.5 19.1 27.75 20.85 32.5 23.65 39.75 27.5 50.5 30.9 60.35 Q33.2 67.15 34.5 72.2 35.7 76.7 35.3 80.1 L35.25 80.8 Q34.6 84.35 33.3 84.9 31.85 85.5 31.6 85.35 L29.7 85.05 29.65 83.25 Q29.3 73.4 28.85 70.55 26.4 62.05 22.7 51.05 L21.95 48.75 19.55 41.95 19.25 41.1 16.55 33.25 15.4 30.2 14.6 28.05 14.45 27.7 14.4 27.5 13.55 25.3 13.0 23.85 Q7.45 10.45 4.1 9.75 L3.75 9.65 Q3.5 9.65 2.95 8.1 L0.0 0.0 1.65 0.25 Q5.15 1.95 7.95 4.8" fill="#b14600" fill-rule="evenodd" stroke="none"/>
  </g>
</svg>
