<?xml version="1.0" encoding="UTF-8" standalone="no"?>
<svg xmlns:ffdec="https://www.free-decompiler.com/flash" xmlns:xlink="http://www.w3.org/1999/xlink" ffdec:objectType="shape" height="93.3px" width="144.0px" xmlns="http://www.w3.org/2000/svg">
  <g transform="matrix(1.0, 0.0, 0.0, 1.0, 6.5, -15.3)">
    <path d="M53.5 20.05 L53.55 20.0 54.65 19.9 54.7 20.05 53.5 20.05" fill="#8dd147" fill-rule="evenodd" stroke="none"/>
    <path d="M91.6 17.05 Q129.05 34.1 123.55 64.25 111.8 111.95 64.2 90.6 73.85 69.5 71.35 48.7 68.85 27.8 55.9 20.3 71.75 12.3 91.6 17.05 M-5.35 60.7 L-5.65 59.55 Q-6.15 59.95 -6.45 53.05 -6.75 46.05 -4.4 41.25 -2.0 36.45 -1.0 35.1 L0.45 33.3 0.5 33.25 Q22.7 13.45 53.5 20.05 L55.55 19.95 55.9 20.3 Q58.35 23.15 62.35 30.95 66.4 38.6 66.6 50.5 66.8 62.45 64.25 71.7 61.7 81.0 59.75 85.6 57.8 90.2 55.0 92.65 44.8 101.2 32.15 97.65 26.75 96.15 21.9 93.7 14.75 90.0 8.9 84.2 -1.0 74.3 -5.35 60.7" fill="#83d01e" fill-rule="evenodd" stroke="none"/>
    <path d="M55.9 20.3 Q68.85 27.8 71.35 48.7 73.85 69.5 64.2 90.6 111.8 111.95 123.55 64.25 129.05 34.1 91.6 17.05 131.7 25.8 137.5 60.3 133.65 97.95 100.2 107.35 80.85 112.05 58.95 98.75 43.8 105.55 28.15 100.45 10.0 94.6 0.05 78.15 -2.5 73.85 -4.05 69.15 -5.55 65.05 -5.35 60.7 -1.0 74.3 8.9 84.2 14.75 90.0 21.9 93.7 26.75 96.15 32.15 97.65 44.8 101.2 55.0 92.65 57.8 90.2 59.75 85.6 61.7 81.0 64.25 71.7 66.8 62.45 66.6 50.5 66.4 38.6 62.35 30.95 58.35 23.15 55.9 20.3" fill="#2f800f" fill-rule="evenodd" stroke="none"/>
    <path d="M54.0 25.7 Q58.55 29.75 61.15 37.5 38.6 32.55 16.4 44.0 11.4 42.15 9.8 34.5 29.95 17.95 54.0 25.7 M74.4 35.3 L69.1 23.6 Q96.05 14.15 116.0 38.8 93.35 28.55 74.4 35.3" fill="#ffffff" fill-opacity="0.4" fill-rule="evenodd" stroke="none"/>
  </g>
</svg>
