<?xml version="1.0" encoding="UTF-8" standalone="no"?>
<svg xmlns:ffdec="https://www.free-decompiler.com/flash" xmlns:xlink="http://www.w3.org/1999/xlink" ffdec:objectType="shape" height="56.2px" width="69.8px" xmlns="http://www.w3.org/2000/svg">
  <g transform="matrix(1.0, 0.0, 0.0, 1.0, 0.1, -1.3)">
    <path d="M53.6 57.2 Q55.35 56.7 57.1 54.55 63.25 45.35 64.75 39.65 66.2 33.95 65.8 30.2 65.35 26.4 63.8 23.5 62.2 20.55 52.45 14.05 42.7 7.55 30.1 4.95 17.5 2.3 8.75 7.0 13.65 1.95 22.85 1.4 30.5 0.55 44.0 6.35 57.45 12.1 63.1 17.8 68.7 23.45 69.5 27.45 70.25 31.45 68.2 39.2 64.3 51.85 58.35 57.5 L58.05 57.5 53.6 57.2" fill="#2f800f" fill-rule="evenodd" stroke="none"/>
    <path d="M8.75 7.0 Q17.5 2.3 30.1 4.95 42.7 7.55 52.45 14.05 62.2 20.55 63.8 23.5 65.35 26.4 65.8 30.2 66.2 33.95 64.75 39.65 63.25 45.35 57.1 54.55 55.35 56.7 53.6 57.2 L43.6 56.4 41.85 56.5 Q18.5 56.5 7.9 47.7 2.3 43.05 1.6 38.4 L0.85 38.2 Q0.25 35.15 -0.05 29.45 -0.35 23.75 2.3 17.5 5.0 11.2 6.5 9.4 8.0 7.55 8.75 7.0" fill="#83d01e" fill-rule="evenodd" stroke="none"/>
    <path d="M22.7 8.45 Q16.15 22.6 14.25 39.3 11.35 38.75 6.65 35.55 2.2 22.4 11.1 10.6 18.45 7.7 22.7 8.45" fill="#ffffff" fill-opacity="0.4" fill-rule="evenodd" stroke="none"/>
  </g>
</svg>
