<?xml version="1.0" encoding="UTF-8" standalone="no"?>
<svg xmlns:ffdec="https://www.free-decompiler.com/flash" xmlns:xlink="http://www.w3.org/1999/xlink" ffdec:objectType="shape" height="80.45px" width="114.8px" xmlns="http://www.w3.org/2000/svg">
  <g transform="matrix(1.0, 0.0, 0.0, 1.0, -5.95, 8.75)">
    <path d="M71.85 27.4 L73.85 29.6 72.9 29.85 70.95 30.6 71.6 27.95 71.85 27.4" fill="#265c50" fill-rule="evenodd" stroke="none"/>
    <path d="M84.8 8.55 Q91.35 12.2 98.25 14.5 106.05 17.1 113.2 20.95 123.05 26.2 120.05 34.8 L119.7 34.65 Q119.45 26.95 112.75 22.7 106.0 18.4 98.4 15.55 91.15 12.85 84.15 9.4 L84.8 8.55" fill="#99ca4f" fill-rule="evenodd" stroke="none"/>
    <path d="M119.7 34.65 L119.65 35.3 119.05 36.05 Q116.25 39.3 112.0 39.3 103.2 38.9 95.95 33.55 89.0 28.45 83.3 21.7 L83.4 21.6 83.2 21.6 80.25 18.4 80.25 18.15 80.65 16.35 Q81.65 12.45 84.15 9.4 91.15 12.85 98.4 15.55 106.0 18.4 112.75 22.7 119.45 26.95 119.7 34.65 M113.8 50.25 Q110.9 56.85 104.2 54.6 L102.45 54.0 Q94.6 50.7 88.4 44.85 82.0 38.75 76.2 32.15 L73.85 29.6 71.85 27.4 73.25 25.8 Q76.0 23.0 79.7 22.0 84.1 27.4 89.4 32.15 95.45 37.5 103.05 39.85 111.8 42.45 113.8 50.25 M108.4 68.1 Q100.65 73.65 91.8 68.15 88.9 66.4 86.25 64.15 79.45 59.15 74.25 52.55 69.35 46.35 65.95 39.1 L64.55 36.35 66.2 34.1 70.85 30.65 70.95 30.8 70.95 30.6 72.9 29.85 74.5 32.9 Q78.25 40.05 84.25 45.3 90.4 50.65 97.3 54.9 105.2 59.85 108.4 68.1 M84.55 69.35 Q76.9 74.2 68.95 68.95 61.75 64.2 57.35 56.75 52.85 49.1 50.95 40.25 L51.75 39.1 Q54.95 34.7 60.25 33.55 62.1 40.2 65.45 46.45 69.05 53.25 75.55 57.75 81.85 62.2 84.55 69.35 M12.2 46.35 Q3.8 43.2 6.65 34.6 9.4 26.1 16.3 20.35 L23.35 14.1 Q27.1 16.2 30.35 19.2 L31.6 20.45 Q28.4 27.8 24.25 34.65 19.8 42.1 12.2 46.35" fill="#83d01e" fill-rule="evenodd" stroke="none"/>
    <path d="M112.0 39.3 Q114.4 43.45 114.05 48.15 L113.8 50.25 Q111.8 42.45 103.05 39.85 95.45 37.5 89.4 32.15 84.1 27.4 79.7 22.0 L80.6 21.8 80.25 18.4 83.2 21.6 83.3 21.7 Q89.0 28.45 95.95 33.55 103.2 38.9 112.0 39.3 M102.45 54.0 Q109.75 58.35 108.75 66.3 L108.4 68.1 Q105.2 59.85 97.3 54.9 90.4 50.65 84.25 45.3 78.25 40.05 74.5 32.9 L72.9 29.85 73.85 29.6 76.2 32.15 Q82.0 38.75 88.4 44.85 94.6 50.7 102.45 54.0 M86.25 64.15 Q86.35 66.4 85.15 68.45 L84.55 69.35 Q81.85 62.2 75.55 57.75 69.05 53.25 65.45 46.45 62.1 40.2 60.25 33.55 L63.15 33.7 64.55 36.35 65.95 39.1 Q69.35 46.35 74.25 52.55 79.45 59.15 86.25 64.15 M34.75 24.75 Q29.0 30.2 25.7 37.8 21.75 46.9 12.2 46.35 19.8 42.1 24.25 34.65 28.4 27.8 31.6 20.45 L32.7 21.75 34.75 24.75" fill="#2f800f" fill-rule="evenodd" stroke="none"/>
    <path d="M23.35 14.1 Q27.9 10.9 30.4 5.25 32.8 -0.4 36.65 -3.4 40.45 -6.4 43.65 -7.25 46.8 -8.1 53.85 -8.75 66.7 -7.95 84.8 8.55 L84.15 9.4 Q81.65 12.45 80.65 16.35 L80.25 18.15 80.15 18.25 77.5 15.45 78.05 17.45 79.7 22.0 Q76.0 23.0 73.25 25.8 L71.85 27.4 71.6 27.95 70.95 30.6 70.85 30.65 66.2 34.1 64.55 36.35 63.15 33.7 Q61.05 28.85 57.2 25.35 L58.0 26.75 Q59.6 29.9 60.25 33.55 54.95 34.7 51.75 39.1 L50.95 40.25 Q52.1 32.85 47.9 26.8 L46.85 25.4 Q45.0 23.25 42.05 22.85 L40.5 22.9 Q48.05 18.25 50.25 9.45 50.95 6.75 51.0 4.0 56.15 8.85 63.05 9.85 67.05 10.55 70.9 9.3 66.15 8.4 61.7 6.5 53.8 3.35 46.6 -2.5 L46.75 -2.05 46.9 -1.6 48.35 0.9 Q49.45 2.6 50.95 4.0 50.35 13.35 42.2 18.3 37.85 21.05 32.7 21.75 L31.6 20.45 30.35 19.2 Q27.1 16.2 23.35 14.1" fill="#104d40" fill-rule="evenodd" stroke="none"/>
    <path d="M40.5 22.9 L35.4 24.35 34.75 24.75 32.7 21.75 Q37.85 21.05 42.2 18.3 50.35 13.35 50.95 4.0 49.45 2.6 48.35 0.9 L46.9 -1.6 46.75 -2.05 46.6 -2.5 Q53.8 3.35 61.7 6.5 66.15 8.4 70.9 9.3 67.05 10.55 63.05 9.85 56.15 8.85 51.0 4.0 50.95 6.75 50.25 9.45 48.05 18.25 40.5 22.9 M80.25 18.4 L80.6 21.8 79.7 22.0 78.05 17.45 77.5 15.45 80.15 18.25 80.25 18.4 M51.0 4.0 L51.0 3.45 50.95 4.0 51.0 4.0 M60.25 33.55 Q59.6 29.9 58.0 26.75 L57.2 25.35 Q61.05 28.85 63.15 33.7 L60.25 33.55" fill="#07251e" fill-rule="evenodd" stroke="none"/>
  </g>
</svg>
