<?xml version="1.0" encoding="UTF-8" standalone="no"?>
<svg xmlns:ffdec="https://www.free-decompiler.com/flash" xmlns:xlink="http://www.w3.org/1999/xlink" ffdec:objectType="shape" height="83.25px" width="40.05px" xmlns="http://www.w3.org/2000/svg">
  <g transform="matrix(1.0, 0.0, 0.0, 1.0, 0.6, 15.75)">
    <path d="M11.35 20.2 L11.35 20.15 39.45 16.85 38.75 23.3 31.3 24.75 30.45 24.9 25.15 25.7 10.65 27.95 10.65 27.85 11.35 20.2" fill="#2d6c58" fill-rule="evenodd" stroke="none"/>
    <path d="M38.75 23.3 L29.15 54.3 24.8 67.2 16.85 67.45 -0.6 66.85 10.65 27.85 10.65 27.95 25.15 25.7 30.45 24.9 31.3 24.75 38.75 23.3" fill="#104d40" fill-rule="evenodd" stroke="none"/>
    <path d="M11.35 20.2 Q8.55 -2.15 6.9 -12.1 L7.45 -15.75 35.4 -15.75 39.45 16.85 11.35 20.15 11.35 20.2" fill="#83d01e" fill-rule="evenodd" stroke="none"/>
  </g>
</svg>
