<?xml version="1.0" encoding="UTF-8" standalone="no"?>
<svg xmlns:ffdec="https://www.free-decompiler.com/flash" xmlns:xlink="http://www.w3.org/1999/xlink" ffdec:objectType="shape" height="89.95px" width="48.3px" xmlns="http://www.w3.org/2000/svg">
  <g transform="matrix(1.0, 0.0, 0.0, 1.0, 4.45, 34.65)">
    <path d="M23.25 19.7 L22.2 24.3 -4.45 18.15 -3.55 14.1 23.25 19.7" fill="#2d6c58" fill-rule="evenodd" stroke="none"/>
    <path d="M22.2 24.3 L26.55 55.05 10.5 54.45 Q2.45 53.15 0.2 51.9 L0.1 52.25 0.15 51.9 -0.05 51.8 Q0.1 51.0 -0.05 51.75 L-0.1 51.95 -0.2 52.25 -0.1 51.65 0.0 51.0 Q0.1 50.45 -0.6 44.55 -1.35 38.65 -4.45 18.15 L22.2 24.3" fill="#104d40" fill-rule="evenodd" stroke="none"/>
    <path d="M-3.55 14.1 L13.55 -34.65 43.85 -29.55 23.25 19.7 -3.55 14.1" fill="#83d01e" fill-rule="evenodd" stroke="none"/>
  </g>
</svg>
