<?xml version="1.0" encoding="UTF-8" standalone="no"?>
<svg xmlns:ffdec="https://www.free-decompiler.com/flash" xmlns:xlink="http://www.w3.org/1999/xlink" ffdec:objectType="shape" height="24.85px" width="57.05px" xmlns="http://www.w3.org/2000/svg">
  <g transform="matrix(1.0, 0.0, 0.0, 1.0, 6.9, 8.65)">
    <path d="M31.55 -1.85 L27.65 -4.3 8.2 -4.1 7.3 4.5 -1.9 0.5 -5.4 -0.95 -6.9 -5.85 3.45 -1.7 2.5 -8.35 31.45 -8.65 36.75 -5.85 31.55 -1.85 M-1.9 10.4 L50.15 11.95 49.55 16.2 -2.25 15.3 -1.9 10.4 M35.75 6.05 L28.6 9.35 25.15 7.8 33.85 5.25 35.75 6.05 M20.4 6.85 L16.3 4.65 29.45 3.4 31.45 4.5 20.4 6.85" fill="#2d6c58" fill-rule="evenodd" stroke="none"/>
    <path d="M-1.9 0.5 L7.3 4.5 8.2 -4.1 27.65 -4.3 31.55 -1.85 27.15 1.75 50.15 11.95 -1.9 10.4 -1.9 0.5 M35.75 6.05 L33.85 5.25 25.15 7.8 28.6 9.35 35.75 6.05 M20.4 6.85 L31.45 4.5 29.45 3.4 16.3 4.65 20.4 6.85" fill="#104d40" fill-rule="evenodd" stroke="none"/>
  </g>
</svg>
