<?xml version="1.0" encoding="UTF-8" standalone="no"?>
<svg xmlns:ffdec="https://www.free-decompiler.com/flash" xmlns:xlink="http://www.w3.org/1999/xlink" ffdec:objectType="shape" height="65.85px" width="143.5px" xmlns="http://www.w3.org/2000/svg">
  <g transform="matrix(1.0, 0.0, 0.0, 1.0, 0.0, 0.0)">
    <path d="M143.45 47.05 L143.4 61.05 143.35 65.1 143.35 65.2 143.35 65.8 141.1 65.85 120.65 65.15 94.1 64.55 75.25 64.4 69.65 64.25 51.5 63.6 20.15 63.15 21.85 63.15 3.95 62.8 2.85 45.0 Q51.2 45.25 99.55 44.95 L143.45 47.05" fill="#347e6f" fill-rule="evenodd" stroke="none"/>
    <path d="M2.85 45.0 L0.0 0.0 143.5 0.0 143.45 33.9 143.4 40.2 143.4 44.55 143.45 47.05 99.55 44.95 Q51.2 45.25 2.85 45.0" fill="#104d40" fill-rule="evenodd" stroke="none"/>
  </g>
</svg>
