<?xml version="1.0" encoding="UTF-8" standalone="no"?>
<svg xmlns:ffdec="https://www.free-decompiler.com/flash" xmlns:xlink="http://www.w3.org/1999/xlink" ffdec:objectType="shape" height="200.2px" width="240.15px" xmlns="http://www.w3.org/2000/svg">
  <g transform="matrix(1.0, 0.0, 0.0, 1.0, 0.0, 0.0)">
    <path d="M204.05 30.7 L204.95 30.85 204.25 31.1 204.2 31.1 203.95 31.2 204.05 30.7 M206.8 31.15 L239.75 36.6 240.15 36.9 230.4 196.05 149.6 197.3 149.6 197.35 76.2 198.5 32.75 2.3 65.55 7.75 65.15 10.05 62.75 9.65 54.8 9.55 47.05 9.15 47.05 9.2 46.85 9.3 46.7 9.55 Q46.55 10.35 47.2 10.95 L47.4 11.1 47.4 11.15 49.45 13.4 49.55 13.5 Q52.45 16.3 56.35 18.25 L85.85 32.75 97.2 38.25 Q111.2 45.05 125.55 51.1 L127.45 51.9 144.2 57.3 145.0 57.55 145.7 57.75 145.8 57.1 150.05 40.65 152.75 30.45 152.55 35.3 152.75 35.3 Q152.5 37.95 152.5 40.75 L152.5 41.3 152.1 63.3 151.05 85.15 150.75 90.85 150.75 90.9 Q149.85 107.65 150.05 124.5 151.0 124.4 152.45 125.35 L152.3 112.75 Q152.15 101.85 152.4 90.95 L152.6 85.25 Q152.9 77.15 153.45 69.1 L153.8 63.4 153.8 63.35 Q154.5 48.55 154.35 34.05 L154.3 30.45 154.3 29.75 154.25 28.65 154.25 28.6 154.4 28.5 154.4 28.55 154.5 28.7 166.7 52.2 194.8 37.35 195.05 37.25 200.3 34.5 205.05 32.0 205.05 31.9 Q205.45 31.65 205.95 31.55 206.8 31.35 206.8 31.15 M165.3 70.7 L165.3 70.9 165.35 70.7 165.3 70.7 M166.15 68.5 L166.05 68.65 166.4 68.65 166.35 68.15 166.15 68.5 M168.45 85.35 L168.55 85.25 168.45 85.25 168.45 85.35 M229.7 62.35 L229.05 62.35 229.05 62.8 229.55 62.75 229.7 62.35 229.75 62.35 229.75 62.2 229.7 62.35 M145.3 59.1 L145.05 59.15 145.3 59.25 145.3 59.1 M50.05 12.5 L50.25 12.6 50.2 12.6 50.1 12.55 50.05 12.5 M67.1 84.2 L67.2 84.6 67.25 84.15 67.05 84.15 67.1 84.2 M76.75 138.05 L77.05 138.05 76.95 137.5 76.7 138.05 76.75 138.15 76.75 138.05 M134.9 139.05 L134.95 139.55 135.4 139.55 134.9 139.05 M112.35 154.9 L112.35 156.25 112.4 154.9 112.35 154.9 M82.5 157.25 L82.5 155.5 82.2 155.5 82.5 157.25 M84.15 176.5 L84.15 178.3 86.0 178.3 86.0 176.5 85.95 176.2 84.2 176.5 84.15 176.5 M133.65 176.0 L133.25 176.0 134.9 177.1 134.9 178.05 135.15 178.05 134.9 177.1 134.95 176.0 133.65 176.0" fill="#348f86" fill-rule="evenodd" stroke="none"/>
    <path d="M203.95 31.2 L204.2 31.1 204.25 31.1 204.95 30.85 205.2 30.9 205.45 30.9 205.65 31.0 205.55 31.1 205.45 31.15 205.4 31.3 205.8 31.15 206.55 31.1 206.7 31.0 206.8 31.15 Q206.8 31.35 205.95 31.55 205.45 31.65 205.05 31.9 L205.05 32.0 200.3 34.5 195.05 37.25 194.8 37.35 166.7 52.2 154.5 28.7 154.4 28.55 154.4 28.5 153.9 27.5 154.25 28.6 154.25 28.65 154.3 29.75 154.3 30.45 154.35 34.05 Q154.5 48.55 153.8 63.35 L153.8 63.4 152.1 63.3 152.5 41.3 152.5 40.75 Q152.5 37.95 152.75 35.3 L152.8 34.05 152.55 35.3 152.75 30.45 150.05 40.65 145.8 57.1 145.7 57.75 145.0 57.55 144.2 57.3 127.45 51.9 125.55 51.1 Q111.2 45.05 97.2 38.25 L85.85 32.75 56.35 18.25 Q52.45 16.3 49.55 13.5 L49.45 13.4 47.4 11.15 47.45 11.15 47.4 11.1 47.2 10.95 Q46.55 10.35 46.7 9.55 L46.85 9.3 47.05 9.2 47.05 9.15 54.8 9.55 62.75 9.65 65.15 10.05 Q66.25 10.4 67.05 11.1 65.1 12.25 62.05 11.65 L54.45 10.55 Q50.7 10.2 47.7 10.5 L47.85 10.65 48.1 10.9 48.3 11.1 48.5 11.25 48.65 11.45 49.05 11.7 49.2 11.85 49.3 12.05 49.5 12.25 50.05 12.5 50.1 12.55 50.2 12.6 50.25 12.6 Q67.95 22.35 86.55 31.3 106.25 40.75 126.45 48.95 135.7 52.75 144.45 56.5 L153.35 25.3 152.85 27.55 152.95 27.25 153.0 27.15 153.55 25.65 153.5 25.3 153.3 23.25 153.9 24.8 154.65 23.2 154.35 25.9 155.75 29.05 156.7 30.95 159.55 35.9 Q163.25 41.85 166.5 48.15 L167.15 49.35 200.05 33.35 201.25 32.55 203.65 31.45 203.95 31.2 M204.2 31.55 L204.3 31.6 Q204.4 31.45 204.6 31.4 L204.35 31.45 204.2 31.55 M180.35 44.3 L180.45 44.3 180.5 44.25 180.35 44.3 M178.4 45.15 L178.3 45.2 178.45 45.15 178.4 45.15" fill="#276155" fill-rule="evenodd" stroke="none"/>
    <path d="M205.45 30.9 L206.55 31.1 205.8 31.15 205.4 31.3 205.45 31.15 205.55 31.1 205.65 31.0 205.45 30.9 M204.2 31.55 L204.35 31.45 204.6 31.4 Q204.4 31.45 204.3 31.6 L204.2 31.55 M178.4 45.15 L178.45 45.15 178.3 45.2 178.4 45.15 M180.35 44.3 L180.5 44.25 180.45 44.3 180.35 44.3 M168.45 85.35 L168.45 85.25 168.55 85.25 168.45 85.35" fill="#82ccbd" fill-rule="evenodd" stroke="none"/>
    <path d="M204.05 30.7 L203.95 31.2 203.65 31.45 201.25 32.55 200.05 33.35 167.15 49.35 166.5 48.15 Q163.25 41.85 159.55 35.9 L156.7 30.95 155.75 29.05 154.35 25.9 154.65 23.2 153.9 24.8 153.3 23.25 153.5 25.3 153.35 25.3 144.45 56.5 Q135.7 52.75 126.45 48.95 106.25 40.75 86.55 31.3 67.95 22.35 50.25 12.6 L50.05 12.5 49.3 12.05 49.2 11.85 49.05 11.7 48.65 11.45 48.5 11.25 48.3 11.1 48.1 10.9 47.85 10.65 47.7 10.5 Q50.7 10.2 54.45 10.55 L62.05 11.65 Q65.1 12.25 67.05 11.1 66.25 10.4 65.15 10.05 L65.55 7.75 204.05 30.7 M133.25 176.0 L133.65 176.0 133.65 176.25 133.25 176.0" fill="#48ae99" fill-rule="evenodd" stroke="none"/>
    <path d="M154.4 28.5 L154.25 28.6 153.9 27.5 154.4 28.5 M152.75 35.3 L152.55 35.3 152.8 34.05 152.75 35.3 M47.4 11.15 L47.4 11.1 47.45 11.15 47.4 11.15 M165.3 70.7 L165.35 70.7 165.3 70.9 165.3 70.7 M229.7 62.35 L229.55 62.75 229.05 62.8 229.05 62.35 229.7 62.35 M153.35 25.3 L153.5 25.3 153.55 25.65 153.0 27.15 152.95 27.25 152.85 27.55 153.35 25.3 M49.3 12.05 L50.05 12.5 49.5 12.25 49.3 12.05 M76.75 138.05 L76.7 138.05 76.95 137.5 77.05 138.05 76.75 138.05 M134.9 139.05 L135.4 139.55 134.95 139.55 134.9 139.05" fill="#43a38e" fill-rule="evenodd" stroke="none"/>
    <path d="M145.3 59.1 L145.3 59.25 145.05 59.15 145.3 59.1" fill="#70a9a3" fill-rule="evenodd" stroke="none"/>
    <path d="M153.8 63.4 L153.45 69.1 Q152.9 77.15 152.6 85.25 L152.4 90.95 Q152.15 101.85 152.3 112.75 L152.45 125.35 Q151.0 124.4 150.05 124.5 149.85 107.65 150.75 90.9 L150.75 90.85 151.05 85.15 152.1 63.3 153.8 63.4" fill="#1e514b" fill-rule="evenodd" stroke="none"/>
    <path d="M30.9 1.95 L30.85 1.85 32.45 2.1 32.45 2.25 32.75 2.3 76.2 198.5 71.05 198.65 38.35 38.15 38.6 39.1 Q32.8 12.25 30.9 1.95" fill="#7ebbae" fill-rule="evenodd" stroke="none"/>
    <path d="M19.05 0.05 L19.6 0.2 18.55 0.0 18.7 0.0 19.05 0.05 M76.7 138.05 L76.75 138.05 76.75 138.15 76.7 138.05 M84.15 176.5 L84.2 176.5 85.95 176.2 86.0 176.5 86.0 178.3 84.15 178.3 84.15 176.5 M82.5 157.25 L82.2 155.5 82.5 155.5 82.5 157.25 M112.35 154.9 L112.4 154.9 112.35 156.25 112.35 154.9 M133.25 176.0 L133.65 176.25 133.65 176.0 134.95 176.0 134.9 177.1 135.15 178.05 134.9 178.05 134.9 177.1 133.25 176.0" fill="#347e6f" fill-rule="evenodd" stroke="none"/>
    <path d="M230.4 196.05 L230.25 198.9 230.2 199.1 Q141.75 201.0 28.35 199.6 L28.2 199.35 0.0 6.45 30.9 1.95 Q32.8 12.25 38.6 39.1 L38.35 38.15 71.05 198.65 76.2 198.5 149.6 197.35 149.6 197.3 230.4 196.05" fill="#104d40" fill-rule="evenodd" stroke="none"/>
    <path d="M187.95 72.6 L188.15 72.05 188.15 72.6 226.8 66.9 227.6 66.25 227.6 66.75 227.9 66.65 228.0 66.25 228.05 66.1 226.95 102.95 Q219.9 107.2 212.15 110.9 L207.35 113.2 189.45 118.95 187.45 74.8 187.45 74.65 187.35 72.75 187.95 72.6 M189.35 93.95 L189.45 96.55 190.75 117.4 Q200.0 114.7 208.95 110.2 L217.2 105.95 218.5 105.25 219.7 104.6 225.0 101.75 226.05 101.05 225.9 99.7 226.25 78.8 Q219.15 81.35 211.65 83.4 L211.85 89.75 211.95 92.05 204.55 96.3 204.55 96.0 204.45 96.0 204.45 95.0 204.5 95.0 204.15 85.45 203.85 85.45 189.25 91.1 189.35 93.95 M189.3 89.15 L189.25 89.15 189.25 89.2 189.3 89.15 M189.25 88.6 L201.9 84.9 203.9 84.25 203.75 79.3 203.9 78.5 203.8 78.0 203.9 78.2 203.95 78.0 203.7 77.95 204.1 77.55 204.55 77.0 204.6 77.05 Q207.4 74.65 211.05 74.8 L211.35 74.85 211.5 75.0 211.55 75.25 Q211.4 76.7 211.4 78.2 211.35 80.0 211.6 81.9 L221.85 78.9 226.3 77.4 226.45 68.85 188.35 74.45 189.25 88.6 M204.9 78.5 L204.85 78.9 205.75 94.45 210.5 91.75 210.35 75.75 204.9 77.8 204.9 78.2 204.85 78.2 204.9 78.5" fill="#276155" fill-rule="evenodd" stroke="none"/>
    <path d="M189.35 93.95 L189.25 91.1 203.85 85.45 204.15 85.45 204.5 95.0 204.45 95.0 204.45 96.0 204.55 96.0 204.55 96.3 211.95 92.05 211.85 89.75 211.65 83.4 Q219.15 81.35 226.25 78.8 L225.9 99.7 226.05 101.05 225.0 101.75 219.7 104.6 218.5 105.25 217.2 105.95 208.95 110.2 Q200.0 114.7 190.75 117.4 L189.45 96.55 189.35 93.95 M189.25 88.6 L188.35 74.45 226.45 68.85 226.3 77.4 221.85 78.9 211.6 81.9 Q211.35 80.0 211.4 78.2 211.4 76.7 211.55 75.25 L211.5 75.0 211.35 74.85 211.05 74.8 Q207.4 74.65 204.6 77.05 L204.55 77.0 204.1 77.55 203.7 77.95 203.95 78.0 203.9 78.2 203.8 78.0 203.9 78.5 203.75 79.3 203.9 84.25 201.9 84.9 189.25 88.6" fill="#48ae99" fill-rule="evenodd" stroke="none"/>
    <path d="M204.9 78.5 L204.85 78.2 204.9 78.2 204.9 77.8 210.35 75.75 210.5 91.75 205.75 94.45 204.85 78.9 204.9 78.5" fill="#82ccbd" fill-rule="evenodd" stroke="none"/>
    <path d="M125.45 114.5 Q112.85 96.25 121.65 77.15 128.05 63.8 142.35 61.85 146.6 61.2 151.55 61.65 161.4 64.4 167.9 70.35 174.15 76.1 177.3 84.7 L177.4 85.1 178.35 88.1 178.9 94.75 Q179.2 98.8 176.55 106.4 156.8 135.25 129.1 117.85 L125.45 114.5 M161.25 94.2 L160.7 93.5 Q159.15 91.95 156.6 92.5 155.35 92.75 153.4 94.95 150.55 97.8 151.35 100.85 151.9 102.7 153.95 102.2 L157.0 101.3 Q158.4 100.55 159.65 99.6 162.25 97.4 161.55 94.95 L161.25 94.2 M162.15 102.7 L162.1 102.7 Q161.95 102.4 161.55 102.3 161.3 102.05 160.7 101.9 L158.75 101.8 Q158.3 101.9 157.7 102.35 L156.05 103.65 Q154.45 105.25 154.25 106.55 L154.3 107.45 Q154.7 108.5 155.4 108.7 156.15 109.0 157.7 108.7 159.95 108.2 161.55 106.4 163.0 104.65 162.55 103.15 162.5 102.85 162.15 102.7 M164.85 75.45 Q164.6 74.65 164.2 74.2 162.9 72.65 159.8 73.3 155.4 74.25 151.0 80.7 148.75 84.05 145.75 90.0 L145.7 89.3 Q146.3 86.6 146.7 81.95 147.6 74.15 146.55 70.3 145.45 66.4 143.3 66.85 139.25 67.7 138.15 76.4 137.3 83.35 138.65 92.4 L139.55 97.3 Q137.55 94.7 134.85 92.75 131.0 89.95 127.85 90.5 126.3 90.9 125.75 92.4 125.25 93.95 125.75 95.8 126.45 98.25 132.05 102.95 L138.9 109.2 140.05 110.6 Q141.3 111.5 143.55 112.55 L149.3 112.8 Q151.1 112.45 151.75 111.9 L152.05 111.65 153.05 111.05 Q153.75 110.3 153.3 108.4 L153.1 106.6 153.15 106.45 153.1 106.4 153.3 105.1 Q152.9 103.9 151.35 102.65 L151.2 102.55 150.45 101.35 150.35 101.15 150.3 101.05 150.1 100.5 Q149.7 98.65 149.85 96.85 L151.05 94.9 151.85 93.9 152.15 93.75 159.6 86.05 Q165.85 79.15 164.85 75.45" fill="#83d01e" fill-rule="evenodd" stroke="none"/>
    <path d="M164.85 75.45 Q165.85 79.15 159.6 86.05 L152.15 93.75 151.85 93.9 151.05 94.9 149.85 96.85 Q149.7 98.65 150.1 100.5 L150.3 101.05 150.35 101.15 150.45 101.35 151.2 102.55 151.35 102.65 Q152.9 103.9 153.3 105.1 L153.1 106.4 153.15 106.45 153.1 106.6 153.3 108.4 Q153.75 110.3 153.05 111.05 L152.05 111.65 151.75 111.9 Q151.1 112.45 149.3 112.8 L143.55 112.55 Q141.3 111.5 140.05 110.6 L138.9 109.2 132.05 102.95 Q126.45 98.25 125.75 95.8 125.25 93.95 125.75 92.4 126.3 90.9 127.85 90.5 131.0 89.95 134.85 92.75 137.55 94.7 139.55 97.3 L138.65 92.4 Q137.3 83.35 138.15 76.4 139.25 67.7 143.3 66.85 145.45 66.4 146.55 70.3 147.6 74.15 146.7 81.95 146.3 86.6 145.7 89.3 L145.75 90.0 Q148.75 84.05 151.0 80.7 155.4 74.25 159.8 73.3 162.9 72.65 164.2 74.2 164.6 74.65 164.85 75.45 M162.15 102.7 Q162.5 102.85 162.55 103.15 163.0 104.65 161.55 106.4 159.95 108.2 157.7 108.7 156.15 109.0 155.4 108.7 154.7 108.5 154.3 107.45 L154.25 106.55 Q154.45 105.25 156.05 103.65 L157.7 102.35 Q158.3 101.9 158.75 101.8 L160.7 101.9 Q161.3 102.05 161.55 102.3 161.95 102.4 162.1 102.7 L162.15 102.7 M161.25 94.2 L161.55 94.95 Q162.25 97.4 159.65 99.6 158.4 100.55 157.0 101.3 L153.95 102.2 Q151.9 102.7 151.35 100.85 150.55 97.8 153.4 94.95 155.35 92.75 156.6 92.5 159.15 91.95 160.7 93.5 L161.25 94.2" fill="#ffffff" fill-rule="evenodd" stroke="none"/>
    <path d="M125.45 114.5 L129.1 117.85 126.6 115.85 125.45 114.5" fill="#48ae99" fill-rule="evenodd" stroke="none"/>
    <path d="M111.1 59.4 L111.9 59.6 111.85 62.05 111.85 62.25 110.0 118.9 85.7 111.5 79.1 108.55 Q68.65 103.8 58.9 98.35 L56.7 51.1 56.85 51.3 56.95 51.8 57.35 51.9 57.35 51.3 58.5 52.1 110.85 59.4 110.85 58.7 111.1 59.4 M88.35 67.0 L88.4 66.6 88.35 66.6 88.3 66.05 80.85 63.45 81.0 84.0 87.45 87.4 88.35 67.0 M89.45 75.9 L89.15 88.15 89.2 88.15 89.25 89.45 89.1 89.45 89.1 89.85 79.05 84.4 79.1 81.45 Q79.0 77.1 79.3 73.25 69.1 70.65 59.4 67.4 L60.35 94.2 60.15 95.9 61.6 96.85 Q65.15 98.75 68.8 100.45 L70.4 101.3 72.2 102.2 Q77.75 105.0 83.45 107.65 95.6 113.4 108.25 116.85 L109.65 90.15 109.65 86.8 109.7 83.15 89.85 75.9 89.45 75.9 M89.7 67.0 L89.8 68.0 89.75 74.35 92.55 75.2 109.75 79.95 Q110.05 70.85 110.65 61.85 L59.0 54.65 59.35 65.55 65.35 67.5 79.3 71.35 79.55 66.6 79.2 62.85 79.35 62.55 79.55 62.35 79.95 62.25 Q84.9 62.05 88.7 65.15 L88.75 65.05 Q89.15 65.25 89.35 65.75 L89.9 66.3 89.55 66.4 89.7 66.6 89.75 66.4 89.7 67.0 M109.75 80.65 L109.65 80.65 109.75 80.75 109.75 80.65" fill="#276155" fill-rule="evenodd" stroke="none"/>
    <path d="M88.35 67.0 L87.45 87.4 81.0 84.0 80.85 63.45 88.3 66.05 88.35 66.6 88.4 66.6 88.35 67.0" fill="#82ccbd" fill-rule="evenodd" stroke="none"/>
    <path d="M89.7 67.0 L89.75 66.4 89.7 66.6 89.55 66.4 89.9 66.3 89.35 65.75 Q89.15 65.25 88.75 65.05 L88.7 65.15 Q84.9 62.05 79.95 62.25 L79.55 62.35 79.35 62.55 79.2 62.85 79.55 66.6 79.3 71.35 65.35 67.5 59.35 65.55 59.0 54.65 110.65 61.85 Q110.05 70.85 109.75 79.95 L92.55 75.2 89.75 74.35 89.8 68.0 89.7 67.0 M89.45 75.9 L89.85 75.9 109.7 83.15 109.65 86.8 109.65 90.15 108.25 116.85 Q95.6 113.4 83.45 107.65 77.75 105.0 72.2 102.2 L70.4 101.3 68.8 100.45 Q65.15 98.75 61.6 96.85 L60.15 95.9 60.35 94.2 59.4 67.4 Q69.1 70.65 79.3 73.25 79.0 77.1 79.1 81.45 L79.05 84.4 89.1 89.85 89.1 89.45 89.25 89.45 89.2 88.15 89.15 88.15 89.45 75.9" fill="#48ae99" fill-rule="evenodd" stroke="none"/>
    <path d="M164.9 152.75 Q165.1 151.8 164.7 151.7 L164.6 151.7 148.9 150.1 Q148.7 150.1 148.6 150.25 L148.45 150.5 Q148.3 150.6 148.3 150.8 147.8 151.45 147.65 152.3 L147.3 154.35 115.15 151.6 113.8 140.4 114.0 140.05 114.0 139.8 113.85 139.25 193.25 139.55 190.15 158.05 164.65 155.85 164.9 152.75 M164.2 158.8 L189.65 161.3 185.7 185.05 186.35 185.3 119.1 184.7 115.55 154.05 146.3 157.05 146.3 156.85 147.3 156.85 146.15 168.0 163.15 169.1 163.5 165.95 164.2 158.8" fill="#48ae99" fill-rule="evenodd" stroke="none"/>
    <path d="M164.9 152.75 L164.65 155.85 190.15 158.05 193.25 139.55 113.85 139.25 114.0 139.8 114.0 140.05 113.8 140.4 115.15 151.6 147.3 154.35 147.65 152.3 Q147.8 151.45 148.3 150.8 148.3 150.6 148.45 150.5 L148.6 150.25 Q148.7 150.1 148.9 150.1 L164.6 151.7 164.7 151.7 Q165.1 151.8 164.9 152.75 M164.2 158.8 L163.5 165.95 163.15 169.1 146.15 168.0 147.3 156.85 146.3 156.85 146.3 157.05 115.55 154.05 119.1 184.7 186.35 185.3 185.7 185.05 189.65 161.3 164.2 158.8 M186.85 187.4 L117.2 186.65 111.4 138.3 111.3 138.3 111.3 138.25 111.6 137.45 111.7 137.65 112.7 137.65 114.2 137.45 116.6 137.3 Q156.2 137.8 195.85 137.65 L186.85 187.4 M149.85 152.0 L148.2 166.25 161.05 166.7 162.6 152.75 149.85 152.0" fill="#276155" fill-rule="evenodd" stroke="none"/>
    <path d="M149.85 152.0 L162.6 152.75 161.05 166.7 148.2 166.25 149.85 152.0" fill="#82ccbd" fill-rule="evenodd" stroke="none"/>
  </g>
</svg>
