<?xml version="1.0" encoding="UTF-8" standalone="no"?>
<svg xmlns:ffdec="https://www.free-decompiler.com/flash" xmlns:xlink="http://www.w3.org/1999/xlink" ffdec:objectType="shape" height="113.65px" width="154.8px" xmlns="http://www.w3.org/2000/svg">
  <g transform="matrix(1.0, 0.0, 0.0, 1.0, 0.0, 0.0)">
    <path d="M140.05 33.05 L139.1 33.0 Q137.25 33.0 135.2 34.8 133.0 36.75 133.0 38.9 L133.1 40.2 133.15 40.45 132.9 40.5 132.8 41.0 Q132.8 43.8 135.8 46.1 138.75 48.4 141.05 48.4 L144.95 47.85 146.7 47.25 Q151.8 60.75 152.3 74.45 L150.65 74.4 Q149.1 74.2 146.85 74.4 L143.85 74.45 141.8 74.7 141.8 74.85 141.75 75.05 141.7 75.0 Q141.4 75.6 141.4 78.4 141.4 82.15 141.8 86.0 142.15 89.55 142.45 89.95 142.85 90.6 145.3 90.6 L152.0 90.2 151.55 94.7 Q150.0 103.95 144.85 105.15 L142.9 105.25 Q140.9 103.7 140.85 101.25 L140.5 94.35 139.8 85.35 138.35 74.35 136.0 62.0 Q133.0 46.5 129.6 38.4 126.95 32.05 124.8 28.4 L121.5 24.05 119.05 21.05 119.0 21.0 118.55 21.45 118.4 20.35 118.55 20.35 Q124.9 21.85 132.8 22.0 136.65 27.1 140.05 33.05 M142.1 37.0 L141.9 36.85 142.0 36.8 142.1 37.0 M142.4 81.0 L142.6 82.15 142.5 82.05 142.4 82.0 142.4 81.0 M143.35 86.95 L143.15 86.8 143.0 86.6 143.3 86.6 143.35 86.9 143.35 86.95 M60.5 26.7 Q58.65 25.4 55.9 25.4 53.55 25.4 51.4 27.4 49.2 29.5 49.2 32.0 L49.3 33.15 49.75 34.9 Q50.3 36.25 51.3 37.55 L50.9 37.8 Q53.55 43.0 58.7 43.0 63.35 43.0 64.95 38.5 L65.8 41.35 Q68.2 49.7 69.4 57.85 L59.3 58.0 57.1 58.2 57.0 58.4 57.0 61.4 57.45 61.45 57.65 64.8 57.8 64.8 57.65 65.4 57.6 65.4 57.6 67.6 57.5 67.55 57.1 71.65 57.2 71.65 57.1 71.8 Q57.1 74.0 58.45 74.8 60.1 75.8 64.9 75.8 L70.5 75.3 Q70.3 80.65 69.05 86.65 67.7 93.1 65.5 96.2 L64.65 97.2 64.05 97.75 64.15 97.7 63.35 98.35 62.55 98.9 62.15 99.05 60.1 99.4 60.35 98.75 58.95 98.2 Q56.4 96.9 56.4 93.8 L56.35 85.35 Q56.25 78.95 54.8 65.85 53.35 52.7 45.1 29.25 36.8 5.8 27.5 0.0 L43.15 0.0 Q53.8 11.75 60.5 26.7 M56.05 29.5 L54.9 29.9 54.75 30.0 Q55.25 29.55 56.05 29.5 M54.2 30.75 L54.0 31.85 54.0 31.6 54.2 30.75 M0.2 99.7 L14.0 99.25 17.55 99.1 27.0 98.8 27.8 101.05 0.05 102.15 0.0 102.0 0.2 99.7 M58.0 72.0 L58.0 70.6 58.15 70.6 58.2 70.6 58.15 70.7 58.0 72.0" fill="#7e4160" fill-rule="evenodd" stroke="none"/>
    <path d="M133.15 40.45 L133.1 40.2 133.0 38.9 Q133.0 36.75 135.2 34.8 137.25 33.0 139.1 33.0 L140.05 33.05 Q142.9 33.35 144.8 35.6 146.8 38.0 146.8 41.5 146.8 43.0 146.1 44.25 L145.6 44.55 143.95 45.4 143.95 45.45 Q142.25 46.2 141.2 46.2 137.6 46.2 135.4 44.4 133.55 42.9 133.15 40.45 M141.9 36.85 L138.7 36.65 138.05 37.15 Q137.6 37.7 137.6 39.0 137.6 40.05 139.0 41.0 140.2 41.8 141.0 41.8 141.9 41.8 142.6 40.8 143.2 40.0 143.2 39.2 L143.2 39.1 Q143.2 37.65 142.1 37.0 L142.0 36.8 141.9 36.85 M51.3 37.55 Q50.3 36.25 49.75 34.9 L49.3 33.15 49.2 32.0 Q49.2 29.5 51.4 27.4 53.55 25.4 55.9 25.4 58.65 25.4 60.5 26.7 L61.8 28.0 Q63.6 30.3 63.6 34.1 L63.5 34.15 63.6 34.5 Q63.45 37.45 61.45 39.1 59.4 40.75 56.2 40.2 L55.65 40.1 53.9 39.9 Q52.9 39.4 51.95 38.3 L51.3 37.55 M54.0 31.85 Q54.1 33.05 55.2 34.0 56.35 35.0 57.7 35.0 58.6 35.0 59.4 34.2 60.2 33.4 60.2 32.6 60.2 29.4 57.1 29.4 L56.05 29.5 Q55.25 29.55 54.75 30.0 L54.6 30.15 54.45 30.3 54.2 30.75 54.0 31.6 54.0 31.85" fill="#b14600" fill-rule="evenodd" stroke="none"/>
    <path d="M143.2 39.2 Q143.2 40.0 142.6 40.8 141.9 41.8 141.0 41.8 140.2 41.8 139.0 41.0 137.6 40.05 137.6 39.0 137.6 37.7 138.05 37.15 L138.7 36.65 141.9 36.85 142.1 37.0 143.2 39.2 M56.05 29.5 L57.1 29.4 Q60.2 29.4 60.2 32.6 60.2 33.4 59.4 34.2 58.6 35.0 57.7 35.0 56.35 35.0 55.2 34.0 54.1 33.05 54.0 31.85 L54.2 30.75 54.45 30.3 54.6 30.15 54.75 30.0 54.9 29.9 56.05 29.5" fill="#66ffcc" fill-rule="evenodd" stroke="none"/>
    <path d="M152.0 90.2 L145.3 90.6 Q142.85 90.6 142.45 89.95 142.15 89.55 141.8 86.0 141.4 82.15 141.4 78.4 141.4 75.6 141.7 75.0 L141.75 75.05 Q141.6 77.0 142.15 77.4 L145.0 77.6 152.6 77.15 152.65 80.0 142.4 80.0 142.4 81.0 142.4 82.0 142.5 82.05 142.6 82.15 142.6 83.4 142.75 83.5 143.1 83.6 148.25 83.1 152.55 82.7 152.45 84.55 152.35 86.1 143.3 86.6 143.0 86.6 143.15 86.8 143.35 86.95 143.2 89.0 146.8 89.0 150.5 88.7 152.15 88.55 152.0 90.2 M146.7 47.25 L144.95 47.85 141.05 48.4 Q138.75 48.4 135.8 46.1 132.8 43.8 132.8 41.0 L132.9 40.5 133.15 40.45 Q133.55 42.9 135.4 44.4 137.6 46.2 141.2 46.2 142.25 46.2 143.95 45.45 L143.95 45.4 145.6 44.55 145.75 44.85 146.7 47.25 M70.5 75.3 L64.9 75.8 Q60.1 75.8 58.45 74.8 57.1 74.0 57.1 71.8 L57.2 71.65 57.1 71.65 57.5 67.55 57.6 67.6 62.3 67.8 68.6 67.4 70.4 67.15 70.5 69.8 69.0 69.6 59.4 69.6 58.2 69.8 58.15 70.6 58.0 70.6 58.0 72.0 58.0 73.0 59.9 73.4 70.55 72.8 70.55 73.25 70.5 75.2 70.5 75.3 M57.8 64.8 L57.65 64.8 57.45 61.45 64.3 61.6 69.85 61.25 70.2 64.45 69.5 64.4 63.2 64.6 57.8 64.8 M64.95 38.5 Q63.35 43.0 58.7 43.0 53.55 43.0 50.9 37.8 L51.3 37.55 51.95 38.3 Q52.9 39.4 53.9 39.9 L55.65 40.1 56.2 40.2 Q59.4 40.75 61.45 39.1 63.45 37.45 63.6 34.5 L64.95 38.5 M27.8 101.05 L31.0 110.0 18.15 111.55 18.15 111.45 17.65 111.6 0.95 113.65 0.7 113.65 Q0.55 106.45 0.05 102.15 L27.8 101.05" fill="#713955" fill-rule="evenodd" stroke="none"/>
    <path d="M119.05 21.05 L121.5 24.05 124.8 28.4 Q126.95 32.05 129.6 38.4 133.0 46.5 136.0 62.0 L138.35 74.35 139.8 85.35 140.5 94.35 140.85 101.25 Q140.9 103.7 142.9 105.25 139.4 104.7 138.35 98.2 L134.15 73.25 Q131.2 56.5 128.4 47.3 124.7 35.1 119.2 27.2 L118.55 21.45 119.05 21.05 M27.5 0.0 Q36.8 5.8 45.1 29.25 53.35 52.7 54.8 65.85 56.25 78.95 56.35 85.35 L56.4 93.8 Q56.4 96.9 58.95 98.2 L60.35 98.75 60.1 99.4 57.55 98.95 Q56.25 98.4 55.5 97.25 54.9 96.35 54.65 95.2 L54.45 94.15 54.3 94.1 54.1 92.25 53.8 88.95 Q53.4 73.2 48.95 54.1 41.05 20.15 24.1 0.0 L27.5 0.0 M0.2 99.7 L0.2 98.45 29.9 97.35 30.8 101.05 29.0 101.5 30.6 105.95 31.95 105.6 32.55 108.2 31.0 110.0 27.8 101.05 27.0 98.8 17.55 99.1 14.0 99.25 0.2 99.7" fill="#3e3153" fill-rule="evenodd" stroke="none"/>
    <path d="M118.55 21.45 L119.0 21.0 119.05 21.05 118.55 21.45" fill="#503f6b" fill-rule="evenodd" stroke="none"/>
    <path d="M141.75 75.05 L141.8 74.85 141.8 74.7 143.85 74.45 146.85 74.4 Q149.1 74.2 150.65 74.4 L152.3 74.45 154.4 74.4 154.8 77.0 152.6 77.15 145.0 77.6 142.15 77.4 Q141.6 77.0 141.75 75.05 M152.65 80.0 L154.2 80.0 154.2 81.2 154.0 82.6 152.55 82.7 148.25 83.1 143.1 83.6 142.75 83.5 142.6 83.4 142.6 82.15 142.4 81.0 142.4 80.0 152.65 80.0 M152.35 86.1 L153.8 86.0 153.8 88.2 152.15 88.55 150.5 88.7 146.8 89.0 143.2 89.0 143.35 86.95 143.35 86.9 143.3 86.6 152.35 86.1 M57.6 67.6 L57.6 65.4 57.65 65.4 57.8 64.8 63.2 64.6 69.5 64.4 70.2 64.45 71.85 64.65 72.0 66.75 70.4 67.15 68.6 67.4 62.3 67.8 57.6 67.6 M57.45 61.45 L57.0 61.4 57.0 58.4 57.1 58.2 59.3 58.0 69.4 57.85 70.4 57.8 71.2 58.0 71.5 60.75 69.85 61.25 64.3 61.6 57.45 61.45 M70.55 72.8 L59.9 73.4 58.0 73.0 58.0 72.0 58.15 70.7 58.2 70.6 58.15 70.6 58.2 69.8 59.4 69.6 69.0 69.6 70.5 69.8 72.0 70.15 71.95 72.1 71.95 72.45 70.55 72.8" fill="#10cbee" fill-rule="evenodd" stroke="none"/>
    <path d="M34.55 100.15 L36.05 99.75 36.5 101.4 37.35 104.2 36.0 104.55 35.45 102.9 34.55 100.15 M41.8 98.35 L43.5 97.9 44.85 102.25 43.3 102.65 41.8 98.35 M48.95 96.6 L50.15 96.3 50.65 98.05 51.3 100.6 50.25 100.85 49.6 98.75 48.95 96.6" fill="#274e9c" fill-rule="evenodd" stroke="none"/>
    <path d="M54.65 95.2 Q54.9 96.35 55.5 97.25 56.25 98.4 57.55 98.95 L57.45 99.0 51.3 100.6 50.65 98.05 50.15 96.3 54.65 95.2 M31.95 105.6 L30.6 105.95 29.0 101.5 30.8 101.05 34.55 100.15 35.45 102.9 36.0 104.55 31.95 105.6 M36.05 99.75 L41.8 98.35 43.3 102.65 37.35 104.2 36.5 101.4 36.05 99.75 M43.5 97.9 L48.95 96.6 49.6 98.75 50.25 100.85 44.85 102.25 43.5 97.9" fill="#3366cc" fill-rule="evenodd" stroke="none"/>
  </g>
</svg>
