<?xml version="1.0" encoding="UTF-8" standalone="no"?>
<svg xmlns:ffdec="https://www.free-decompiler.com/flash" xmlns:xlink="http://www.w3.org/1999/xlink" ffdec:objectType="shape" height="51.15px" width="72.6px" xmlns="http://www.w3.org/2000/svg">
  <g transform="matrix(1.0, 0.0, 0.0, 1.0, 25.6, 14.55)">
    <path d="M-8.4 -9.65 Q-0.9 16.2 -18.2 35.85 -23.15 35.5 -25.6 34.05 L-25.55 33.9 Q-11.75 6.75 -17.95 -11.2 L-8.4 -9.65" fill="#327869" fill-rule="evenodd" stroke="none"/>
    <path d="M34.65 -0.4 L34.75 -0.15 34.65 -0.4" fill="#7b9c4f" fill-rule="evenodd" stroke="none"/>
    <path d="M-8.4 -9.65 L11.65 -6.75 12.25 -7.25 15.4 -10.05 Q18.35 -12.6 22.3 -13.6 L26.2 -14.55 26.2 -13.65 26.15 -13.0 Q26.15 -10.05 26.55 -8.45 L26.55 -8.4 Q34.0 -7.4 38.95 -6.2 45.25 -4.7 45.5 -4.15 45.75 -3.65 46.35 -3.3 L46.5 -2.9 46.85 -1.8 46.7 -1.75 46.95 -0.8 47.0 -0.05 46.95 0.55 Q46.7 2.65 45.2 4.85 L44.9 5.3 Q45.9 10.25 42.9 13.8 L42.95 13.85 Q43.95 15.5 43.75 17.45 L43.4 19.2 43.05 20.25 43.05 20.35 43.0 20.3 42.85 20.3 42.9 20.5 42.9 20.6 41.75 23.5 41.35 23.65 Q38.9 27.05 34.8 28.9 29.65 31.25 23.95 32.85 L13.15 35.1 2.9 36.2 -7.45 36.6 -18.2 35.85 Q-0.9 16.2 -8.4 -9.65 M34.65 -0.4 L34.75 -0.15 34.65 -0.4 M7.85 29.6 L16.95 29.4 Q23.35 18.75 20.6 8.9 L9.9 7.65 Q11.15 18.7 7.85 29.6" fill="#104d40" fill-rule="evenodd" stroke="none"/>
    <path d="M46.35 -3.3 Q45.75 -3.65 45.5 -4.15 45.25 -4.7 38.95 -6.2 34.0 -7.4 26.55 -8.4 L26.55 -8.45 Q26.15 -10.05 26.15 -13.0 L26.2 -13.65 26.4 -13.65 Q30.95 -13.65 33.35 -10.65 L34.4 -9.05 35.6 -9.25 Q39.3 -9.25 41.95 -7.4 L42.0 -7.55 44.05 -6.15 Q45.55 -5.0 46.35 -3.3 M7.85 29.6 Q11.15 18.7 9.9 7.65 L20.6 8.9 Q23.35 18.75 16.95 29.4 L7.85 29.6" fill="#83d01e" fill-rule="evenodd" stroke="none"/>
  </g>
</svg>
