<?xml version="1.0" encoding="UTF-8" standalone="no"?>
<svg xmlns:ffdec="https://www.free-decompiler.com/flash" xmlns:xlink="http://www.w3.org/1999/xlink" ffdec:objectType="shape" height="50.2px" width="72.25px" xmlns="http://www.w3.org/2000/svg">
  <g transform="matrix(1.0, 0.0, 0.0, 1.0, 27.5, 28.0)">
    <path d="M24.0 18.9 L30.05 17.55 Q36.1 16.1 39.75 14.1 44.2 11.45 44.6 7.85 45.4 1.3 41.6 -0.9 39.5 -2.2 35.5 -0.8 32.25 0.15 27.75 2.85 L24.6 4.45 23.0 5.2 Q24.05 7.7 24.35 10.6 24.7 15.05 22.55 17.95 L21.4 19.25 23.9 18.8 24.05 18.65 24.0 18.9 M22.55 1.05 L24.45 -0.35 Q31.65 -6.0 33.55 -10.8 34.55 -13.35 35.0 -15.55 36.15 -21.25 32.9 -24.3 28.9 -28.35 22.85 -20.5 L21.6 -18.6 Q18.65 -14.45 15.05 -10.65 L14.05 -9.4 15.15 -9.0 17.5 -7.55 Q20.35 -5.45 21.5 -2.8 22.2 -1.25 22.55 1.05 M10.45 -10.55 L11.05 -11.7 10.95 -12.05 11.15 -12.05 Q14.4 -19.15 12.95 -23.75 L12.8 -23.85 Q6.25 -32.65 2.75 -22.7 1.95 -20.8 1.4 -17.9 L0.75 -15.1 0.35 -13.45 Q6.35 -13.8 10.05 -11.0 L10.45 -10.55" fill="#eba594" fill-rule="evenodd" stroke="none"/>
    <path d="M23.0 5.2 Q15.2 8.95 7.05 10.45 16.45 5.5 22.55 1.05 22.2 -1.25 21.5 -2.8 20.35 -5.45 17.5 -7.55 L15.15 -9.0 14.05 -9.4 Q9.5 -4.9 4.25 -0.95 8.25 -6.15 10.45 -10.55 L10.05 -11.0 Q6.35 -13.8 0.35 -13.45 -3.4 -0.5 -11.6 5.0 -21.05 11.35 -25.7 9.95 L-27.5 13.65 Q-27.7 17.2 -19.45 19.35 -11.2 21.55 -5.05 22.05 L8.5 21.5 21.4 19.25 22.55 17.95 Q24.7 15.05 24.35 10.6 24.05 7.7 23.0 5.2" fill="#361616" fill-rule="evenodd" stroke="none"/>
    <path d="M11.05 -11.7 L11.15 -11.85 11.15 -12.05 10.95 -12.05 11.05 -11.7 M23.9 18.8 L24.0 18.9 24.05 18.65 23.9 18.8" fill="#075fb4" fill-rule="evenodd" stroke="none"/>
    <path d="M12.95 -23.75 L12.8 -23.85 12.95 -23.75" fill="#96c8fa" fill-rule="evenodd" stroke="none"/>
  </g>
</svg>
