<?xml version="1.0" encoding="UTF-8" standalone="no"?>
<svg xmlns:ffdec="https://www.free-decompiler.com/flash" xmlns:xlink="http://www.w3.org/1999/xlink" ffdec:objectType="shape" height="41.0px" width="80.35px" xmlns="http://www.w3.org/2000/svg">
  <g transform="matrix(1.0, 0.0, 0.0, 1.0, 0.15, -1.75)">
    <path d="M53.0 10.65 Q54.05 10.25 60.45 11.4 L65.0 25.65 65.9 29.15 55.6 28.8 53.0 10.65 M66.7 33.55 Q66.5 33.05 66.6 32.5 L66.85 33.7 66.7 33.55" fill="#652c2c" fill-rule="evenodd" stroke="none"/>
    <path d="M55.6 28.8 Q44.75 27.25 34.1 24.5 22.75 21.7 11.65 17.5 -2.65 12.2 0.35 1.75 6.9 2.05 23.1 5.65 39.3 9.2 44.95 9.6 50.55 9.95 53.0 10.65 L55.6 28.8" fill="#7d3535" fill-rule="evenodd" stroke="none"/>
    <path d="M71.65 12.9 Q74.0 19.1 76.9 24.75 L79.15 28.9 79.25 28.95 80.2 32.8 71.35 38.3 Q65.95 41.6 64.55 42.75 L63.8 37.9 Q62.9 32.9 61.95 30.1 L56.5 15.2 53.4 5.9 Q51.85 4.55 58.8 6.2 65.65 7.95 70.35 9.75 L70.95 12.3 71.0 12.25 71.3 12.2 71.65 12.9" fill="#cab6a4" fill-rule="evenodd" stroke="none"/>
  </g>
</svg>
