<?xml version="1.0" encoding="UTF-8" standalone="no"?>
<svg xmlns:ffdec="https://www.free-decompiler.com/flash" xmlns:xlink="http://www.w3.org/1999/xlink" ffdec:objectType="shape" height="65.3px" width="41.75px" xmlns="http://www.w3.org/2000/svg">
  <g transform="matrix(1.0, 0.0, 0.0, 1.0, 19.7, 36.85)">
    <path d="M11.6 -0.4 L12.8 0.5 Q14.5 1.9 15.9 4.3 L17.05 6.65 17.1 6.8 Q17.65 10.85 16.45 12.8 14.6 15.7 10.3 17.05 L8.2 17.3 6.0 17.3 5.95 18.25 6.05 18.25 5.95 18.3 Q5.9 19.9 5.2 21.1 4.15 22.8 1.4 24.15 L1.3 24.15 -0.5 25.0 Q-5.65 26.9 -11.2 24.55 -12.9 24.05 -14.3 23.15 -21.8 18.45 -18.85 11.7 L-17.85 10.0 Q-15.45 6.35 -10.2 7.4 L-6.65 8.55 -6.95 7.95 Q-8.65 3.0 -6.5 -0.4 -4.15 -4.0 2.2 -3.5 7.5 -3.0 11.6 -0.4" fill="#eba594" fill-rule="evenodd" stroke="none"/>
    <path d="M-4.05 21.35 Q-2.4 24.05 -3.3 26.3 -3.75 27.45 -5.6 28.05 -8.65 29.15 -13.8 27.1 -19.95 24.6 -17.35 18.15 -16.35 15.7 -13.55 15.65 -11.2 15.5 -8.35 17.25 -5.5 18.95 -4.05 21.35" fill="#eba594" fill-rule="evenodd" stroke="none"/>
    <path d="M14.8 -16.85 Q16.35 -16.3 17.8 -15.25 20.2 -13.45 21.55 -10.4 L21.8 -9.7 21.95 -9.55 21.9 -8.9 Q22.45 -5.15 21.0 -2.8 19.8 -0.95 17.55 0.3 L16.3 1.0 15.2 1.2 Q10.35 2.05 6.6 0.75 2.1 -1.0 -0.25 -5.2 -1.05 -7.0 -1.35 -9.2 L-1.35 -9.15 -1.35 -9.8 Q-1.5 -11.3 -0.9 -12.9 -0.55 -14.55 0.5 -16.0 L0.65 -16.25 Q2.9 -18.2 5.65 -18.5 L8.95 -18.35 12.25 -17.6 14.8 -16.85" fill="#eba594" fill-rule="evenodd" stroke="none"/>
    <path d="M5.1 -30.5 L6.2 -27.4 Q7.15 -24.6 7.1 -22.85 6.95 -19.5 5.15 -15.75 L4.2 -13.95 4.0 -13.45 3.6 -12.85 2.8 -11.75 Q1.0 -10.05 -0.1 -9.45 -1.65 -8.25 -3.7 -7.4 L-5.9 -6.8 -7.8 -6.4 -9.3 -6.9 Q-10.75 -7.5 -12.3 -8.45 L-14.05 -9.7 Q-16.6 -11.75 -18.2 -15.35 L-19.05 -17.9 -19.15 -18.25 Q-17.35 -19.2 -16.0 -21.4 -14.85 -23.25 -14.45 -26.6 -14.1 -30.2 -12.3 -33.05 -8.1 -39.7 0.05 -34.65 2.6 -33.0 4.35 -31.1 L5.1 -30.5" fill="#eba594" fill-rule="evenodd" stroke="none"/>
  </g>
</svg>
