<?xml version="1.0" encoding="UTF-8" standalone="no"?>
<svg xmlns:ffdec="https://www.free-decompiler.com/flash" xmlns:xlink="http://www.w3.org/1999/xlink" ffdec:objectType="shape" height="44.95px" width="43.55px" xmlns="http://www.w3.org/2000/svg">
  <g transform="matrix(1.0, 0.0, 0.0, 1.0, 6.6, -12.05)">
    <path d="M22.55 16.6 Q28.65 23.65 33.35 31.6 37.5 38.7 36.85 46.45 35.9 47.65 24.95 53.2 14.0 58.75 12.0 56.15 10.0 53.55 6.9 53.9 3.4 48.8 -1.15 46.9 -1.05 41.05 -1.7 38.4 -3.05 33.0 -6.6 31.7 -4.4 23.65 -4.2 19.95 -4.05 17.5 -4.8 15.9 0.55 13.35 9.05 14.25 18.0 15.2 19.45 12.05 L22.55 16.6" fill="#361616" fill-rule="evenodd" stroke="none"/>
  </g>
</svg>
