<?xml version="1.0" encoding="UTF-8" standalone="no"?>
<svg xmlns:ffdec="https://www.free-decompiler.com/flash" xmlns:xlink="http://www.w3.org/1999/xlink" ffdec:objectType="shape" height="50.1px" width="24.4px" xmlns="http://www.w3.org/2000/svg">
  <g transform="matrix(1.0, 0.0, 0.0, 1.0, 0.0, 0.0)">
    <path d="M11.35 2.4 Q14.0 -0.55 17.9 0.1 24.4 1.1 24.4 7.35 24.4 15.75 18.9 29.8 14.95 40.0 11.85 42.75 L13.3 45.4 Q15.1 48.65 16.35 49.35 L11.95 49.95 11.15 50.05 11.05 50.05 10.95 50.0 10.9 49.5 Q10.65 49.45 10.65 48.95 L10.35 48.9 10.65 50.05 8.55 50.1 7.9 50.05 6.05 49.6 4.7 49.25 0.0 47.8 0.25 47.35 2.4 43.45 Q4.0 40.6 5.0 39.8 L5.15 39.7 4.95 37.1 Q4.95 25.95 6.25 18.2 6.9 14.55 8.0 10.3 L8.1 10.4 8.7 8.1 Q9.95 3.85 11.35 2.4" fill="#361616" fill-rule="evenodd" stroke="none"/>
  </g>
</svg>
