<?xml version="1.0" encoding="UTF-8" standalone="no"?>
<svg xmlns:ffdec="https://www.free-decompiler.com/flash" xmlns:xlink="http://www.w3.org/1999/xlink" ffdec:objectType="shape" height="47.75px" width="19.1px" xmlns="http://www.w3.org/2000/svg">
  <g transform="matrix(1.0, 0.0, 0.0, 1.0, 0.0, 0.0)">
    <path d="M3.8 9.85 L4.1 10.15 4.35 10.2 Q4.1 7.65 4.55 5.65 5.0 3.7 6.15 2.3 8.35 -0.45 12.1 0.1 18.35 1.05 18.95 7.05 19.8 15.0 16.05 28.4 13.35 38.1 10.7 40.75 L12.35 43.25 Q14.35 46.35 15.6 47.0 L11.5 47.6 10.75 47.7 10.7 47.7 10.6 47.65 10.5 47.15 Q10.25 47.1 10.2 46.65 L9.9 46.6 10.3 47.7 8.35 47.75 7.75 47.7 5.9 47.25 4.6 46.9 0.0 45.55 Q0.25 45.55 0.2 45.05 L1.85 41.4 Q3.05 38.7 3.9 37.9 L4.05 37.85 3.55 35.35 Q2.45 24.7 2.9 17.35 3.15 13.85 3.8 9.85" fill="#361616" fill-rule="evenodd" stroke="none"/>
  </g>
</svg>
