<?xml version="1.0" encoding="UTF-8" standalone="no"?>
<svg xmlns:ffdec="https://www.free-decompiler.com/flash" xmlns:xlink="http://www.w3.org/1999/xlink" ffdec:objectType="shape" height="162.8px" width="85.3px" xmlns="http://www.w3.org/2000/svg">
  <g transform="matrix(1.0, 0.0, 0.0, 1.0, 0.0, 0.0)">
    <path d="M7.25 17.6 L2.3 8.1 0.75 3.65 2.65 3.2 14.35 1.3 24.1 0.0 Q23.8 1.25 23.9 13.7 L23.9 14.55 Q28.45 14.35 33.15 14.7 L33.6 14.75 35.5 14.9 37.5 15.1 37.7 17.6 38.45 27.9 Q40.55 44.95 41.25 54.4 41.8 62.1 45.35 90.6 L46.85 102.4 48.45 115.4 15.9 114.1 15.4 102.4 Q14.45 83.85 12.2 65.35 8.2 32.35 3.45 18.1 5.1 17.5 6.8 17.0 L8.55 20.7 7.95 18.85 7.25 17.6 M44.85 24.95 Q58.3 45.95 63.7 55.2 76.7 77.25 82.15 102.4 L83.3 108.25 54.0 114.1 52.6 102.4 Q49.25 74.55 47.55 57.65 45.45 37.35 44.85 24.95" fill="#642d2d" fill-rule="evenodd" stroke="none"/>
    <path d="M37.5 15.1 L38.9 15.3 39.3 16.4 44.85 24.95 Q45.45 37.35 47.55 57.65 49.25 74.55 52.6 102.4 L54.0 114.1 83.3 108.25 84.05 112.85 84.7 118.55 85.1 125.55 85.25 128.65 85.3 128.65 85.3 129.4 85.15 143.05 84.8 150.8 84.6 153.7 Q84.15 159.0 83.45 162.15 L83.3 162.8 65.7 162.15 48.95 160.85 48.6 160.8 Q28.35 158.9 12.45 156.05 L6.65 154.95 4.35 154.0 5.4 150.8 5.45 150.65 Q7.7 142.6 8.55 128.65 L8.7 126.4 8.75 125.6 8.85 122.8 9.05 105.9 Q9.15 108.95 9.2 108.3 L9.15 102.4 9.0 96.95 8.65 88.1 Q8.4 80.5 6.7 61.2 4.9 41.85 3.35 34.35 L0.8 22.0 0.0 19.4 3.45 18.1 Q8.2 32.35 12.2 65.35 14.45 83.85 15.4 102.4 L15.9 114.1 48.45 115.4 46.85 102.4 45.35 90.6 Q41.8 62.1 41.25 54.4 40.55 44.95 38.45 27.9 L37.7 17.6 37.5 15.1 M48.45 123.05 L48.35 124.4 49.5 124.5 49.35 123.05 48.45 123.0 48.45 123.05 M55.6 125.05 L55.1 122.8 55.35 125.1 55.6 125.05" fill="#411d1d" fill-rule="evenodd" stroke="none"/>
    <path d="M33.15 14.7 L33.3 14.7 33.6 14.75 33.15 14.7" fill="#ffffff" fill-rule="evenodd" stroke="none"/>
    <path d="M6.8 17.0 L7.25 17.6 7.95 18.85 8.55 20.7 6.8 17.0" fill="#4e1c10" fill-rule="evenodd" stroke="none"/>
    <path d="M6.65 154.95 L4.0 154.95 4.35 154.0 6.65 154.95 M48.45 123.05 L49.35 123.05 49.5 124.5 48.35 124.4 48.45 123.05 M55.6 125.05 L55.35 125.1 55.1 122.8 55.6 125.05" fill="#532424" fill-rule="evenodd" stroke="none"/>
    <path d="M49.35 123.05 L48.45 123.05 48.45 123.0 49.35 123.05" fill="#7d3535" fill-rule="evenodd" stroke="none"/>
    <path d="M47.6 139.1 L48.3 129.0 18.15 127.2 17.6 134.9 26.6 136.25 26.45 131.25 35.05 133.1 35.15 133.1 34.95 137.3 47.6 139.1 M48.3 154.9 L15.55 150.45 16.9 127.2 16.75 125.15 49.4 127.0 48.75 151.8 48.3 154.9 47.6 140.5 35.0 138.75 34.85 143.4 26.65 141.25 26.55 137.6 17.55 136.4 17.25 148.7 47.1 153.2 48.3 154.9 M27.15 132.25 L27.6 140.6 34.15 142.4 34.4 133.85 27.15 132.25" fill="#351717" fill-rule="evenodd" stroke="none"/>
    <path d="M47.6 139.1 L34.95 137.3 35.15 133.1 35.05 133.1 26.45 131.25 26.6 136.25 17.6 134.9 18.15 127.2 48.3 129.0 47.6 139.1 M48.3 154.9 L47.1 153.2 17.25 148.7 17.55 136.4 26.55 137.6 26.65 141.25 34.85 143.4 35.0 138.75 47.6 140.5 48.3 154.9" fill="#532424" fill-rule="evenodd" stroke="none"/>
    <path d="M27.15 132.25 L34.4 133.85 34.15 142.4 27.6 140.6 27.15 132.25" fill="#642d2d" fill-rule="evenodd" stroke="none"/>
  </g>
</svg>
