<?xml version="1.0" encoding="UTF-8" standalone="no"?>
<svg xmlns:ffdec="https://www.free-decompiler.com/flash" xmlns:xlink="http://www.w3.org/1999/xlink" ffdec:objectType="shape" height="39.8px" width="75.75px" xmlns="http://www.w3.org/2000/svg">
  <g transform="matrix(1.0, 0.0, 0.0, 1.0, -0.1, -5.2)">
    <path d="M52.35 21.5 Q54.65 20.05 55.95 19.0 L56.5 18.25 Q58.1 16.95 60.1 15.8 L60.05 15.7 66.1 27.1 67.25 30.05 66.45 30.4 Q61.65 34.55 57.35 37.5 55.95 33.8 54.9 29.9 L52.35 21.5 M68.45 33.55 L68.5 33.8 68.35 33.6 68.45 33.55" fill="#652c2c" fill-rule="evenodd" stroke="none"/>
    <path d="M57.35 37.5 L55.4 38.85 Q38.35 50.1 25.65 40.7 14.9 32.9 5.3 20.85 L4.5 19.5 Q2.7 16.25 0.75 13.5 0.2 11.9 0.25 10.7 -0.15 8.65 0.65 7.05 1.0 5.4 2.35 5.2 6.5 8.6 12.0 12.9 31.85 31.25 50.2 22.6 L52.35 21.5 54.9 29.9 Q55.95 33.8 57.35 37.5" fill="#7d3535" fill-rule="evenodd" stroke="none"/>
    <path d="M75.7 14.95 L75.7 25.3 Q75.6 31.6 75.85 33.4 L71.35 31.45 Q66.7 29.65 63.8 28.95 L48.4 25.75 38.9 23.45 Q36.95 24.05 42.0 19.05 47.05 14.15 51.05 11.15 L53.5 12.0 53.5 11.95 53.6 11.65 54.4 11.7 Q60.85 13.0 67.15 13.5 L71.85 13.75 71.95 13.75 75.7 14.95" fill="#cab6a4" fill-rule="evenodd" stroke="none"/>
  </g>
</svg>
