<?xml version="1.0" encoding="UTF-8" standalone="no"?>
<svg xmlns:ffdec="https://www.free-decompiler.com/flash" xmlns:xlink="http://www.w3.org/1999/xlink" ffdec:objectType="shape" height="88.9px" width="43.15px" xmlns="http://www.w3.org/2000/svg">
  <g transform="matrix(1.0, 0.0, 0.0, 1.0, 0.0, 0.0)">
    <path d="M7.85 28.55 L11.0 13.45 11.8 9.75 12.2 9.65 Q24.2 6.45 35.85 0.0 L35.9 0.3 Q35.9 1.55 36.2 2.6 35.25 8.4 35.05 15.8 34.9 21.35 35.2 28.6 30.8 26.75 23.55 26.8 17.25 26.95 10.2 28.2 L7.85 28.55 M37.45 56.35 Q38.1 61.2 39.25 67.35 41.3 78.6 43.05 85.45 L43.15 86.3 Q41.3 86.4 38.65 87.5 L33.65 87.65 32.05 80.5 Q30.9 74.2 30.7 72.4 L30.75 68.65 31.05 64.25 26.95 64.25 26.85 71.5 Q26.8 75.7 26.9 76.85 L27.5 81.15 28.1 86.6 22.55 86.45 Q19.3 86.6 17.7 88.9 L17.25 87.75 17.1 86.2 Q16.95 81.8 17.1 76.95 17.15 67.3 18.3 65.0 L17.95 65.0 Q13.55 65.55 12.95 73.5 12.7 77.9 12.65 87.45 L10.35 87.45 5.15 86.75 0.65 86.0 0.0 76.75 Q0.2 70.25 2.1 58.0 L6.15 57.3 Q16.65 55.8 24.05 55.65 L37.45 56.35" fill="#7e6b23" fill-rule="evenodd" stroke="none"/>
    <path d="M7.85 28.55 L10.2 28.2 Q17.25 26.95 23.55 26.8 30.8 26.75 35.2 28.6 L36.1 45.4 Q36.45 49.95 37.45 56.35 L24.05 55.65 Q16.65 55.8 6.15 57.3 L2.1 58.0 Q3.4 49.65 5.65 38.6 L7.85 28.55" fill="#a58c30" fill-rule="evenodd" stroke="none"/>
  </g>
</svg>
