<?xml version="1.0" encoding="UTF-8" standalone="no"?>
<svg xmlns:ffdec="https://www.free-decompiler.com/flash" xmlns:xlink="http://www.w3.org/1999/xlink" ffdec:objectType="shape" height="44.65px" width="84.2px" xmlns="http://www.w3.org/2000/svg">
  <g transform="matrix(1.0, 0.0, 0.0, 1.0, 0.0, 0.0)">
    <path d="M65.05 1.55 L74.9 0.0 Q74.95 0.4 75.6 0.4 76.3 8.4 79.75 18.25 83.0 27.65 84.15 35.2 L84.2 35.45 74.35 38.15 69.85 21.55 Q66.05 7.15 65.05 1.55 M32.2 44.0 L29.25 44.15 29.1 43.6 27.7 39.65 Q25.05 31.0 23.7 19.8 L22.7 6.85 28.95 6.15 42.35 4.55 Q43.0 13.0 46.25 27.7 48.3 36.8 49.7 41.7 L49.9 42.4 32.2 44.0" fill="#a58c30" fill-rule="evenodd" stroke="none"/>
    <path d="M65.05 1.55 Q66.05 7.15 69.85 21.55 L74.35 38.15 Q53.8 43.2 32.4 44.6 L31.85 44.65 32.2 44.0 49.9 42.4 49.7 41.7 Q48.3 36.8 46.25 27.7 43.0 13.0 42.35 4.55 L65.05 1.55 M29.25 44.15 Q22.9 44.4 17.9 44.15 13.75 43.95 10.05 40.85 5.65 37.15 4.5 30.5 L4.2 29.05 4.2 28.85 4.2 27.2 4.4 25.5 4.35 24.7 3.95 21.65 3.1 15.85 Q2.5 13.5 0.0 9.7 L22.7 6.85 23.7 19.8 Q25.05 31.0 27.7 39.65 L29.1 43.6 29.25 44.15" fill="#7e6b23" fill-rule="evenodd" stroke="none"/>
  </g>
</svg>
