<?xml version="1.0" encoding="UTF-8" standalone="no"?>
<svg xmlns:ffdec="https://www.free-decompiler.com/flash" xmlns:xlink="http://www.w3.org/1999/xlink" ffdec:objectType="shape" height="295.3px" width="336.85px" xmlns="http://www.w3.org/2000/svg">
  <g transform="matrix(1.0, 0.0, 0.0, 1.0, -23.1, -13.55)">
    <path d="M208.1 74.15 L219.85 73.35 236.25 71.35 255.4 69.3 269.1 67.1 294.5 64.05 298.35 63.45 Q316.5 61.15 319.95 62.3 L320.3 62.25 320.35 62.4 Q321.5 62.7 323.15 63.5 L324.95 64.75 332.2 69.3 339.6 75.15 339.95 75.45 339.25 76.4 339.15 76.35 333.3 83.1 Q336.85 83.8 342.55 85.7 L350.0 88.3 352.15 88.9 Q354.35 89.4 356.65 90.35 L357.2 96.05 358.15 106.2 358.1 107.9 359.95 130.3 Q358.35 130.0 335.0 137.1 311.6 144.2 293.25 149.25 L266.05 156.95 Q257.15 159.55 241.35 165.5 225.95 171.3 210.2 176.0 L203.15 178.1 202.5 177.85 209.95 173.8 212.25 175.0 Q226.85 166.05 242.1 158.2 258.1 149.9 274.3 142.2 279.7 139.6 285.05 137.1 L278.95 140.15 Q295.7 132.8 312.6 125.95 326.45 120.45 340.6 116.25 L353.05 112.4 353.8 112.25 355.05 92.55 341.8 88.6 336.95 87.15 332.5 86.1 296.4 96.3 297.7 96.4 297.6 96.4 297.2 96.65 296.7 96.65 296.2 96.55 295.7 96.25 Q306.65 83.2 317.95 70.45 320.1 68.05 321.0 65.0 L319.45 64.1 310.75 64.9 268.55 70.25 247.8 72.65 242.05 73.35 225.6 75.15 221.35 75.55 210.95 76.35 208.25 76.1 208.15 76.0 208.05 75.85 208.05 75.75 208.0 75.45 Q208.0 75.35 208.35 75.25 L206.55 74.85 208.1 74.15 M139.25 155.6 Q151.8 168.7 151.65 169.95 146.95 164.4 82.6 118.35 27.5 78.95 23.1 76.65 L25.5 60.65 25.7 60.8 26.15 59.6 27.35 56.8 Q29.65 50.0 31.7 46.25 L35.05 39.9 Q37.25 35.7 38.8 33.05 L40.85 29.85 Q41.5 28.65 43.55 28.0 45.95 27.2 48.8 27.9 54.35 29.05 66.9 30.4 L67.2 30.45 Q64.35 23.65 64.35 21.95 L64.4 21.45 64.55 21.25 64.8 21.25 Q66.4 19.85 80.2 17.0 92.25 14.55 97.5 13.9 L97.15 13.55 97.75 13.9 99.0 13.75 99.15 13.95 99.25 14.3 Q102.8 15.25 113.4 22.8 L126.9 32.7 138.45 41.35 Q158.6 56.95 176.3 67.6 L178.85 69.4 182.1 71.75 182.1 71.9 Q184.85 73.75 184.85 74.65 184.85 75.15 184.35 75.45 L183.65 75.6 173.7 70.0 169.25 67.3 Q163.55 63.75 160.1 61.05 L150.1 53.15 139.55 45.3 118.3 29.5 Q106.05 20.4 98.35 15.9 L109.35 60.75 Q83.45 43.25 69.4 34.0 L59.6 32.3 52.45 31.05 47.55 30.45 45.95 30.35 Q44.8 30.35 43.55 31.35 L40.1 37.6 35.05 46.3 31.2 55.25 29.0 59.45 28.1 62.25 Q73.95 90.0 98.3 114.55 L110.2 126.25 113.9 130.1 114.65 130.8 118.25 134.45 119.85 136.0 139.25 155.6 M253.2 128.1 L253.8 127.5 Q255.35 127.45 254.2 127.4 L253.9 127.3 276.9 101.65 291.75 111.65 253.2 128.1 M94.6 61.6 Q97.0 66.95 102.35 82.5 L108.7 101.9 76.55 71.65 94.6 61.6" fill="#a5391f" fill-rule="evenodd" stroke="none"/>
    <path d="M208.05 75.75 L208.05 75.85 205.75 76.0 217.55 79.0 294.7 96.0 295.7 96.25 296.2 96.55 296.7 96.65 297.2 96.65 297.6 96.4 297.7 96.4 296.4 96.3 332.5 86.1 336.95 87.15 341.8 88.6 355.05 92.55 353.8 112.25 353.05 112.4 340.6 116.25 Q326.45 120.45 312.6 125.95 295.7 132.8 278.95 140.15 L285.05 137.1 Q279.7 139.6 274.3 142.2 258.1 149.9 242.1 158.2 226.85 166.05 212.25 175.0 L209.95 173.8 Q208.15 172.6 207.3 170.9 L205.75 168.0 Q205.05 166.55 203.8 166.35 202.55 166.2 183.75 170.6 164.35 174.95 158.5 174.5 L139.25 155.6 119.85 136.0 118.25 134.45 114.65 130.8 113.9 130.1 110.2 126.25 98.3 114.55 Q73.95 90.0 28.1 62.25 L29.0 59.45 31.2 55.25 35.05 46.3 40.1 37.6 43.55 31.35 Q44.8 30.35 45.95 30.35 L47.55 30.45 52.45 31.05 59.6 32.3 69.4 34.0 Q83.45 43.25 109.35 60.75 127.35 61.7 144.05 64.45 160.1 67.15 169.25 67.3 L173.7 70.0 171.8 70.2 185.25 76.8 202.15 75.65 Q202.35 75.45 202.55 75.65 L208.05 75.75 M276.9 101.65 L273.3 101.05 261.4 102.05 Q234.0 108.95 226.45 109.45 226.05 113.05 226.2 118.35 L226.5 126.5 226.5 126.95 226.45 127.15 226.9 126.95 242.45 127.25 249.1 127.45 253.2 128.1 291.75 111.65 276.9 101.65 M108.7 101.9 L128.4 105.25 139.3 109.65 160.0 117.75 160.6 117.75 Q160.0 112.5 160.75 104.5 L161.6 96.05 Q146.5 90.45 94.6 61.6 L76.55 71.65 108.7 101.9 M161.95 91.95 Q162.25 87.45 161.6 93.5 L161.85 93.35 161.95 91.95" fill="url(#gradient0)" fill-rule="evenodd" stroke="none"/>
    <path d="M208.1 74.15 L206.55 74.85 208.35 75.25 Q208.0 75.35 208.0 75.45 L208.05 75.75 202.55 75.65 Q202.35 75.45 202.15 75.65 L185.25 76.8 171.8 70.2 173.7 70.0 183.65 75.6 184.35 75.45 Q184.85 75.15 184.85 74.65 184.85 73.75 182.1 71.9 L182.1 71.75 178.85 69.4 179.55 69.3 Q182.0 70.5 183.05 70.5 L184.55 70.2 Q192.9 73.5 208.1 74.15 M208.05 75.85 L208.15 76.0 208.25 76.1 210.95 76.35 221.35 75.55 225.6 75.15 242.05 73.35 247.8 72.65 268.55 70.25 310.75 64.9 319.45 64.1 321.0 65.0 Q320.1 68.05 317.95 70.45 306.65 83.2 295.7 96.25 L294.7 96.0 217.55 79.0 205.75 76.0 208.05 75.85" fill="url(#gradient1)" fill-rule="evenodd" stroke="none"/>
    <path d="M25.5 60.65 L26.15 59.6 25.7 60.8 25.5 60.65 M176.3 67.6 L179.55 69.3 178.85 69.4 176.3 67.6" fill="url(#gradient2)" fill-rule="evenodd" stroke="none"/>
    <path d="M253.2 128.1 L249.1 127.45 242.45 127.25 226.9 126.95 226.45 127.15 226.5 126.95 226.5 126.5 226.2 118.35 Q226.05 113.05 226.45 109.45 234.0 108.95 261.4 102.05 L273.3 101.05 276.9 101.65 253.9 127.3 254.2 127.4 Q255.35 127.45 253.8 127.5 L253.2 128.1 M250.35 127.0 Q250.55 127.3 250.9 127.15 L250.95 127.1 251.05 126.9 250.3 126.85 250.35 127.0 M108.7 101.9 L102.35 82.5 Q97.0 66.95 94.6 61.6 146.5 90.45 161.6 96.05 L160.75 104.5 Q160.0 112.5 160.6 117.75 L160.0 117.75 139.3 109.65 128.4 105.25 108.7 101.9 M161.95 91.95 L161.85 93.35 161.6 93.5 Q162.25 87.45 161.95 91.95" fill="#c14324" fill-rule="evenodd" stroke="none"/>
    <path d="M250.35 127.0 L250.3 126.85 251.05 126.9 250.95 127.1 250.9 127.15 Q250.55 127.3 250.35 127.0" fill="#d85738" fill-rule="evenodd" stroke="none"/>
    <path d="M169.25 67.3 Q160.1 67.15 144.05 64.45 127.35 61.7 109.35 60.75 L98.35 15.9 Q106.05 20.4 118.3 29.5 L139.55 45.3 150.1 53.15 160.1 61.05 Q163.55 63.75 169.25 67.3" fill="url(#gradient3)" fill-rule="evenodd" stroke="none"/>
    <path d="M122.1 176.35 Q122.1 174.15 121.7 174.15 L119.15 157.95 116.1 135.5 Q112.45 122.3 111.5 117.05 L111.75 116.7 136.05 98.95 149.95 88.7 153.7 88.75 Q162.6 89.15 181.45 91.6 L191.55 93.2 Q195.3 93.15 196.0 92.55 197.5 93.4 199.1 94.4 L199.4 94.4 217.25 97.55 Q226.35 99.1 236.6 102.15 240.55 103.25 243.45 104.3 L243.55 104.7 Q244.1 107.55 247.0 116.85 250.05 126.75 251.45 130.4 L257.1 146.65 257.65 148.1 240.55 165.8 214.25 192.2 213.45 193.0 213.15 193.3 212.95 193.5 212.7 193.45 212.6 193.4 211.8 193.25 212.35 193.55 211.7 193.25 204.75 192.2 204.7 191.3 176.8 187.7 176.75 187.7 176.75 187.65 126.4 179.0 Q126.25 177.85 125.0 178.75 L124.55 178.65 122.4 178.25 122.05 178.2 121.95 178.2 122.05 178.05 122.3 177.55 122.1 176.35 M205.9 165.7 L205.7 165.85 205.75 166.1 205.9 165.7 M205.05 187.75 L205.2 188.3 205.15 187.3 Q205.1 184.35 204.75 187.05 L204.4 189.25 204.7 189.35 204.75 187.6 205.05 187.75 M250.1 107.4 L250.3 108.5 249.9 107.25 250.1 107.4 M204.25 189.55 L204.3 189.5 204.3 189.45 204.25 189.55" fill="#eba594" fill-rule="evenodd" stroke="none"/>
    <path d="M121.8 182.05 L122.05 178.2 122.4 178.25 124.55 178.65 125.0 178.75 Q123.85 179.55 121.8 182.05 M126.4 179.0 L176.75 187.65 176.75 187.7 176.8 187.7 204.7 191.3 204.75 192.2 211.7 193.25 212.35 193.55 211.8 193.25 212.6 193.4 212.7 193.45 212.95 193.5 213.1 193.5 213.2 193.5 213.5 193.6 212.3 195.5 211.4 197.05 202.2 220.75 Q188.95 254.25 183.9 269.95 178.8 285.6 176.95 284.3 L176.0 284.95 170.1 286.75 165.55 288.25 164.65 268.4 156.85 290.85 139.05 296.95 Q126.3 301.45 113.3 305.55 105.4 296.9 90.3 278.35 84.8 271.6 81.25 268.65 92.9 251.6 93.4 250.35 93.8 249.35 90.6 252.8 L93.1 249.95 Q84.15 257.6 79.75 259.95 L76.55 261.7 69.1 253.0 Q72.3 250.35 97.45 217.65 L98.5 216.45 Q104.8 209.0 114.8 195.6 L116.5 193.35 120.65 187.7 Q126.4 180.05 126.4 179.35 L126.4 179.0" fill="url(#gradient4)" fill-rule="evenodd" stroke="none"/>
    <path d="M122.05 178.05 L122.1 176.35 122.3 177.55 122.05 178.05 M204.75 187.6 L204.7 189.35 204.4 189.25 204.75 187.05 Q205.1 184.35 205.15 187.3 L205.2 188.3 205.05 187.75 204.85 187.25 Q204.75 187.0 204.75 187.6" fill="url(#gradient5)" fill-rule="evenodd" stroke="none"/>
    <path d="M214.25 192.2 L213.25 197.05 Q216.3 189.35 210.05 206.05 203.8 222.75 195.95 255.85 189.25 284.25 188.2 283.2 186.75 284.85 170.85 290.55 L152.0 297.0 113.15 308.6 113.1 308.8 112.8 308.7 112.7 308.7 112.55 308.55 112.4 308.55 Q111.7 308.55 101.9 297.6 L86.8 280.25 75.3 265.8 64.85 252.25 64.9 251.9 64.8 251.9 Q68.9 247.7 77.1 236.9 L77.7 236.2 97.55 213.75 Q104.1 205.65 112.1 195.05 L121.4 182.55 121.8 182.05 Q123.85 179.55 125.0 178.75 126.25 177.85 126.4 179.0 L126.4 179.35 Q126.4 180.05 120.65 187.7 L116.5 193.35 114.8 195.6 Q104.8 209.0 98.5 216.45 L97.45 217.65 Q72.3 250.35 69.1 253.0 L76.55 261.7 79.75 259.95 Q84.15 257.6 93.1 249.95 L90.6 252.8 Q93.8 249.35 93.4 250.35 92.9 251.6 81.25 268.65 84.8 271.6 90.3 278.35 105.4 296.9 113.3 305.55 126.3 301.45 139.05 296.95 L156.85 290.85 164.65 268.4 165.55 288.25 170.1 286.75 176.0 284.95 176.95 284.3 Q178.8 285.6 183.9 269.95 188.95 254.25 202.2 220.75 L211.4 197.05 212.3 195.5 213.5 193.6 213.75 193.25 213.9 193.3 214.25 192.2 M187.4 282.3 Q186.9 282.45 188.2 282.4 L188.15 282.55 188.25 282.55 188.25 282.3 187.4 282.3" fill="#a5391f" fill-rule="evenodd" stroke="none"/>
    <path d="M211.0 116.1 Q180.2 118.55 151.35 113.45 142.0 111.8 132.8 109.3 L128.05 107.9 129.0 107.0 Q137.25 108.05 150.15 111.1 173.35 114.95 211.8 114.0 L212.2 115.0 212.1 115.65 Q211.8 116.05 211.0 116.1 M191.5 108.3 L190.4 108.75 Q178.25 109.7 163.35 108.3 148.95 107.0 140.45 104.3 L140.6 104.0 140.65 103.85 166.35 105.05 Q190.45 106.05 191.6 107.65 L191.5 108.3" fill="#db8c7c" fill-rule="evenodd" stroke="none"/>
  </g>
  <defs>
    <radialGradient cx="0" cy="0" gradientTransform="matrix(0.2082, 0.0195, -0.0334, 0.2301, 188.25, 109.65)" gradientUnits="userSpaceOnUse" id="gradient0" r="819.2" spreadMethod="repeat">
      <stop offset="0.0" stop-color="#ffff33"/>
      <stop offset="0.26666666666666666" stop-color="#ffcc33"/>
      <stop offset="1.0" stop-color="#d85738"/>
    </radialGradient>
    <radialGradient cx="0" cy="0" gradientTransform="matrix(0.139, 0.013, -0.0223, 0.1536, 277.8, 79.55)" gradientUnits="userSpaceOnUse" id="gradient1" r="819.2" spreadMethod="repeat">
      <stop offset="0.0" stop-color="#ffff33"/>
      <stop offset="0.26666666666666666" stop-color="#ffcc33"/>
      <stop offset="1.0" stop-color="#d85738"/>
    </radialGradient>
    <radialGradient cx="0" cy="0" gradientTransform="matrix(0.2082, 0.0195, -0.0334, 0.2301, 188.25, 109.65)" gradientUnits="userSpaceOnUse" id="gradient2" r="819.2" spreadMethod="repeat">
      <stop offset="0.0" stop-color="#ffcc33"/>
      <stop offset="1.0" stop-color="#d85738"/>
    </radialGradient>
    <radialGradient cx="0" cy="0" gradientTransform="matrix(0.0746, 0.007, -0.012, 0.0825, 146.25, 51.35)" gradientUnits="userSpaceOnUse" id="gradient3" r="819.2" spreadMethod="repeat">
      <stop offset="0.0" stop-color="#ffcc33"/>
      <stop offset="1.0" stop-color="#d85738"/>
    </radialGradient>
    <radialGradient cx="0" cy="0" gradientTransform="matrix(0.1511, -0.012, 0.012, 0.1511, 149.65, 200.85)" gradientUnits="userSpaceOnUse" id="gradient4" r="819.2" spreadMethod="repeat">
      <stop offset="0.0" stop-color="#ffff33"/>
      <stop offset="0.26666666666666666" stop-color="#ffcc33"/>
      <stop offset="1.0" stop-color="#d85738"/>
    </radialGradient>
    <radialGradient cx="0" cy="0" gradientTransform="matrix(0.1511, -0.012, 0.012, 0.1511, 149.65, 200.85)" gradientUnits="userSpaceOnUse" id="gradient5" r="819.2" spreadMethod="repeat">
      <stop offset="0.0" stop-color="#ffcc33"/>
      <stop offset="1.0" stop-color="#d85738"/>
    </radialGradient>
  </defs>
</svg>
