<?xml version="1.0" encoding="UTF-8" standalone="no"?>
<svg xmlns:ffdec="https://www.free-decompiler.com/flash" xmlns:xlink="http://www.w3.org/1999/xlink" ffdec:objectType="shape" height="42.1px" width="33.4px" xmlns="http://www.w3.org/2000/svg">
  <g transform="matrix(1.0, 0.0, 0.0, 1.0, 0.0, 0.0)">
    <path d="M1.4 23.6 L1.75 22.65 Q2.8 20.25 5.35 17.5 L6.1 16.85 Q8.45 14.35 10.85 12.75 L16.8 9.0 Q20.1 6.75 23.2 4.2 L27.45 0.0 27.25 1.75 Q27.1 4.25 28.15 6.2 28.6 7.25 27.75 5.65 26.9 4.1 28.5 7.95 L31.0 13.7 32.0 16.5 32.25 17.05 32.4 18.05 32.95 20.35 33.35 22.3 Q33.5 23.5 33.15 24.9 L32.55 27.95 32.35 27.9 32.15 27.9 31.95 27.95 Q31.55 28.15 31.3 28.3 L30.35 28.95 29.95 29.15 29.65 29.35 29.15 29.9 27.65 30.7 27.45 30.8 27.1 30.95 26.95 31.1 25.95 31.8 24.8 32.45 Q21.65 33.95 14.5 34.5 9.45 35.0 4.85 31.3 0.4 27.8 1.05 24.4 L1.55 24.0 1.4 23.6 M7.45 16.55 L8.25 16.15 9.1 15.95 9.1 15.9 8.25 16.1 6.9 16.65 7.45 16.55 M6.9 16.45 L6.85 16.6 6.9 16.65 6.9 16.45 M3.65 24.05 L3.65 24.15 4.3 24.65 3.65 24.05 M4.7 23.05 L4.6 24.25 Q4.8 25.4 6.45 25.25 7.85 25.15 8.85 23.25 9.6 21.95 9.8 20.5 10.15 18.15 7.7 19.2 5.15 20.15 4.7 23.05 M12.3 16.25 L12.8 16.45 12.4 16.25 12.3 16.25 M13.6 16.85 L13.6 16.8 13.55 16.8 13.6 16.85 M10.35 32.35 L7.9 31.7 Q8.95 32.25 10.45 32.55 L10.35 32.35 M12.7 33.2 L13.0 33.5 14.6 33.55 Q19.75 33.15 22.9 32.0 L23.5 31.95 21.3 32.15 21.1 32.2 Q19.25 32.9 17.6 33.05 L14.3 32.95 12.7 33.2 M6.1 26.15 L6.1 26.1 5.75 25.95 6.1 26.15" fill="#f0795b" fill-rule="evenodd" stroke="none"/>
    <path d="M1.05 24.4 L1.3 23.95 1.55 24.0 1.05 24.4 M7.45 16.55 L6.9 16.65 8.25 16.1 9.1 15.9 9.1 15.95 8.25 16.15 7.45 16.55 M13.6 16.85 L13.55 16.8 13.6 16.8 13.6 16.85 M12.3 16.25 L12.4 16.25 12.8 16.45 12.3 16.25" fill="#f28c8c" fill-rule="evenodd" stroke="none"/>
    <path d="M6.9 16.45 L6.9 16.65 6.85 16.6 6.9 16.45" fill="#f3c8be" fill-rule="evenodd" stroke="none"/>
    <path d="M1.3 23.95 L1.4 23.6 1.55 24.0 1.3 23.95 M10.35 32.35 L10.45 32.55 Q8.95 32.25 7.9 31.7 L10.35 32.35" fill="#f0a06c" fill-rule="evenodd" stroke="none"/>
    <path d="M4.7 23.05 Q5.15 20.15 7.7 19.2 10.15 18.15 9.8 20.5 9.6 21.95 8.85 23.25 7.85 25.15 6.45 25.25 4.8 25.4 4.6 24.25 L4.7 23.05" fill="#f49e8a" fill-rule="evenodd" stroke="none"/>
    <path d="M3.65 24.05 L4.3 24.65 3.65 24.15 3.65 24.05" fill="#f4a4a4" fill-rule="evenodd" stroke="none"/>
    <path d="M12.7 33.2 L14.3 32.95 17.6 33.05 Q19.25 32.9 21.1 32.2 L21.3 32.15 23.5 31.95 22.9 32.0 Q19.75 33.15 14.6 33.55 L13.0 33.5 12.7 33.2" fill="#e48770" fill-rule="evenodd" stroke="none"/>
    <path d="M6.1 26.15 L5.75 25.95 6.1 26.1 6.1 26.15" fill="#efb7a9" fill-rule="evenodd" stroke="none"/>
    <path d="M32.55 27.95 L31.55 30.45 29.9 33.1 Q28.55 35.05 26.75 36.4 L23.65 38.8 Q22.0 39.8 20.35 40.45 L17.25 41.7 13.95 42.1 11.2 41.75 10.65 41.7 Q8.95 41.35 6.15 39.65 L5.65 39.4 4.9 38.65 2.55 36.95 1.7 35.4 0.4 32.65 Q0.0 31.55 0.05 30.15 L0.1 27.45 1.05 24.4 Q0.4 27.8 4.85 31.3 9.45 35.0 14.5 34.5 21.65 33.95 24.8 32.45 L25.95 31.8 26.95 31.1 27.65 30.8 29.3 30.05 29.15 29.9 29.65 29.35 29.95 29.15 30.35 28.95 31.3 28.3 Q31.55 28.15 31.95 27.95 L32.15 27.9 32.3 28.0 32.35 27.9 32.55 27.95" fill="#863e3e" fill-rule="evenodd" stroke="none"/>
    <path d="M26.95 31.1 L27.1 30.95 27.45 30.8 27.65 30.7 27.65 30.8 26.95 31.1 M32.15 27.9 L32.35 27.9 32.3 28.0 32.15 27.9" fill="#ed5f5f" fill-rule="evenodd" stroke="none"/>
    <path d="M27.65 30.7 L29.15 29.9 29.3 30.05 27.65 30.8 27.65 30.7" fill="#b9644f" fill-rule="evenodd" stroke="none"/>
  </g>
</svg>
