<?xml version="1.0" encoding="UTF-8" standalone="no"?>
<svg xmlns:ffdec="https://www.free-decompiler.com/flash" xmlns:xlink="http://www.w3.org/1999/xlink" ffdec:objectType="shape" height="34.3px" width="54.05px" xmlns="http://www.w3.org/2000/svg">
  <g transform="matrix(1.0, 0.0, 0.0, 1.0, 0.0, 0.0)">
    <path d="M42.25 27.35 L43.9 28.1 43.85 28.05 Q42.8 27.4 42.25 27.35 M39.75 21.35 L41.4 18.3 54.05 23.55 50.6 34.3 40.6 30.15 Q37.55 28.9 37.55 28.45 37.45 27.2 37.95 25.35 38.55 23.6 39.75 21.35 M26.05 19.55 L26.0 19.5 25.25 20.75 Q21.95 25.7 16.2 26.15 11.5 26.5 6.5 24.15 0.45 21.35 0.05 16.35 -0.15 13.35 1.1 10.35 2.55 4.15 9.1 1.25 L9.65 1.05 Q13.1 -0.35 15.85 0.1 L17.2 0.45 Q20.7 0.5 23.3 2.35 27.35 5.3 27.9 11.7 28.1 14.0 27.45 16.2 26.95 17.9 26.05 19.55 M20.5 17.05 Q22.05 14.65 22.05 12.15 22.05 8.7 19.65 6.65 17.4 4.75 14.3 4.85 12.65 4.9 11.3 5.5 9.95 6.05 8.9 7.1 8.0 8.05 7.45 9.2 5.9 11.35 5.9 14.1 5.9 16.15 6.7 17.65 7.6 19.35 9.6 19.9 11.05 20.65 13.1 20.65 18.15 20.65 20.5 17.05" fill="#7e6b23" fill-rule="evenodd" stroke="none"/>
    <path d="M37.95 25.35 L33.2 23.05 Q28.9 21.1 26.05 19.55 26.95 17.9 27.45 16.2 L36.55 19.95 39.75 21.35 Q38.55 23.6 37.95 25.35" fill="#ba9e34" fill-rule="evenodd" stroke="none"/>
    <path d="M20.5 17.05 Q18.15 20.65 13.1 20.65 11.05 20.65 9.6 19.9 7.6 19.35 6.7 17.65 5.9 16.15 5.9 14.1 5.9 11.35 7.45 9.2 8.0 8.05 8.9 7.1 9.95 6.05 11.3 5.5 12.65 4.9 14.3 4.85 17.4 4.75 19.65 6.65 22.05 8.7 22.05 12.15 22.05 14.65 20.5 17.05" fill="#ede7ab" fill-rule="evenodd" stroke="none"/>
  </g>
</svg>
