<?xml version="1.0" encoding="UTF-8" standalone="no"?>
<svg xmlns:ffdec="https://www.free-decompiler.com/flash" xmlns:xlink="http://www.w3.org/1999/xlink" ffdec:objectType="shape" height="22.4px" width="37.2px" xmlns="http://www.w3.org/2000/svg">
  <g transform="matrix(1.0, 0.0, 0.0, 1.0, 0.0, 0.0)">
    <path d="M20.05 10.75 L17.1 3.8 31.6 0.0 37.2 14.35 28.1 18.05 23.5 19.8 20.8 12.55 20.8 12.5 20.45 11.7 20.35 11.35 20.05 10.75 M15.65 14.6 L15.7 15.45 Q15.7 17.1 14.3 19.35 12.35 22.4 9.5 22.4 4.2 22.4 1.6 19.3 L0.0 16.0 Q0.0 12.45 2.5 10.35 4.65 8.5 7.9 8.5 11.05 8.45 13.25 10.2 14.4 11.1 15.0 12.3 15.55 13.35 15.65 14.6 M5.15 19.85 L6.35 20.0 Q10.15 20.0 12.2 17.8 13.45 16.45 13.45 15.45 13.45 10.95 7.9 11.05 L5.55 11.25 Q3.05 11.85 2.5 13.85 L2.3 15.05 Q2.3 16.4 3.0 17.8 L3.2 18.25 Q3.95 19.45 5.15 19.85" fill="#7e6b23" fill-rule="evenodd" stroke="none"/>
    <path d="M20.05 10.75 L20.4 12.65 20.4 12.9 15.65 14.6 Q15.55 13.35 15.0 12.3 16.8 11.65 20.05 10.75" fill="#ba9e34" fill-rule="evenodd" stroke="none"/>
    <path d="M5.55 11.25 L7.9 11.05 Q13.45 10.95 13.45 15.45 13.45 16.45 12.2 17.8 10.15 20.0 6.35 20.0 L5.15 19.85 4.7 19.5 3.2 18.25 3.0 17.8 Q2.3 16.4 2.3 15.05 L2.5 13.85 Q3.05 13.0 4.1 12.2 4.7 11.75 5.55 11.25" fill="#ede7ab" fill-rule="evenodd" stroke="none"/>
  </g>
</svg>
