<?xml version="1.0" encoding="UTF-8" standalone="no"?>
<svg xmlns:ffdec="https://www.free-decompiler.com/flash" xmlns:xlink="http://www.w3.org/1999/xlink" ffdec:objectType="shape" height="51.1px" width="50.55px" xmlns="http://www.w3.org/2000/svg">
  <g transform="matrix(1.0, 0.0, 0.0, 1.0, -28.5, -9.2)">
    <path d="M40.9 11.3 Q47.7 9.2 53.65 9.2 66.75 9.2 73.8 15.65 L76.25 19.75 Q79.05 25.05 79.05 29.85 79.05 33.8 78.4 36.65 L77.85 39.2 Q76.15 44.15 72.8 48.8 65.25 59.4 55.5 60.15 48.9 60.65 43.65 59.4 42.15 59.3 40.65 58.5 29.95 50.15 28.65 36.5 27.2 22.0 38.0 12.7 L39.55 11.8 39.7 11.75 40.0 11.7 40.9 11.3" fill="#ffff99" fill-rule="evenodd" stroke="none"/>
  </g>
</svg>
