<?xml version="1.0" encoding="UTF-8" standalone="no"?>
<svg xmlns:ffdec="https://www.free-decompiler.com/flash" xmlns:xlink="http://www.w3.org/1999/xlink" ffdec:objectType="shape" height="19.8px" width="20.05px" xmlns="http://www.w3.org/2000/svg">
  <g transform="matrix(1.0, 0.0, 0.0, 1.0, 0.0, 0.0)">
    <path d="M11.95 4.4 L11.8 4.35 8.85 4.65 Q8.05 4.85 7.15 5.45 6.3 6.1 5.85 6.5 L5.65 6.6 Q5.4 6.0 4.45 7.25 3.25 8.85 3.25 10.2 3.25 11.9 4.0 13.25 5.5 15.95 9.55 15.95 L10.1 15.95 11.35 15.9 Q14.35 15.7 15.4 12.75 16.05 11.05 15.9 9.25 15.7 7.4 14.8 6.05 L14.35 5.6 Q13.25 4.75 12.25 4.5 L11.95 4.4 M20.0 8.8 Q20.4 13.65 17.1 16.75 14.25 19.45 10.55 19.75 4.8 20.25 1.95 16.0 0.25 13.55 0.05 11.15 -0.25 8.05 1.15 5.3 2.5 2.65 5.15 1.3 6.1 0.8 7.3 0.45 12.15 -1.05 16.25 2.55 19.7 5.55 20.0 8.8" fill="#662b2b" fill-rule="evenodd" stroke="none"/>
    <path d="M11.95 4.4 L12.25 4.5 Q13.25 4.75 14.35 5.6 L14.8 6.05 Q15.7 7.4 15.9 9.25 16.05 11.05 15.4 12.75 14.35 15.7 11.35 15.9 L10.1 15.95 9.55 15.95 Q5.5 15.95 4.0 13.25 3.25 11.9 3.25 10.2 3.25 8.85 4.45 7.25 5.4 6.0 5.65 6.6 L5.85 6.5 Q6.3 6.1 7.15 5.45 8.05 4.85 8.85 4.65 L11.8 4.35 11.95 4.4" fill="#000000" fill-rule="evenodd" stroke="none"/>
    <path d="M8.8 3.25 L9.25 4.65 Q9.3 5.2 8.7 5.75 8.05 6.55 6.85 6.65 5.35 6.75 4.85 6.05 L4.65 5.25 4.6 5.15 Q4.45 3.45 5.75 2.85 L6.7 2.6 Q8.25 2.35 8.8 3.25" fill="#ffffff" fill-rule="evenodd" stroke="none"/>
  </g>
</svg>
