<?xml version="1.0" encoding="UTF-8" standalone="no"?>
<svg xmlns:ffdec="https://www.free-decompiler.com/flash" xmlns:xlink="http://www.w3.org/1999/xlink" ffdec:objectType="shape" height="51.05px" width="50.05px" xmlns="http://www.w3.org/2000/svg">
  <g transform="matrix(1.0, 0.0, 0.0, 1.0, -15.7, -9.95)">
    <path d="M53.3 11.35 L55.45 12.0 Q61.2 15.4 63.6 20.25 65.75 24.55 65.75 33.5 L65.7 35.05 64.8 39.25 64.9 39.75 63.4 43.95 62.35 46.6 Q55.1 59.85 41.65 60.9 32.45 61.65 24.5 57.25 L20.95 54.85 Q13.5 42.65 16.65 28.55 18.4 20.65 24.85 15.2 L28.25 12.1 29.0 11.95 Q32.95 10.5 38.35 10.1 46.15 9.5 53.3 11.35" fill="#ffff99" fill-rule="evenodd" stroke="none"/>
  </g>
</svg>
