<?xml version="1.0" encoding="UTF-8" standalone="no"?>
<svg xmlns:ffdec="https://www.free-decompiler.com/flash" xmlns:xlink="http://www.w3.org/1999/xlink" ffdec:objectType="shape" height="22.9px" width="23.85px" xmlns="http://www.w3.org/2000/svg">
  <g transform="matrix(1.0, 0.0, 0.0, 1.0, 0.0, 0.0)">
    <path d="M20.0 10.7 Q20.0 7.2 14.9 5.3 12.85 4.5 11.4 4.75 10.35 4.9 10.0 5.6 7.7 6.0 6.25 9.0 5.2 11.2 5.2 12.8 5.2 14.75 7.15 16.35 8.95 17.85 10.6 17.85 L11.85 17.8 13.2 17.9 Q17.5 17.9 19.15 14.55 20.0 12.85 20.0 10.7 M18.5 1.25 Q27.9 7.95 20.8 17.55 14.4 26.35 4.9 20.65 -1.65 16.8 0.55 9.75 3.65 0.0 14.4 0.0 16.65 0.0 18.5 1.25" fill="#662b2b" fill-rule="evenodd" stroke="none"/>
    <path d="M20.0 10.7 Q20.0 12.85 19.15 14.55 17.5 17.9 13.2 17.9 L11.85 17.8 10.6 17.85 Q8.95 17.85 7.15 16.35 5.2 14.75 5.2 12.8 5.2 11.2 6.25 9.0 7.7 6.0 10.0 5.6 10.35 4.9 11.4 4.75 12.85 4.5 14.9 5.3 20.0 7.2 20.0 10.7" fill="#000000" fill-rule="evenodd" stroke="none"/>
    <path d="M7.55 5.25 L7.6 5.25 9.95 5.35 10.2 5.55 Q10.8 6.95 9.85 8.0 L9.7 8.2 Q7.65 8.75 6.65 6.95 6.65 6.25 6.95 5.75 7.2 5.25 7.55 5.25" fill="#ffffff" fill-rule="evenodd" stroke="none"/>
  </g>
</svg>
