<?xml version="1.0" encoding="UTF-8" standalone="no"?>
<svg xmlns:ffdec="https://www.free-decompiler.com/flash" xmlns:xlink="http://www.w3.org/1999/xlink" ffdec:objectType="shape" height="33.45px" width="69.45px" xmlns="http://www.w3.org/2000/svg">
  <g transform="matrix(1.0, 0.0, 0.0, 1.0, 0.05, 0.0)">
    <path d="M46.0 24.0 Q42.3 11.05 56.3 8.85 63.65 10.05 64.1 18.15 64.75 30.05 53.05 30.0 47.55 29.4 46.0 24.0 M15.85 3.45 Q17.35 4.8 18.45 6.5 21.9 11.55 18.25 16.6 L16.7 18.7 Q15.0 20.75 12.35 20.8 L9.1 20.3 Q6.9 19.4 5.5 17.85 3.3 15.5 3.75 12.25 4.25 8.95 6.0 6.05 6.8 4.8 8.3 4.05 11.9 2.35 15.85 3.45" fill="#8d7d99" fill-opacity="0.3137255" fill-rule="evenodd" stroke="none"/>
    <path d="M46.0 24.0 Q47.55 29.4 53.05 30.0 64.75 30.05 64.1 18.15 63.65 10.05 56.3 8.85 42.3 11.05 46.0 24.0 M51.7 4.6 Q56.6 3.45 60.7 5.3 76.0 12.65 64.4 28.95 62.55 31.65 59.6 32.5 45.7 36.45 40.8 24.35 L39.1 17.0 Q35.2 14.95 31.0 14.95 L24.8 15.95 Q22.85 21.1 17.8 23.85 16.0 24.85 13.95 24.85 7.3 24.95 2.25 20.8 0.3 19.2 0.0 16.65 -0.3 12.95 0.95 9.35 2.75 4.3 7.55 1.7 10.5 0.15 14.0 0.0 16.6 0.25 19.2 1.85 21.8 3.4 22.65 5.0 23.5 6.6 24.35 8.9 L25.05 11.5 31.0 11.7 Q36.0 12.25 40.7 14.25 L40.7 14.65 Q43.75 6.75 51.7 4.6 M15.85 3.45 Q11.9 2.35 8.3 4.05 6.8 4.8 6.0 6.05 4.25 8.95 3.75 12.25 3.3 15.5 5.5 17.85 6.9 19.4 9.1 20.3 L12.35 20.8 Q15.0 20.75 16.7 18.7 L18.25 16.6 Q21.9 11.55 18.45 6.5 17.35 4.8 15.85 3.45" fill="#7d3535" fill-rule="evenodd" stroke="none"/>
  </g>
</svg>
