<?xml version="1.0" encoding="UTF-8" standalone="no"?>
<svg xmlns:ffdec="https://www.free-decompiler.com/flash" xmlns:xlink="http://www.w3.org/1999/xlink" ffdec:objectType="shape" height="160.5px" width="368.15px" xmlns="http://www.w3.org/2000/svg">
  <g transform="matrix(1.0, 0.0, 0.0, 1.0, 0.0, 0.0)">
    <path d="M367.5 132.85 Q367.0 136.9 368.15 145.8 L356.8 144.15 354.9 143.95 359.05 139.65 Q362.05 136.35 363.0 135.9 L366.5 132.95 367.5 132.85" fill="url(#gradient0)" fill-rule="evenodd" stroke="none"/>
    <path d="M311.95 34.65 Q317.15 29.15 319.7 26.8 319.3 28.9 319.4 31.35 319.45 32.9 319.85 35.9 L309.55 37.95 308.6 38.2 311.95 34.65" fill="url(#gradient1)" fill-rule="evenodd" stroke="none"/>
    <path d="M285.35 159.85 L284.8 159.5 291.7 153.9 Q297.8 148.9 300.2 147.55 L300.4 149.0 Q299.75 151.6 300.9 160.5 290.2 157.8 285.35 159.85" fill="url(#gradient2)" fill-rule="evenodd" stroke="none"/>
    <path d="M59.35 9.55 L58.85 9.5 Q58.6 7.5 57.05 3.15 L56.0 0.0 60.0 1.0 Q66.3 2.75 68.3 4.2 66.5 4.5 64.0 6.7 L59.95 10.3 Q59.9 9.7 59.35 9.55" fill="url(#gradient3)" fill-rule="evenodd" stroke="none"/>
    <path d="M24.0 19.85 L29.0 25.95 20.25 22.0 Q16.0 20.05 13.05 19.25 L13.8 18.45 15.45 16.85 Q17.85 14.75 18.75 14.65 19.45 14.55 24.0 19.85" fill="url(#gradient4)" fill-rule="evenodd" stroke="none"/>
    <path d="M0.0 64.4 L14.45 59.5 15.1 64.5 Q14.2 65.6 14.75 69.6 8.25 66.35 0.3 64.5 L0.0 64.4" fill="url(#gradient5)" fill-rule="evenodd" stroke="none"/>
    <path d="M32.95 105.05 L32.95 103.5 Q34.9 104.85 38.7 106.35 43.75 108.45 47.45 109.2 L40.05 110.3 Q35.95 111.05 32.75 112.05 L32.95 105.05" fill="url(#gradient6)" fill-rule="evenodd" stroke="none"/>
  </g>
  <defs>
    <radialGradient cx="0" cy="0" gradientTransform="matrix(0.0114, -0.0015, 0.0015, 0.0114, 363.15, 141.15)" gradientUnits="userSpaceOnUse" id="gradient0" r="819.2" spreadMethod="repeat">
      <stop offset="0.0" stop-color="#ffcc33"/>
      <stop offset="1.0" stop-color="#d85738"/>
    </radialGradient>
    <radialGradient cx="0" cy="0" gradientTransform="matrix(0.0112, -0.0014, 0.0014, 0.0112, 315.65, 32.3)" gradientUnits="userSpaceOnUse" id="gradient1" r="819.2" spreadMethod="repeat">
      <stop offset="0.0" stop-color="#ffcc33"/>
      <stop offset="1.0" stop-color="#d85738"/>
    </radialGradient>
    <radialGradient cx="0" cy="0" gradientTransform="matrix(0.0137, -0.0018, 0.0018, 0.0137, 293.05, 156.1)" gradientUnits="userSpaceOnUse" id="gradient2" r="819.2" spreadMethod="repeat">
      <stop offset="0.0" stop-color="#ffcc33"/>
      <stop offset="1.0" stop-color="#d85738"/>
    </radialGradient>
    <radialGradient cx="0" cy="0" gradientTransform="matrix(0.0102, -0.0013, 0.0013, 0.0102, 59.9, 3.25)" gradientUnits="userSpaceOnUse" id="gradient3" r="819.2" spreadMethod="repeat">
      <stop offset="0.0" stop-color="#ffcc33"/>
      <stop offset="1.0" stop-color="#d85738"/>
    </radialGradient>
    <radialGradient cx="0" cy="0" gradientTransform="matrix(0.0146, -0.0019, 0.0019, 0.0146, 19.15, 19.05)" gradientUnits="userSpaceOnUse" id="gradient4" r="819.2" spreadMethod="repeat">
      <stop offset="0.0" stop-color="#ffcc33"/>
      <stop offset="1.0" stop-color="#d85738"/>
    </radialGradient>
    <radialGradient cx="0" cy="0" gradientTransform="matrix(0.0108, -0.0014, 0.0014, 0.0108, 8.9, 64.75)" gradientUnits="userSpaceOnUse" id="gradient5" r="819.2" spreadMethod="repeat">
      <stop offset="0.0" stop-color="#ffcc33"/>
      <stop offset="1.0" stop-color="#d85738"/>
    </radialGradient>
    <radialGradient cx="0" cy="0" gradientTransform="matrix(0.0139, -0.0018, 0.0018, 0.0139, 36.1, 107.55)" gradientUnits="userSpaceOnUse" id="gradient6" r="819.2" spreadMethod="repeat">
      <stop offset="0.0" stop-color="#ffcc33"/>
      <stop offset="1.0" stop-color="#d85738"/>
    </radialGradient>
  </defs>
</svg>
