<?xml version="1.0" encoding="UTF-8" standalone="no"?>
<svg xmlns:ffdec="https://www.free-decompiler.com/flash" xmlns:xlink="http://www.w3.org/1999/xlink" ffdec:objectType="shape" height="83.15px" width="123.75px" xmlns="http://www.w3.org/2000/svg">
  <g transform="matrix(1.0, 0.0, 0.0, 1.0, 0.0, 0.0)">
    <path d="M123.05 23.0 L123.0 23.05 122.95 22.95 123.05 22.95 123.05 23.0" fill="url(#gradient0)" fill-rule="evenodd" stroke="none"/>
    <path d="M123.75 17.7 L123.15 21.5 123.05 22.4 76.55 25.25 76.2 25.25 76.2 25.3 75.05 38.25 74.85 40.55 42.4 36.0 44.6 23.5 43.75 23.35 44.05 21.8 1.3 5.05 2.7 0.8 5.0 1.6 59.7 20.8 123.75 17.7 M56.9 25.2 L57.05 25.25 57.9 25.35 57.2 25.25 56.9 25.2" fill="#291212" fill-rule="evenodd" stroke="none"/>
    <path d="M74.85 40.55 L74.5 44.3 74.05 48.4 73.0 59.4 Q71.7 73.95 71.65 83.15 L70.6 82.9 Q58.1 80.45 45.35 78.85 L31.65 77.4 Q33.45 71.95 36.15 61.7 L38.65 52.2 40.1 46.45 41.45 40.3 42.4 36.0 74.85 40.55 M0.0 9.0 L0.05 8.85 0.5 8.95 0.45 9.1 0.0 9.0" fill="#421c1c" fill-rule="evenodd" stroke="none"/>
    <path d="M5.0 1.6 L62.3 0.0 123.75 17.7 59.7 20.8 5.0 1.6" fill="#7d3535" fill-rule="evenodd" stroke="none"/>
    <path d="M61.35 46.5 Q59.25 46.6 58.6 50.75 L58.2 53.35 57.0 59.7 Q56.95 56.7 56.05 53.05 L55.9 52.3 Q54.7 47.05 53.05 47.1 52.0 47.15 51.3 48.8 50.7 50.05 50.6 51.55 L50.65 52.25 Q50.7 54.15 52.0 57.4 L52.1 57.65 Q53.65 59.65 53.65 61.55 L53.65 61.75 52.85 64.7 Q52.15 66.95 52.1 67.7 52.0 69.1 53.3 70.0 54.4 70.75 55.65 70.7 L57.05 70.4 58.3 69.6 60.8 67.0 Q61.45 66.4 62.8 66.1 L64.15 65.85 Q65.8 65.7 65.95 63.75 65.95 63.1 65.6 62.55 L64.9 61.95 Q64.05 61.35 63.5 61.35 62.3 61.4 60.8 61.9 L60.05 62.25 58.95 63.35 58.75 63.35 59.1 62.55 61.7 55.65 62.25 53.85 62.6 51.3 62.65 48.25 Q62.45 46.45 61.35 46.5 M51.3 43.55 L52.7 43.3 56.4 42.75 Q62.0 42.5 65.9 46.95 68.85 50.3 69.45 54.8 L69.55 58.4 Q69.2 63.9 64.55 69.1 59.75 74.45 54.2 74.7 49.55 74.95 44.95 71.15 40.2 67.25 40.25 62.5 42.1 53.75 43.75 51.2 L44.75 49.8 Q47.25 46.45 51.3 43.55 M48.45 59.85 Q48.35 62.0 49.35 63.7 50.35 65.55 52.05 65.45 L52.3 64.15 Q52.45 61.8 51.45 59.95 50.45 58.2 49.35 58.25 L48.85 58.65 48.75 58.8 48.45 59.85 M47.95 65.85 L47.85 66.05 47.75 66.5 48.35 67.85 Q49.0 68.95 49.4 69.05 L50.9 69.0 51.1 68.4 Q51.15 67.6 49.9 66.4 L48.65 65.35 47.95 65.85" fill="#532424" fill-rule="evenodd" stroke="none"/>
    <path d="M61.35 46.5 Q62.45 46.45 62.65 48.25 L62.6 51.3 62.25 53.85 61.7 55.65 59.1 62.55 58.75 63.35 58.95 63.35 60.05 62.25 60.8 61.9 Q62.3 61.4 63.5 61.35 64.05 61.35 64.9 61.95 L65.6 62.55 Q65.95 63.1 65.95 63.75 65.8 65.7 64.15 65.85 L62.8 66.1 Q61.45 66.4 60.8 67.0 L58.3 69.6 57.05 70.4 55.65 70.7 Q54.4 70.75 53.3 70.0 52.0 69.1 52.1 67.7 52.15 66.95 52.85 64.7 L53.65 61.75 53.65 61.55 Q53.65 59.65 52.1 57.65 L52.0 57.4 Q50.7 54.15 50.65 52.25 L50.6 51.55 Q50.7 50.05 51.3 48.8 52.0 47.15 53.05 47.1 54.7 47.05 55.9 52.3 L56.05 53.05 Q56.95 56.7 57.0 59.7 L58.2 53.35 58.6 50.75 Q59.25 46.6 61.35 46.5 M47.95 65.85 L48.65 65.35 49.9 66.4 Q51.15 67.6 51.1 68.4 L50.9 69.0 49.4 69.05 Q49.0 68.95 48.35 67.85 L47.75 66.5 47.85 66.05 47.95 65.85 M48.45 59.85 L48.75 58.8 48.85 58.65 49.35 58.25 Q50.45 58.2 51.45 59.95 52.45 61.8 52.3 64.15 L52.05 65.45 Q50.35 65.55 49.35 63.7 48.35 62.0 48.45 59.85 M57.95 62.9 L57.95 63.05 58.1 62.85 57.95 62.9" fill="#7d3535" fill-rule="evenodd" stroke="none"/>
  </g>
  <defs>
    <radialGradient cx="0" cy="0" gradientTransform="matrix(0.1191, -0.0056, -0.0108, 0.1365, 27.15, 16.25)" gradientUnits="userSpaceOnUse" id="gradient0" r="819.2" spreadMethod="repeat">
      <stop offset="0.0" stop-color="#a07001"/>
      <stop offset="1.0" stop-color="#782b18"/>
    </radialGradient>
  </defs>
</svg>
