<?xml version="1.0" encoding="UTF-8" standalone="no"?>
<svg xmlns:ffdec="https://www.free-decompiler.com/flash" xmlns:xlink="http://www.w3.org/1999/xlink" ffdec:objectType="shape" height="109.9px" width="94.5px" xmlns="http://www.w3.org/2000/svg">
  <g transform="matrix(1.0, 0.0, 0.0, 1.0, 34.6, 57.75)">
    <path d="M10.3 -26.6 L11.35 -27.95 12.2 -29.15 Q23.3 -44.65 28.3 -46.05 34.25 -47.55 38.75 -44.4 42.05 -42.05 42.65 -39.45 42.85 -38.55 42.2 -36.35 L42.0 -34.65 Q39.3 -28.6 31.95 -20.45 L26.4 -14.65 23.5 -11.9 22.4 -14.4 Q20.65 -17.6 16.4 -22.0 L12.3 -25.45 10.3 -26.6 M25.8 -7.3 L31.7 -9.15 49.1 -15.1 50.7 -15.6 53.2 -14.2 Q55.95 -13.05 56.75 -12.15 59.7 -9.2 59.9 -5.0 60.0 -1.9 58.8 1.3 L52.3 4.2 46.85 5.95 41.15 7.25 28.95 9.3 28.85 8.85 Q29.4 3.45 28.0 -1.35 L26.25 -6.4 25.8 -7.3 M-0.2 20.55 L-0.05 20.85 Q0.15 21.7 2.6 26.75 5.1 31.85 5.6 33.75 7.25 40.2 4.65 45.15 3.3 47.8 0.95 49.55 -1.1 51.1 -4.1 51.9 -7.55 52.75 -10.5 50.8 -13.1 49.1 -13.9 46.35 -14.4 44.1 -13.25 38.2 L-13.3 37.9 Q-12.05 32.3 -12.4 30.5 -12.55 29.85 -13.75 28.6 L-13.25 28.2 Q-8.6 22.5 -2.45 20.95 L-0.2 20.55 M-32.9 -31.5 L-34.6 -39.7 -32.95 -41.9 Q-29.7 -45.05 -25.3 -44.8 -23.1 -44.75 -21.7 -44.15 L-20.85 -43.4 -19.75 -40.45 Q-17.75 -34.8 -17.25 -31.4 -18.05 -36.55 -23.05 -36.05 -29.0 -35.15 -32.9 -31.5 M-12.9 -36.7 Q-12.15 -47.05 -11.2 -50.55 -8.95 -57.8 -2.5 -57.75 2.35 -57.75 5.2 -53.55 7.6 -50.0 7.5 -45.7 7.45 -41.7 5.5 -37.45 L4.25 -34.25 Q1.5 -35.35 5.25 -33.55 -10.7 -38.85 -12.9 -36.7" fill="#eba594" fill-rule="evenodd" stroke="none"/>
    <path d="M23.5 -11.9 L18.55 -7.25 18.5 -7.2 15.2 -3.9 15.75 -4.0 25.8 -7.3 26.25 -6.4 28.0 -1.35 Q29.4 3.45 28.85 8.85 L28.95 9.3 28.85 9.3 23.35 9.95 11.3 11.5 Q2.3 12.5 0.75 14.2 -1.0 16.35 -0.2 20.55 L-2.45 20.95 Q-8.6 22.5 -13.25 28.2 L-13.75 28.6 Q-15.05 26.6 -16.75 25.25 L-19.4 23.0 Q-20.45 22.25 -21.75 18.6 L-22.3 18.75 Q-22.85 16.2 -24.55 14.05 -24.8 13.4 -26.55 11.0 L-26.2 10.85 Q-28.1 7.95 -28.05 5.8 -28.05 3.25 -26.6 0.5 L-26.5 0.3 -25.15 -2.5 Q-25.15 -4.15 -32.9 -31.5 -29.0 -35.15 -23.05 -36.05 -18.05 -36.55 -17.25 -31.4 L-17.15 -29.85 -16.8 -29.5 -15.6 -25.95 -15.2 -28.95 -14.65 -31.6 -14.75 -32.85 Q-14.4 -35.25 -12.9 -36.7 -10.7 -38.85 5.25 -33.55 1.5 -35.35 4.25 -34.25 L5.25 -33.55 Q5.25 -31.3 0.85 -18.85 -0.4 -15.05 -1.6 -12.2 4.6 -20.75 8.4 -24.45 L9.55 -25.55 10.25 -26.55 10.3 -26.6 12.3 -25.45 16.4 -22.0 Q20.65 -17.6 22.4 -14.4 L23.5 -11.9" fill="#361616" fill-rule="evenodd" stroke="none"/>
  </g>
</svg>
