<?xml version="1.0" encoding="UTF-8" standalone="no"?>
<svg xmlns:ffdec="https://www.free-decompiler.com/flash" xmlns:xlink="http://www.w3.org/1999/xlink" ffdec:objectType="shape" height="42.2px" width="79.95px" xmlns="http://www.w3.org/2000/svg">
  <g transform="matrix(1.0, 0.0, 0.0, 1.0, 0.05, -0.7)">
    <path d="M51.5 20.3 L55.25 17.95 55.85 17.25 Q57.55 16.1 59.6 15.1 L59.55 14.9 64.9 26.8 66.85 33.6 Q66.6 33.25 66.7 33.5 66.0 32.3 65.05 30.1 59.95 33.95 55.45 36.6 54.3 32.85 53.5 28.8 L51.5 20.3" fill="#652c2c" fill-rule="evenodd" stroke="none"/>
    <path d="M55.45 36.6 L53.4 37.85 Q35.6 47.95 23.55 37.75 13.3 29.2 4.45 16.5 L3.75 15.15 Q2.15 11.8 0.35 8.9 -0.05 7.3 0.0 6.1 -0.25 4.0 0.7 2.45 1.1 0.8 2.5 0.7 L11.75 9.05 Q30.35 28.7 49.3 21.25 L51.5 20.3 53.5 28.8 Q54.3 32.85 55.45 36.6" fill="#7d3535" fill-rule="evenodd" stroke="none"/>
    <path d="M77.95 22.0 L79.9 25.45 72.95 33.15 Q68.7 37.85 67.7 39.3 L65.6 34.9 Q63.35 30.4 61.65 27.95 55.55 19.35 52.25 15.2 L46.7 7.15 Q44.8 6.3 51.9 5.9 59.0 5.65 64.0 6.05 L65.25 8.35 65.3 8.25 65.6 8.15 66.15 8.75 Q70.1 14.0 74.5 18.6 L77.8 22.0 77.95 22.0" fill="#cab6a4" fill-rule="evenodd" stroke="none"/>
  </g>
</svg>
