<?xml version="1.0" encoding="UTF-8" standalone="no"?>
<svg xmlns:ffdec="https://www.free-decompiler.com/flash" xmlns:xlink="http://www.w3.org/1999/xlink" ffdec:objectType="shape" height="38.55px" width="83.25px" xmlns="http://www.w3.org/2000/svg">
  <g transform="matrix(1.0, 0.0, 0.0, 1.0, 0.0, 0.0)">
    <path d="M55.5 30.35 L53.55 21.9 51.55 13.15 55.3 12.3 55.9 11.8 59.65 11.3 59.55 11.0 65.0 25.9 Q65.95 28.7 66.85 33.7 L66.75 33.65 65.15 29.25 55.5 30.35" fill="#652c2c" fill-rule="evenodd" stroke="none"/>
    <path d="M51.55 13.15 L53.55 21.9 55.5 30.35 53.45 30.4 Q36.2 30.6 23.85 26.15 13.6 22.4 4.6 14.6 L3.9 13.6 0.4 9.1 Q0.0 7.75 0.0 6.45 -0.1 4.5 0.75 2.55 1.4 0.95 2.6 0.0 6.6 2.5 11.85 4.9 30.65 13.45 49.4 13.25 L51.55 13.15" fill="#7d3535" fill-rule="evenodd" stroke="none"/>
    <path d="M82.3 24.75 L83.25 28.6 74.4 34.1 Q69.0 37.4 67.6 38.55 L66.85 33.7 Q65.95 28.7 65.0 25.9 L59.55 11.0 56.45 1.7 Q54.9 0.35 61.85 2.0 68.7 3.75 73.4 5.55 L74.0 8.1 74.05 8.05 74.35 8.0 74.7 8.7 Q77.05 14.9 79.95 20.55 L82.2 24.7 82.3 24.75" fill="#cab6a4" fill-rule="evenodd" stroke="none"/>
  </g>
</svg>
