<?xml version="1.0" encoding="UTF-8" standalone="no"?>
<svg xmlns:ffdec="https://www.free-decompiler.com/flash" xmlns:xlink="http://www.w3.org/1999/xlink" ffdec:objectType="shape" height="15.15px" width="48.1px" xmlns="http://www.w3.org/2000/svg">
  <g transform="matrix(1.0, 0.0, 0.0, 1.0, -7.95, -1.0)">
    <path d="M49.5 4.3 L49.35 4.35 Q43.05 7.2 34.25 10.25 L27.25 12.55 26.7 10.9 Q26.3 9.95 26.25 9.35 L26.35 9.3 34.45 6.85 49.5 2.7 49.5 4.3 M25.25 13.15 L14.55 15.6 13.0 15.0 11.95 14.5 Q17.85 12.1 24.6 9.9 L25.25 13.15" fill="#ffffff" fill-rule="evenodd" stroke="none"/>
    <path d="M49.5 4.3 L49.5 2.7 56.05 1.0 49.5 4.3 M26.25 9.35 Q26.3 9.95 26.7 10.9 L27.25 12.55 25.25 13.15 24.6 9.9 24.65 9.85 26.25 9.35 M14.55 15.6 L7.95 16.15 11.65 14.6 11.95 14.5 13.0 15.0 14.55 15.6" fill="#990000" fill-rule="evenodd" stroke="none"/>
  </g>
</svg>
