<?xml version="1.0" encoding="UTF-8" standalone="no"?>
<svg xmlns:ffdec="https://www.free-decompiler.com/flash" xmlns:xlink="http://www.w3.org/1999/xlink" ffdec:objectType="shape" height="268.25px" width="293.8px" xmlns="http://www.w3.org/2000/svg">
  <g transform="matrix(1.0, 0.0, 0.0, 1.0, 0.0, 0.0)">
    <path d="M214.0 207.2 L213.9 205.8 Q213.4 208.4 212.35 210.7 209.3 215.65 203.8 217.55 199.3 218.85 193.55 217.55 192.85 217.2 192.25 217.2 191.55 216.6 190.85 216.25 188.2 214.6 186.9 212.35 185.35 209.4 186.15 204.85 L186.15 204.05 186.3 203.9 186.65 203.0 Q188.4 199.35 191.45 197.3 193.25 196.05 195.1 195.55 L202.55 194.05 202.5 194.05 Q204.5 193.8 206.15 194.05 209.3 194.6 211.9 197.1 L212.1 197.35 Q213.2 199.2 213.65 201.3 214.15 203.3 214.0 205.1 L214.0 207.2 M224.25 190.15 Q222.35 185.35 222.35 181.25 222.35 179.15 223.65 175.8 L225.2 172.05 226.1 171.35 Q228.35 169.05 231.4 167.25 241.4 161.65 246.05 169.95 248.05 173.5 248.3 177.95 248.55 182.05 249.85 184.4 251.35 187.2 253.35 188.5 L252.05 191.95 Q250.05 196.25 246.8 198.65 L244.65 200.05 Q242.8 201.1 239.15 202.35 L237.0 201.65 234.35 200.85 230.2 198.15 Q228.9 197.3 226.9 195.1 L225.5 192.95 225.3 192.4 224.25 190.15" fill="#eba594" fill-rule="evenodd" stroke="none"/>
    <path d="M202.5 194.05 L7.45 10.0 Q-8.05 -7.3 8.65 5.35 L29.75 23.65 Q87.2 73.25 224.25 190.15 L225.3 192.4 225.5 192.95 226.9 195.1 Q228.9 197.3 230.2 198.15 L234.35 200.85 237.0 201.65 239.15 202.35 Q247.3 210.4 255.85 217.0 264.35 223.55 273.7 232.0 L293.8 247.35 287.75 255.15 Q281.3 263.1 276.15 268.25 L253.25 246.55 229.75 224.55 225.75 220.7 220.95 216.25 Q221.15 214.35 220.6 212.35 220.1 210.35 219.05 208.5 L218.85 208.15 Q216.7 206.0 214.0 209.55 L214.0 207.2 214.0 205.1 Q214.15 203.3 213.65 201.3 213.2 199.2 212.1 197.35 L211.9 197.1 Q209.3 194.6 206.15 194.05 204.5 193.8 202.5 194.05" fill="url(#gradient0)" fill-rule="evenodd" stroke="none"/>
    <path d="M253.35 188.5 L263.9 202.0 268.25 209.65 269.25 211.45 269.55 211.4 269.95 212.95 270.95 216.5 Q271.6 219.2 272.75 221.2 L273.7 225.9 Q273.9 226.6 273.7 232.0 264.35 223.55 255.85 217.0 247.3 210.4 239.15 202.35 242.8 201.1 244.65 200.05 L246.8 198.65 Q250.05 196.25 252.05 191.95 L253.35 188.5 M253.25 246.55 Q248.9 247.0 240.0 241.0 L230.35 233.5 230.1 232.2 228.55 232.95 227.3 233.75 Q228.6 231.65 229.4 225.85 L229.75 224.55 253.25 246.55" fill="#361616" fill-rule="evenodd" stroke="none"/>
    <path d="M250.1 222.85 L251.25 225.05 Q254.4 233.5 245.15 238.8 243.4 239.75 241.25 240.3 234.7 242.8 228.6 240.1 227.4 239.65 226.45 239.05 L226.25 239.05 Q223.2 237.25 222.0 235.05 221.2 233.6 221.2 231.65 L221.2 231.6 221.3 230.45 218.7 230.25 216.25 229.9 Q211.1 228.0 209.1 224.25 207.65 221.9 208.6 216.95 L208.75 216.7 210.25 213.9 Q212.0 211.05 214.0 209.55 L215.55 208.4 Q220.6 205.45 227.05 205.3 234.55 204.95 237.15 209.55 239.6 213.8 237.25 219.55 L236.9 220.45 241.15 219.3 Q247.5 218.25 250.1 222.85" fill="#eba594" fill-rule="evenodd" stroke="none"/>
    <path d="M254.3 238.2 Q257.6 238.45 258.65 241.5 261.35 249.5 253.8 252.2 247.6 254.45 244.05 253.0 241.95 252.2 241.4 250.75 240.45 247.95 242.55 244.7 244.45 241.75 247.95 239.85 251.35 237.95 254.3 238.2" fill="#eba594" fill-rule="evenodd" stroke="none"/>
  </g>
  <defs>
    <linearGradient gradientTransform="matrix(-0.0111, 0.0897, -0.1514, -0.0197, 181.1, 171.5)" gradientUnits="userSpaceOnUse" id="gradient0" spreadMethod="pad" x1="-819.2" x2="819.2">
      <stop offset="0.0" stop-color="#d65c10"/>
      <stop offset="1.0" stop-color="#7d3535"/>
    </linearGradient>
  </defs>
</svg>
