<?xml version="1.0" encoding="UTF-8" standalone="no"?>
<svg xmlns:ffdec="https://www.free-decompiler.com/flash" xmlns:xlink="http://www.w3.org/1999/xlink" ffdec:objectType="shape" height="19.5px" width="60.1px" xmlns="http://www.w3.org/2000/svg">
  <g transform="matrix(1.0, 0.0, 0.0, 1.0, -3.9, -4.5)">
    <path d="M46.95 8.55 L55.55 6.5 64.0 4.5 Q62.3 7.2 54.7 11.4 48.45 14.85 40.2 18.2 26.05 24.0 17.5 24.0 L12.3 23.9 6.95 22.15 6.8 21.95 5.1 18.95 3.95 16.6 3.9 16.6 3.95 16.6 4.1 16.55 4.85 16.4 8.5 15.7 8.5 16.0 Q8.55 17.35 9.05 18.2 L9.65 19.05 10.45 19.05 10.5 19.0 10.75 19.0 23.25 17.7 24.8 17.5 Q24.5 15.65 24.5 12.7 L24.55 12.7 26.0 12.4 26.25 15.0 26.5 17.5 Q38.2 15.5 47.5 12.0 47.5 9.9 46.95 8.55" fill="#990000" fill-rule="evenodd" stroke="none"/>
    <path d="M46.95 8.55 Q47.5 9.9 47.5 12.0 38.2 15.5 26.5 17.5 L26.25 15.0 26.0 12.4 46.95 8.55 M24.5 12.7 Q24.5 15.65 24.8 17.5 L23.25 17.7 10.75 19.0 10.5 19.0 10.45 19.05 9.65 19.05 9.05 18.2 Q8.55 17.35 8.5 16.0 L8.5 15.7 8.5 15.5 9.6 15.3 24.5 12.45 24.5 12.7" fill="#ffffff" fill-rule="evenodd" stroke="none"/>
  </g>
</svg>
