<?xml version="1.0" encoding="UTF-8" standalone="no"?>
<svg xmlns:ffdec="https://www.free-decompiler.com/flash" xmlns:xlink="http://www.w3.org/1999/xlink" ffdec:objectType="shape" height="101.2px" width="107.1px" xmlns="http://www.w3.org/2000/svg">
  <g transform="matrix(1.0, 0.0, 0.0, 1.0, 48.15, 49.55)">
    <path d="M-16.9 -9.3 Q-13.8 -6.4 -11.0 -6.7 -8.8 -7.15 -3.2 -14.35 L4.45 -23.8 7.9 -28.15 7.95 -28.2 8.25 -27.9 Q13.2 -25.5 16.5 -21.85 L19.9 -17.7 20.45 -16.85 12.35 -10.0 12.05 -9.6 16.6 -10.7 16.6 -10.65 23.2 -12.45 24.7 -10.2 Q26.6 -7.0 28.05 -1.1 28.65 1.4 28.8 4.2 L28.75 6.5 28.7 6.5 27.5 6.55 26.0 7.0 Q20.8 8.25 10.3 9.1 L17.2 10.45 Q30.15 13.25 32.1 14.45 L32.15 15.65 Q31.7 18.55 32.1 14.45 28.15 30.85 25.25 31.6 23.25 32.1 20.95 31.15 L19.95 30.45 17.4 29.45 14.65 28.3 17.05 31.2 17.15 31.6 Q22.85 35.4 19.35 39.9 15.55 44.45 10.35 45.95 -8.95 24.95 -10.35 24.1 L-13.5 23.8 -13.65 23.75 Q-16.8 23.55 -18.9 22.25 -20.8 21.15 -22.3 18.0 L-22.55 18.25 Q-23.75 15.5 -24.2 14.9 -25.15 12.35 -27.0 10.5 L-26.55 10.1 Q-29.0 7.15 -29.15 5.8 L-29.6 2.4 Q-29.9 0.2 -30.9 -1.95 L-30.3 -2.15 Q-23.05 -3.15 -18.45 -7.55 -17.5 -8.4 -16.9 -9.3" fill="#361616" fill-rule="evenodd" stroke="none"/>
    <path d="M-16.9 -9.3 Q-17.5 -8.4 -18.45 -7.55 -23.05 -3.15 -30.3 -2.15 L-30.9 -1.95 Q-31.35 -3.6 -31.85 -4.05 -33.15 -5.35 -38.6 -7.25 L-38.8 -7.4 Q-44.5 -9.5 -46.15 -11.15 -48.1 -13.25 -48.15 -16.35 -48.25 -19.9 -45.7 -22.4 -43.45 -24.55 -41.05 -25.45 -38.35 -26.55 -35.4 -26.35 -29.75 -25.9 -25.15 -21.2 L-20.75 -14.9 -17.1 -9.5 -16.9 -9.3 M10.35 45.95 Q15.55 44.45 19.35 39.9 22.85 35.4 17.15 31.6 20.1 33.45 24.9 39.35 L26.85 41.85 27.05 43.0 Q26.75 44.5 25.65 46.4 23.5 50.3 19.2 51.35 L16.45 51.65 10.35 45.95 M25.25 31.6 Q28.15 30.85 32.1 14.45 31.7 18.55 32.15 15.65 L35.55 16.25 Q40.15 16.85 43.65 18.9 47.3 21.05 49.05 24.95 51.15 29.65 48.65 33.75 45.3 39.3 37.95 37.45 34.45 36.4 25.25 31.6 M28.75 6.5 L28.8 4.2 Q28.65 1.4 28.05 -1.1 26.6 -7.0 24.7 -10.2 L23.2 -12.45 27.1 -13.5 34.85 -15.2 Q45.7 -17.2 52.3 -16.35 L53.9 -15.6 Q56.05 -15.05 56.75 -14.4 58.6 -12.5 58.9 -8.45 59.25 -2.95 54.85 1.3 51.05 4.85 31.95 6.2 L30.5 6.3 28.75 6.5 M20.45 -16.85 L19.9 -17.7 16.5 -21.85 Q13.2 -25.5 8.25 -27.9 L7.95 -28.2 Q12.0 -33.3 16.1 -37.55 L20.2 -41.75 24.55 -45.45 30.4 -49.55 Q33.8 -48.9 36.4 -47.15 39.85 -44.75 40.8 -40.7 41.2 -39.6 40.7 -36.65 L40.6 -33.75 39.35 -32.65 25.1 -20.95 20.45 -16.85" fill="#eba594" fill-rule="evenodd" stroke="none"/>
    <path d="M16.6 -10.65 L16.6 -10.7 16.85 -10.8 16.6 -10.65" fill="#5a2525" fill-rule="evenodd" stroke="none"/>
  </g>
</svg>
