<?xml version="1.0" encoding="UTF-8" standalone="no"?>
<svg xmlns:ffdec="https://www.free-decompiler.com/flash" xmlns:xlink="http://www.w3.org/1999/xlink" ffdec:objectType="shape" height="36.2px" width="83.85px" xmlns="http://www.w3.org/2000/svg">
  <g transform="matrix(1.0, 0.0, 0.0, 1.0, 2.45, -0.55)">
    <path d="M58.95 11.15 Q62.45 12.35 68.3 15.6 L65.85 18.3 55.2 28.8 Q49.05 26.9 48.25 26.0 L58.95 11.15 M70.4 13.0 L71.0 12.1 71.25 12.0 70.4 13.0" fill="#652c2c" fill-rule="evenodd" stroke="none"/>
    <path d="M58.95 11.15 L48.25 26.0 Q45.8 25.5 40.7 23.25 35.5 20.95 19.5 16.65 3.5 12.35 -2.45 9.55 -0.25 -1.1 14.85 0.85 26.65 2.25 38.0 5.0 48.65 7.55 58.95 11.15" fill="#7d3535" fill-rule="evenodd" stroke="none"/>
    <path d="M66.9 0.75 Q68.2 2.1 73.2 5.9 L81.4 12.4 80.0 16.1 79.9 16.15 77.2 19.95 Q73.7 25.25 70.7 31.2 L70.25 31.75 70.0 31.7 69.95 31.65 69.05 34.2 Q64.2 35.4 57.25 36.4 50.15 37.25 51.85 36.1 L55.9 27.15 Q58.5 22.55 63.0 13.0 64.25 10.4 65.6 5.45 L66.9 0.75" fill="#cab6a4" fill-rule="evenodd" stroke="none"/>
  </g>
</svg>
