<?xml version="1.0" encoding="UTF-8" standalone="no"?>
<svg xmlns:ffdec="https://www.free-decompiler.com/flash" xmlns:xlink="http://www.w3.org/1999/xlink" ffdec:objectType="shape" height="44.4px" width="83.9px" xmlns="http://www.w3.org/2000/svg">
  <g transform="matrix(1.0, 0.0, 0.0, 1.0, -2.5, 2.4)">
    <path d="M51.4 24.2 L57.65 17.8 63.7 11.6 61.95 10.5 Q47.35 1.3 34.55 -1.3 23.85 -3.45 12.1 -1.45 L10.95 -0.95 5.7 1.05 Q4.65 2.0 3.95 3.1 2.85 4.7 2.6 6.85 2.3 8.55 2.8 9.95 L13.25 10.55 Q33.7 13.1 49.6 23.0 L51.4 24.2" fill="#7d3535" fill-rule="evenodd" stroke="none"/>
    <path d="M63.7 11.6 L57.65 17.8 51.4 24.2 Q53.45 25.75 54.15 26.85 L54.4 27.6 57.35 29.95 57.05 30.15 Q61.35 27.0 69.45 20.3 L75.1 14.65 75.0 14.6 Q73.6 15.65 71.35 17.5 L63.7 11.6" fill="#652c2c" fill-rule="evenodd" stroke="none"/>
    <path d="M83.6 30.3 L86.4 27.5 81.75 18.25 Q78.85 12.6 78.25 10.9 L75.1 14.65 69.45 20.3 Q61.35 27.0 57.05 30.15 L49.6 36.5 Q47.6 36.85 54.35 39.05 61.1 41.1 66.05 42.0 L67.85 40.2 67.9 40.25 68.1 40.45 68.75 40.05 Q74.0 35.95 79.45 32.65 81.5 31.4 83.5 30.3 L83.6 30.3" fill="#cab6a4" fill-rule="evenodd" stroke="none"/>
  </g>
</svg>
