<?xml version="1.0" encoding="UTF-8" standalone="no"?>
<svg xmlns:ffdec="https://www.free-decompiler.com/flash" xmlns:xlink="http://www.w3.org/1999/xlink" ffdec:objectType="shape" height="61.7px" width="77.65px" xmlns="http://www.w3.org/2000/svg">
  <g transform="matrix(1.0, 0.0, 0.0, 1.0, 51.1, 28.95)">
    <path d="M0.65 -27.5 L1.75 -26.0 Q5.45 -21.15 10.5 -15.3 L10.65 -15.15 Q8.05 -14.4 6.15 -13.15 3.15 -11.25 2.5 -9.4 2.0 -8.9 2.65 -7.55 3.4 -6.0 5.15 -6.05 L11.35 -7.05 16.65 -8.3 Q16.9 -0.75 19.55 3.95 12.05 5.6 12.3 8.0 12.35 8.8 13.25 9.5 14.0 10.1 14.3 10.05 18.5 10.4 22.7 11.3 19.2 16.1 19.4 23.2 L19.55 24.85 Q16.4 23.25 13.4 23.45 L13.7 24.05 16.05 25.6 Q17.35 26.45 18.25 27.45 L18.2 27.45 15.75 27.2 Q12.15 27.2 9.35 29.35 7.05 31.05 6.8 32.75 6.55 31.95 4.2 31.6 L-0.05 31.1 Q-9.4 32.65 -15.45 31.9 -19.85 31.4 -22.95 29.65 L-26.55 27.05 Q-33.05 22.2 -37.8 8.9 -39.5 3.9 -39.9 -1.3 L-41.4 -3.8 -43.9 -7.25 -46.6 -10.8 -48.85 -14.35 -49.4 -15.5 -49.4 -15.55 -50.25 -17.6 -51.1 -20.7 Q-41.35 -18.0 -32.85 -20.7 L-32.6 -18.65 Q-32.05 -16.25 -30.35 -14.4 L-28.35 -12.7 Q-26.0 -11.25 -22.75 -11.25 -17.5 -11.25 -13.8 -14.5 L-13.5 -14.8 -11.85 -16.35 -4.8 -23.6 Q-2.45 -25.7 0.65 -27.5" fill="#361616" fill-rule="evenodd" stroke="none"/>
    <path d="M5.75 -3.15 Q2.85 -0.3 -2.1 0.2 -6.65 0.5 -10.75 -1.1 -15.0 -2.8 -16.2 -5.55 -17.6 -8.65 -14.45 -11.8 L-9.65 -14.9 Q-5.4 -17.4 -4.05 -19.0 -1.65 -21.85 -0.9 -24.6 L-0.7 -24.6 Q5.7 -34.75 12.85 -21.25 13.0 -10.3 5.75 -3.15" fill="#eba594" fill-rule="evenodd" stroke="none"/>
    <path d="M8.95 -7.75 L9.15 -7.75 Q15.55 -17.9 22.7 -4.4 22.85 6.55 15.6 13.7 12.7 16.55 7.75 17.05 3.2 17.35 -0.9 15.75 -5.15 14.05 -6.35 11.3 -7.75 8.2 -4.6 5.05 -3.85 4.35 0.2 1.95 4.45 -0.55 5.8 -2.15 8.2 -5.0 8.95 -7.75" fill="#eba594" fill-rule="evenodd" stroke="none"/>
    <path d="M3.75 18.05 Q4.35 17.45 7.7 15.4 11.3 13.35 12.4 12.0 14.45 9.65 15.05 7.35 L15.2 7.3 Q20.6 -1.15 26.55 10.1 26.6 19.25 20.6 25.2 18.15 27.65 13.95 28.0 10.25 28.3 6.75 27.0 3.25 25.55 2.25 23.25 1.1 20.7 3.75 18.05" fill="#eba594" fill-rule="evenodd" stroke="none"/>
  </g>
</svg>
