<?xml version="1.0" encoding="UTF-8" standalone="no"?>
<svg xmlns:ffdec="https://www.free-decompiler.com/flash" xmlns:xlink="http://www.w3.org/1999/xlink" ffdec:objectType="shape" height="57.0px" width="58.3px" xmlns="http://www.w3.org/2000/svg">
  <g transform="matrix(1.0, 0.0, 0.0, 1.0, -24.3, -7.55)">
    <path d="M27.15 42.75 L26.75 40.7 26.65 39.9 29.45 39.2 Q29.55 39.0 29.8 38.95 L33.0 38.6 39.15 38.05 49.25 37.9 Q67.65 39.1 76.1 40.8 L79.05 41.45 78.3 43.45 78.25 43.5 78.2 43.5 76.8 43.25 73.2 42.65 66.6 41.7 48.2 40.85 32.95 41.6 27.15 42.75" fill="#3f2e23" fill-rule="evenodd" stroke="none"/>
    <path d="M27.15 42.75 L32.95 41.6 48.2 40.85 66.6 41.7 73.2 42.65 76.8 43.25 78.2 43.5 78.25 43.5 Q76.55 47.4 74.1 51.2 65.9 63.5 55.35 64.4 48.2 64.95 42.5 63.5 40.85 63.35 39.25 62.4 29.9 54.6 27.15 42.75" fill="#997057" fill-rule="evenodd" stroke="none"/>
    <path d="M82.1 28.95 L82.25 29.45 82.55 31.5 82.6 32.25 79.15 31.9 65.85 30.35 65.05 30.35 Q38.0 29.0 24.3 32.7 L24.9 29.35 25.15 28.5 25.15 28.4 25.8 28.25 26.0 28.25 26.1 28.2 32.45 27.45 38.35 27.05 41.45 27.15 48.8 27.15 50.7 27.0 55.3 26.9 55.65 26.75 66.45 26.75 Q74.65 27.35 82.1 28.95" fill="#3f2e23" fill-rule="evenodd" stroke="none"/>
    <path d="M82.1 28.95 Q74.65 27.35 66.45 26.75 L55.65 26.75 55.3 26.9 50.7 27.0 48.8 27.15 41.45 27.15 38.35 27.05 32.45 27.45 26.1 28.2 26.0 28.25 25.8 28.25 25.15 28.4 Q27.55 19.05 35.05 12.0 L36.85 10.9 37.05 10.8 37.4 10.75 38.4 10.25 Q46.3 7.55 53.2 7.55 68.35 7.55 76.5 15.7 L79.35 20.9 Q81.4 25.05 82.1 28.95" fill="#997057" fill-rule="evenodd" stroke="none"/>
  </g>
</svg>
