<?xml version="1.0" encoding="UTF-8" standalone="no"?>
<svg xmlns:ffdec="https://www.free-decompiler.com/flash" xmlns:xlink="http://www.w3.org/1999/xlink" ffdec:objectType="shape" height="56.8px" width="52.55px" xmlns="http://www.w3.org/2000/svg">
  <g transform="matrix(1.0, 0.0, 0.0, 1.0, -13.2, -6.95)">
    <path d="M13.55 27.0 Q15.45 18.5 22.25 12.65 L25.85 9.25 26.7 9.15 Q30.9 7.55 36.6 7.15 44.9 6.45 52.5 8.5 L54.8 9.2 Q60.9 12.9 63.45 18.1 65.5 22.3 65.7 30.55 L63.35 30.1 Q50.7 27.6 30.25 26.65 19.05 26.75 13.55 27.0" fill="#997057" fill-rule="evenodd" stroke="none"/>
    <path d="M13.55 27.0 Q19.05 26.75 30.25 26.65 50.7 27.6 63.35 30.1 L65.7 30.55 65.75 32.4 65.7 34.1 65.6 34.4 65.55 34.7 63.15 34.25 50.05 31.7 Q41.15 29.9 27.05 29.55 L13.2 29.1 13.55 27.05 13.55 27.0" fill="#3f2e23" fill-rule="evenodd" stroke="none"/>
    <path d="M64.5 47.15 L60.3 46.4 52.05 44.9 45.65 44.05 41.05 43.75 Q38.95 43.55 28.4 43.55 21.25 43.55 16.3 44.5 L14.95 44.85 14.95 44.75 14.9 44.6 14.6 42.6 15.5 42.25 Q19.3 41.25 35.65 40.7 L55.2 42.45 65.75 43.95 64.9 46.15 64.85 46.35 64.5 47.15" fill="#3f2e23" fill-rule="evenodd" stroke="none"/>
    <path d="M14.95 44.85 L16.3 44.5 Q21.25 43.55 28.4 43.55 38.95 43.55 41.05 43.75 L45.65 44.05 52.05 44.9 60.3 46.4 64.5 47.15 63.8 48.9 Q56.1 62.6 41.9 63.65 32.1 64.45 23.65 59.9 L19.9 57.4 Q16.1 51.25 14.95 44.85" fill="#997057" fill-rule="evenodd" stroke="none"/>
  </g>
</svg>
