<?xml version="1.0" encoding="UTF-8" standalone="no"?>
<svg xmlns:ffdec="https://www.free-decompiler.com/flash" xmlns:xlink="http://www.w3.org/1999/xlink" ffdec:objectType="shape" height="21.7px" width="49.2px" xmlns="http://www.w3.org/2000/svg">
  <g transform="matrix(1.0, 0.0, 0.0, 1.0, -7.9, 0.0)">
    <path d="M26.6 9.55 Q27.25 11.9 27.95 16.8 32.1 15.6 37.1 13.1 48.75 7.2 49.15 6.4 49.55 5.55 49.15 6.05 L49.4 2.55 57.1 0.0 56.7 0.15 56.4 0.5 Q54.05 4.8 49.55 9.25 L49.45 9.4 Q42.6 16.2 34.25 19.2 25.9 22.2 19.5 21.6 13.15 21.0 11.15 19.95 L8.75 16.75 7.9 15.6 11.5 14.1 14.75 15.75 Q17.1 17.0 18.6 17.5 L18.05 17.5 26.4 17.2 25.55 14.2 24.85 10.1 26.6 9.55" fill="#990000" fill-rule="evenodd" stroke="none"/>
    <path d="M49.4 2.55 L49.15 6.05 Q49.55 5.55 49.15 6.4 48.75 7.2 37.1 13.1 32.1 15.6 27.95 16.8 27.25 11.9 26.6 9.55 L30.05 8.5 49.4 2.55 M24.85 10.1 L25.55 14.2 26.4 17.2 18.05 17.5 18.6 17.5 Q17.1 17.0 14.75 15.75 L11.5 14.1 12.1 13.8 24.85 10.1" fill="#ffffff" fill-rule="evenodd" stroke="none"/>
  </g>
</svg>
