<?xml version="1.0" encoding="UTF-8" standalone="no"?>
<svg xmlns:ffdec="https://www.free-decompiler.com/flash" xmlns:xlink="http://www.w3.org/1999/xlink" ffdec:objectType="shape" height="69.1px" width="91.85px" xmlns="http://www.w3.org/2000/svg">
  <g transform="matrix(1.0, 0.0, 0.0, 1.0, 0.0, 0.0)">
    <path d="M66.25 66.6 Q74.1 63.55 80.05 56.8 L82.95 53.2 83.0 53.1 83.2 52.85 83.35 52.65 Q88.4 44.9 89.0 35.2 L89.05 35.05 88.95 29.35 Q88.5 23.75 86.75 19.25 85.25 15.4 82.85 12.3 L83.45 12.75 Q88.4 16.45 91.0 25.8 91.85 28.55 91.85 33.1 L91.75 35.75 91.75 35.95 90.9 40.5 Q89.45 46.0 85.8 51.6 L85.5 52.05 85.25 52.4 85.8 51.6 Q82.8 56.3 78.9 59.45 L72.4 64.05 Q69.75 65.55 65.4 66.95 L66.25 66.6 M38.0 12.7 Q27.2 22.0 28.65 36.5 L28.75 37.3 29.0 39.2 Q31.0 51.0 40.65 58.5 38.7 57.65 36.95 56.45 28.1 50.9 26.0 41.55 L25.95 41.35 Q25.2 38.1 25.3 34.4 25.65 20.15 38.0 12.7" fill="#7e6b23" fill-rule="evenodd" stroke="none"/>
    <path d="M82.85 12.3 Q85.25 15.4 86.75 19.25 88.5 23.75 88.95 29.35 L89.05 35.05 89.0 35.2 Q88.4 44.9 83.35 52.65 L83.2 52.85 83.0 53.1 82.95 53.2 80.05 56.8 Q74.1 63.55 66.25 66.6 L65.0 67.05 64.15 67.35 Q59.95 68.6 55.35 69.0 44.85 69.8 34.35 64.75 L32.2 63.65 Q18.3 56.05 16.45 41.85 L16.3 40.2 16.2 39.55 Q15.75 31.0 19.85 21.8 L20.05 21.45 20.95 19.45 Q22.55 16.25 24.15 13.85 25.2 10.85 30.55 7.15 39.15 1.1 52.1 0.1 57.2 -0.25 61.7 0.8 69.4 1.6 76.05 6.0 L78.65 7.95 81.9 11.15 82.6 11.95 82.7 12.15 82.85 12.3 M74.05 11.8 L74.25 11.9 76.15 13.7 76.55 13.6 Q79.4 13.4 79.2 10.9 79.1 9.45 77.9 8.85 L76.15 8.4 75.95 8.45 74.9 9.1 Q74.35 9.7 74.25 10.25 73.95 10.85 74.0 11.55 L74.05 11.8 M78.3 37.35 L78.4 36.65 78.55 35.9 Q79.05 33.3 79.05 29.85 79.05 25.05 76.25 19.75 L73.8 15.65 Q66.75 9.2 53.65 9.2 47.7 9.2 40.9 11.3 L40.0 11.7 39.7 11.75 39.55 11.8 38.0 12.7 Q25.65 20.15 25.3 34.4 25.2 38.1 25.95 41.35 L26.0 41.55 Q28.1 50.9 36.95 56.45 38.7 57.65 40.65 58.5 42.15 59.3 43.65 59.4 48.9 60.65 55.5 60.15 65.25 59.4 72.8 48.8 L76.2 43.8 77.2 41.0 77.25 41.0 77.5 41.05 77.25 40.9 77.85 39.2 78.25 37.45 78.5 37.6 78.5 37.55 78.35 37.4 78.3 37.35 M41.7 8.4 L43.15 8.0 44.05 6.95 44.5 5.55 Q44.45 4.8 43.55 4.65 L42.75 4.75 Q42.3 4.75 41.7 5.1 40.45 5.35 40.0 5.9 39.55 6.3 39.6 6.9 39.65 7.45 40.55 7.95 L41.7 8.4 M77.45 48.1 Q75.9 48.0 75.15 49.15 L74.85 49.95 Q74.6 50.75 74.65 51.8 74.8 53.1 75.1 53.55 75.5 54.1 76.45 54.0 78.4 53.8 79.15 52.1 79.65 51.05 79.5 50.0 79.45 49.1 78.85 48.55 78.3 48.05 77.45 48.1 M17.95 39.25 L17.9 39.55 Q18.0 40.7 18.6 41.15 19.2 41.65 20.7 41.5 22.45 41.4 22.35 39.95 22.3 38.8 21.05 37.95 20.6 37.55 20.15 37.45 L20.05 37.1 Q19.1 37.15 18.15 38.2 L17.95 39.25 M36.85 59.5 L36.6 59.5 35.3 60.6 Q34.3 61.7 34.35 62.3 34.4 63.15 34.95 63.55 L36.55 63.8 Q37.95 63.7 38.3 63.15 38.55 62.75 38.45 61.7 38.4 60.75 37.8 60.1 37.4 59.65 36.85 59.5" fill="#ba9e34" fill-rule="evenodd" stroke="none"/>
    <path d="M74.05 11.8 L74.0 11.55 Q73.95 10.85 74.25 10.25 74.35 9.7 74.9 9.1 L75.95 8.45 76.15 8.4 77.9 8.85 Q79.1 9.45 79.2 10.9 79.4 13.4 76.55 13.6 L76.15 13.7 74.25 11.9 74.05 11.8 M41.7 8.4 L40.55 7.95 Q39.65 7.45 39.6 6.9 39.55 6.3 40.0 5.9 40.45 5.35 41.7 5.1 42.3 4.75 42.75 4.75 L43.55 4.65 Q44.45 4.8 44.5 5.55 L44.05 6.95 43.15 8.0 41.7 8.4 M77.45 48.1 Q78.3 48.05 78.85 48.55 79.45 49.1 79.5 50.0 79.65 51.05 79.15 52.1 78.4 53.8 76.45 54.0 75.5 54.1 75.1 53.55 74.8 53.1 74.65 51.8 74.6 50.75 74.85 49.95 L75.15 49.15 Q75.9 48.0 77.45 48.1 M17.95 39.25 L18.15 38.2 Q19.1 37.15 20.05 37.1 L20.15 37.45 Q20.6 37.55 21.05 37.95 22.3 38.8 22.35 39.95 22.45 41.4 20.7 41.5 19.2 41.65 18.6 41.15 18.0 40.7 17.9 39.55 L17.95 39.25 M36.85 59.5 Q37.4 59.65 37.8 60.1 38.4 60.75 38.45 61.7 38.55 62.75 38.3 63.15 37.95 63.7 36.55 63.8 L34.95 63.55 Q34.4 63.15 34.35 62.3 34.3 61.7 35.3 60.6 L36.6 59.5 36.85 59.5" fill="#caaf46" fill-rule="evenodd" stroke="none"/>
    <path d="M78.25 37.45 L78.3 37.45 78.35 37.4 78.5 37.55 78.5 37.6 78.25 37.45 M77.25 40.9 L77.5 41.05 77.25 41.0 77.2 41.0 77.25 40.9" fill="#ffff99" fill-rule="evenodd" stroke="none"/>
    <path d="M19.85 21.8 Q15.75 31.0 16.2 39.55 L16.3 40.2 16.45 41.85 16.1 41.9 14.05 41.7 13.7 41.5 0.0 39.15 4.5 18.55 15.8 21.1 17.05 21.3 17.55 21.4 18.65 21.3 19.85 21.8" fill="#602828" fill-rule="evenodd" stroke="none"/>
    <path d="M78.3 37.45 L78.3 37.35 78.35 37.4 78.3 37.45" fill="#aa7a46" fill-rule="evenodd" stroke="none"/>
    <path d="M38.0 12.7 L39.55 11.8 39.7 11.75 40.0 11.7 40.9 11.3 Q47.7 9.2 53.65 9.2 66.75 9.2 73.8 15.65 L76.25 19.75 Q79.05 25.05 79.05 29.85 79.05 33.3 78.55 35.9 L78.4 36.65 78.3 37.35 78.3 37.45 78.25 37.45 77.85 39.2 77.25 40.9 74.95 39.3 Q72.85 37.8 68.6 36.05 64.3 34.25 60.45 33.4 50.55 31.65 45.05 32.35 39.45 33.0 35.5 34.55 L28.75 37.3 28.65 36.5 Q27.2 22.0 38.0 12.7 M76.2 43.8 L72.8 48.8 Q65.25 59.4 55.5 60.15 48.9 60.65 43.65 59.4 42.15 59.3 40.65 58.5 31.0 51.0 29.0 39.2 30.1 38.65 33.35 37.65 L35.0 37.15 38.7 36.1 48.75 35.45 Q56.1 35.6 62.5 38.75 68.9 41.85 71.95 45.05 73.4 43.95 70.45 40.65 70.3 39.05 76.2 43.8" fill="#997057" fill-rule="evenodd" stroke="none"/>
    <path d="M28.75 37.3 L35.5 34.55 Q39.45 33.0 45.05 32.35 50.55 31.65 60.45 33.4 64.3 34.25 68.6 36.05 72.85 37.8 74.95 39.3 L77.25 40.9 77.2 41.0 76.2 43.8 Q70.3 39.05 70.45 40.65 73.4 43.95 71.95 45.05 68.9 41.85 62.5 38.75 56.1 35.6 48.75 35.45 L38.7 36.1 35.0 37.15 33.35 37.65 Q30.1 38.65 29.0 39.2 L28.75 37.3" fill="#3f2e23" fill-rule="evenodd" stroke="none"/>
  </g>
</svg>
