<?xml version="1.0" encoding="UTF-8" standalone="no"?>
<svg xmlns:ffdec="https://www.free-decompiler.com/flash" xmlns:xlink="http://www.w3.org/1999/xlink" ffdec:objectType="shape" height="51.05px" width="51.15px" xmlns="http://www.w3.org/2000/svg">
  <g transform="matrix(1.0, 0.0, 0.0, 1.0, -14.6, -9.95)">
    <path d="M63.4 43.95 L62.35 46.6 Q55.1 59.85 41.65 60.9 32.45 61.65 24.5 57.25 L20.95 54.85 Q13.5 42.65 16.65 28.55 18.4 20.65 24.85 15.2 L28.25 12.1 29.0 11.95 Q32.95 10.5 38.35 10.1 46.15 9.5 53.3 11.35 L55.45 12.0 Q61.2 15.4 63.6 20.25 65.75 24.55 65.75 33.5 L65.7 35.05 64.8 39.25 64.9 39.75 63.4 43.95" fill="#997057" fill-rule="evenodd" stroke="none"/>
    <path d="M56.8 37.0 L63.05 40.7 62.55 42.55 58.5 40.35 56.9 39.6 53.4 38.05 Q50.95 36.85 43.55 35.85 36.3 34.9 29.5 37.0 22.7 39.1 19.2 41.85 17.95 40.5 21.4 37.7 21.75 36.15 15.2 39.95 L14.65 37.0 14.6 36.95 17.15 35.7 Q19.4 34.5 23.9 33.45 28.4 32.3 32.35 32.05 42.4 31.85 47.7 33.4 53.15 34.85 56.8 37.0" fill="#3f2e23" fill-rule="evenodd" stroke="none"/>
  </g>
</svg>
