<?xml version="1.0" encoding="UTF-8" standalone="no"?>
<svg xmlns:ffdec="https://www.free-decompiler.com/flash" xmlns:xlink="http://www.w3.org/1999/xlink" ffdec:objectType="shape" height="33.75px" width="47.85px" xmlns="http://www.w3.org/2000/svg">
  <g transform="matrix(1.0, 0.0, 0.0, 1.0, -9.25, 0.0)">
    <path d="M49.4 2.85 L49.4 2.55 56.25 0.25 57.1 0.0 56.7 0.15 56.4 0.5 56.1 1.05 Q53.95 11.85 43.6 22.35 32.45 33.75 21.85 33.75 20.05 33.75 18.45 32.9 17.5 32.3 16.65 30.35 L14.5 25.5 9.25 15.5 9.25 15.05 Q9.75 14.8 10.2 14.65 L11.5 14.1 11.55 14.15 14.75 15.75 Q17.1 17.0 18.6 17.5 L18.05 17.5 18.6 17.6 26.4 17.2 25.55 14.2 24.85 10.1 26.1 9.7 26.55 9.6 26.6 9.55 Q27.25 11.9 27.95 16.8 32.1 15.6 37.1 13.1 48.75 7.2 49.15 6.4 49.55 5.55 49.15 6.05 L49.4 2.85" fill="#990000" fill-rule="evenodd" stroke="none"/>
    <path d="M49.4 2.85 L49.15 6.05 49.15 6.4 Q48.75 7.2 37.1 13.1 32.1 15.6 27.95 16.8 27.25 11.9 26.6 9.55 L26.5 9.2 49.4 2.85 M24.85 10.1 L25.55 14.2 26.4 17.2 18.6 17.6 18.6 17.5 Q17.1 17.0 14.75 15.75 L11.55 14.15 Q14.05 12.85 24.65 9.75 L24.85 10.1" fill="#ffffff" fill-rule="evenodd" stroke="none"/>
  </g>
</svg>
