<?xml version="1.0" encoding="UTF-8" standalone="no"?>
<svg xmlns:ffdec="https://www.free-decompiler.com/flash" xmlns:xlink="http://www.w3.org/1999/xlink" ffdec:objectType="shape" height="69.1px" width="91.85px" xmlns="http://www.w3.org/2000/svg">
  <g transform="matrix(1.0, 0.0, 0.0, 1.0, 0.0, 0.0)">
    <path d="M27.15 46.6 L26.75 45.1 26.65 44.5 29.45 44.0 Q29.55 43.85 29.8 43.8 L33.0 43.55 39.15 43.15 49.25 43.05 76.1 45.15 79.05 45.65 78.3 47.1 78.25 47.15 78.2 47.15 76.8 46.95 73.2 46.5 66.6 45.8 48.2 45.2 32.95 45.75 27.15 46.6" fill="#3f2e23" fill-rule="evenodd" stroke="none"/>
    <path d="M27.15 46.6 L32.95 45.75 48.2 45.2 66.6 45.8 73.2 46.5 76.8 46.95 78.2 47.15 78.25 47.15 Q76.55 50.0 74.1 52.75 65.9 61.75 55.35 62.4 L42.5 61.75 Q40.85 61.65 39.25 60.95 29.9 55.25 27.15 46.6" fill="#997057" fill-rule="evenodd" stroke="none"/>
    <path d="M76.6 19.05 L76.7 19.4 76.95 20.8 77.0 21.3 74.15 21.05 63.1 20.0 62.45 20.0 Q40.0 19.1 28.65 21.6 L29.15 19.35 29.35 18.75 29.35 18.7 29.9 18.6 30.05 18.6 30.15 18.55 35.4 18.05 40.3 17.8 42.85 17.85 48.95 17.85 50.55 17.75 54.35 17.7 54.65 17.6 63.6 17.6 76.6 19.05" fill="#3f2e23" fill-rule="evenodd" stroke="none"/>
    <path d="M76.6 19.05 L63.6 17.6 54.65 17.6 54.35 17.7 50.55 17.75 48.95 17.85 42.85 17.85 40.3 17.8 35.4 18.05 30.15 18.55 30.05 18.6 29.9 18.6 29.35 18.7 Q31.35 12.4 37.55 7.65 L39.05 6.9 39.2 6.85 39.5 6.8 40.35 6.45 Q46.9 4.65 52.6 4.65 65.2 4.65 71.95 10.15 L74.3 13.65 Q76.0 16.45 76.6 19.05" fill="#997057" fill-rule="evenodd" stroke="none"/>
    <path d="M66.25 66.6 Q74.1 63.55 80.05 56.8 L82.95 53.2 83.0 53.1 83.2 52.85 83.35 52.65 Q88.4 44.9 89.0 35.2 L89.05 35.05 88.95 29.35 Q88.5 23.75 86.75 19.25 85.25 15.4 82.85 12.3 L83.45 12.75 Q88.4 16.45 91.0 25.8 91.85 28.55 91.85 33.1 L91.75 35.75 91.75 35.95 90.9 40.5 Q89.45 46.0 85.8 51.6 L85.5 52.05 85.25 52.4 85.8 51.6 Q82.8 56.3 78.9 59.45 L72.4 64.05 Q69.75 65.55 65.4 66.95 L66.25 66.6 M38.0 12.7 Q27.2 22.0 28.65 36.5 29.95 50.15 40.65 58.5 38.7 57.65 36.95 56.45 24.95 48.9 25.3 34.4 25.65 20.15 38.0 12.7" fill="#7e6b23" fill-rule="evenodd" stroke="none"/>
    <path d="M82.85 12.3 Q85.25 15.4 86.75 19.25 88.5 23.75 88.95 29.35 L89.05 35.05 89.0 35.2 Q88.4 44.9 83.35 52.65 L83.2 52.85 83.0 53.1 82.95 53.2 80.05 56.8 Q74.1 63.55 66.25 66.6 L65.0 67.05 64.15 67.35 Q59.95 68.6 55.35 69.0 44.85 69.8 34.35 64.75 L32.2 63.65 Q18.3 56.05 16.45 41.85 L16.3 40.2 16.2 39.55 Q15.75 31.0 19.85 21.8 L20.05 21.45 20.95 19.45 Q22.55 16.25 24.15 13.85 25.2 10.85 30.55 7.15 39.15 1.1 52.1 0.1 57.2 -0.25 61.7 0.8 69.4 1.6 76.05 6.0 L78.65 7.95 81.9 11.15 82.6 11.95 82.7 12.15 82.85 12.3 M74.05 11.8 L74.25 11.9 76.15 13.7 76.55 13.6 Q79.4 13.4 79.2 10.9 79.1 9.45 77.9 8.85 L76.15 8.4 75.95 8.45 74.9 9.1 Q74.35 9.7 74.25 10.25 73.95 10.85 74.0 11.55 L74.05 11.8 M40.65 58.5 Q42.15 59.3 43.65 59.4 48.9 60.65 55.5 60.15 65.25 59.4 72.8 48.8 76.15 44.15 77.85 39.2 L78.4 36.65 Q79.05 33.8 79.05 29.85 79.05 25.05 76.25 19.75 L73.8 15.65 Q66.75 9.2 53.65 9.2 47.7 9.2 40.9 11.3 L40.0 11.7 39.7 11.75 39.55 11.8 38.0 12.7 Q25.65 20.15 25.3 34.4 24.95 48.9 36.95 56.45 38.7 57.65 40.65 58.5 M41.7 8.4 L43.15 8.0 44.05 6.95 44.5 5.55 Q44.45 4.8 43.55 4.65 L42.75 4.75 Q42.3 4.75 41.7 5.1 40.45 5.35 40.0 5.9 39.55 6.3 39.6 6.9 39.65 7.45 40.55 7.95 L41.7 8.4 M77.45 48.1 Q75.9 48.0 75.15 49.15 L74.85 49.95 Q74.6 50.75 74.65 51.8 74.8 53.1 75.1 53.55 75.5 54.1 76.45 54.0 78.4 53.8 79.15 52.1 79.65 51.05 79.5 50.0 79.45 49.1 78.85 48.55 78.3 48.05 77.45 48.1 M17.9 39.55 Q18.0 40.7 18.6 41.15 19.2 41.65 20.7 41.5 22.45 41.4 22.35 39.95 22.3 38.8 21.05 37.95 20.6 37.55 20.15 37.45 L20.05 37.1 Q19.1 37.15 18.15 38.2 L17.95 39.25 17.9 39.55 M36.85 59.5 L36.6 59.5 35.3 60.6 Q34.3 61.7 34.35 62.3 34.4 63.15 34.95 63.55 L36.55 63.8 Q37.95 63.7 38.3 63.15 38.55 62.75 38.45 61.7 38.4 60.75 37.8 60.1 37.4 59.65 36.85 59.5" fill="#ba9e34" fill-rule="evenodd" stroke="none"/>
    <path d="M74.05 11.8 L74.0 11.55 Q73.95 10.85 74.25 10.25 74.35 9.7 74.9 9.1 L75.95 8.45 76.15 8.4 77.9 8.85 Q79.1 9.45 79.2 10.9 79.4 13.4 76.55 13.6 L76.15 13.7 74.25 11.9 74.05 11.8 M77.45 48.1 Q78.3 48.05 78.85 48.55 79.45 49.1 79.5 50.0 79.65 51.05 79.15 52.1 78.4 53.8 76.45 54.0 75.5 54.1 75.1 53.55 74.8 53.1 74.65 51.8 74.6 50.75 74.85 49.95 L75.15 49.15 Q75.9 48.0 77.45 48.1 M41.7 8.4 L40.55 7.95 Q39.65 7.45 39.6 6.9 39.55 6.3 40.0 5.9 40.45 5.35 41.7 5.1 42.3 4.75 42.75 4.75 L43.55 4.65 Q44.45 4.8 44.5 5.55 L44.05 6.95 43.15 8.0 41.7 8.4 M36.85 59.5 Q37.4 59.65 37.8 60.1 38.4 60.75 38.45 61.7 38.55 62.75 38.3 63.15 37.95 63.7 36.55 63.8 L34.95 63.55 Q34.4 63.15 34.35 62.3 34.3 61.7 35.3 60.6 L36.6 59.5 36.85 59.5 M17.9 39.55 L17.95 39.25 18.15 38.2 Q19.1 37.15 20.05 37.1 L20.15 37.45 Q20.6 37.55 21.05 37.95 22.3 38.8 22.35 39.95 22.45 41.4 20.7 41.5 19.2 41.65 18.6 41.15 18.0 40.7 17.9 39.55" fill="#caaf46" fill-rule="evenodd" stroke="none"/>
    <path d="M19.85 21.8 Q15.75 31.0 16.2 39.55 L16.3 40.2 16.45 41.85 16.1 41.9 14.05 41.7 13.7 41.5 0.0 39.15 4.5 18.55 15.8 21.1 17.05 21.3 17.55 21.4 18.65 21.3 19.85 21.8" fill="#602828" fill-rule="evenodd" stroke="none"/>
  </g>
</svg>
