<?xml version="1.0" encoding="UTF-8" standalone="no"?>
<svg xmlns:ffdec="https://www.free-decompiler.com/flash" xmlns:xlink="http://www.w3.org/1999/xlink" ffdec:objectType="shape" height="66.9px" width="76.65px" xmlns="http://www.w3.org/2000/svg">
  <g transform="matrix(1.0, 0.0, 0.0, 1.0, 0.0, 0.0)">
    <path d="M65.7 22.15 L65.75 23.6 65.7 24.95 65.6 25.2 65.55 25.4 63.4 25.05 51.55 23.05 Q43.5 21.65 30.8 21.35 L18.25 21.0 18.6 19.4 18.6 19.35 Q23.55 19.15 33.65 19.1 52.15 19.85 63.55 21.8 L65.7 22.15" fill="#3f2e23" fill-rule="evenodd" stroke="none"/>
    <path d="M65.7 22.15 L63.55 21.8 Q52.15 19.85 33.65 19.1 23.55 19.15 18.6 19.35 20.3 12.65 26.45 8.05 L29.7 5.4 30.45 5.3 Q34.25 4.05 39.4 3.75 46.9 3.2 53.75 4.8 L55.85 5.35 Q61.35 8.25 63.65 12.35 65.5 15.65 65.7 22.15" fill="#997057" fill-rule="evenodd" stroke="none"/>
    <path d="M14.9 51.15 L14.9 51.1 14.85 50.95 14.6 49.3 15.4 49.05 33.65 47.75 51.35 49.2 60.95 50.45 60.15 52.25 60.1 52.4 59.8 53.05 56.0 52.45 48.5 51.2 42.7 50.5 38.55 50.25 Q36.65 50.1 27.1 50.1 L16.1 50.9 14.9 51.15" fill="#3f2e23" fill-rule="evenodd" stroke="none"/>
    <path d="M14.9 51.15 L16.1 50.9 27.1 50.1 Q36.65 50.1 38.55 50.25 L42.7 50.5 48.5 51.2 56.0 52.45 59.8 53.05 59.15 54.5 Q52.2 65.75 39.3 66.65 30.45 67.3 22.8 63.55 L19.4 61.5 Q15.95 56.45 14.9 51.15" fill="#997057" fill-rule="evenodd" stroke="none"/>
    <path d="M63.95 56.95 L63.85 57.05 60.6 59.3 58.5 60.75 Q54.25 63.45 51.6 64.45 47.55 66.0 38.25 66.75 24.75 67.8 14.65 61.75 10.35 59.1 7.3 55.45 2.4 49.45 0.9 40.7 L0.7 39.2 0.3 36.65 0.0 32.95 Q0.0 26.8 2.05 21.6 3.55 17.9 6.15 14.7 7.95 12.0 10.5 9.8 12.8 7.75 15.45 6.4 L17.2 5.3 17.15 5.25 Q27.2 0.0 43.1 0.0 L45.65 0.4 49.5 0.85 Q53.9 1.75 57.95 3.35 L58.4 3.6 Q66.45 8.2 69.85 14.0 73.1 19.55 73.1 28.35 73.1 38.65 70.45 46.3 L69.55 48.55 Q67.4 53.6 64.25 56.6 L63.95 56.95 M20.95 54.85 L24.5 57.25 Q32.45 61.65 41.65 60.9 55.1 59.85 62.35 46.6 L63.4 43.95 64.9 39.75 64.8 39.25 65.7 35.05 65.75 33.5 Q65.75 24.55 63.6 20.25 61.2 15.4 55.45 12.0 L53.3 11.35 Q46.15 9.5 38.35 10.1 32.95 10.5 29.0 11.95 L28.25 12.1 Q14.85 17.55 12.6 31.65 10.4 45.7 20.95 54.85 M55.15 8.05 Q55.25 8.75 56.1 9.5 57.1 10.2 58.05 10.15 59.8 10.05 60.35 8.3 60.35 7.5 59.55 6.75 58.55 5.85 57.05 5.85 L55.5 6.15 Q55.3 6.5 55.35 7.15 L55.15 8.05 M68.2 40.85 L68.05 40.7 68.0 40.7 67.35 41.0 67.2 41.15 66.85 41.45 66.45 42.6 66.55 43.2 Q66.65 44.5 67.25 45.05 67.7 45.55 68.35 45.5 69.3 45.45 69.95 44.3 70.45 43.45 70.4 42.9 70.2 40.7 68.2 40.85 M10.1 18.35 Q10.8 18.9 12.2 18.8 14.0 18.65 14.4 17.45 L14.6 15.8 Q14.5 14.35 13.95 13.95 L12.4 13.8 12.2 13.8 11.0 14.05 10.4 14.4 9.8 14.95 Q9.3 15.6 9.4 16.75 9.45 17.9 10.1 18.35 M12.45 52.15 Q12.4 51.0 11.25 50.35 L10.8 50.1 9.8 49.85 Q9.45 49.9 9.0 50.2 8.4 50.35 7.95 50.85 L7.6 51.65 7.55 52.15 Q7.65 53.35 8.5 54.15 L8.95 54.55 10.35 54.8 Q11.5 54.75 12.05 53.85 12.55 53.1 12.45 52.15 M40.6 61.8 L40.7 62.65 Q40.8 63.9 41.95 64.45 42.9 64.95 43.8 64.9 45.15 64.8 45.5 64.15 45.8 63.85 45.75 62.95 45.6 61.1 43.15 61.1 L42.55 61.1 41.85 61.15 41.7 61.15 40.95 61.35 40.6 61.8" fill="#ba9e34" fill-rule="evenodd" stroke="none"/>
    <path d="M40.6 61.8 L40.95 61.35 41.7 61.15 41.85 61.15 42.55 61.1 43.15 61.1 Q45.6 61.1 45.75 62.95 45.8 63.85 45.5 64.15 45.15 64.8 43.8 64.9 42.9 64.95 41.95 64.45 40.8 63.9 40.7 62.65 L40.6 61.8 M12.45 52.15 Q12.55 53.1 12.05 53.85 11.5 54.75 10.35 54.8 L8.95 54.55 8.5 54.15 Q7.65 53.35 7.55 52.15 L7.6 51.65 7.95 50.85 Q8.4 50.35 9.0 50.2 9.45 49.9 9.8 49.85 L10.8 50.1 11.25 50.35 Q12.4 51.0 12.45 52.15 M10.1 18.35 Q9.45 17.9 9.4 16.75 9.3 15.6 9.8 14.95 L10.4 14.4 11.0 14.05 12.2 13.8 12.4 13.8 13.95 13.95 Q14.5 14.35 14.6 15.8 L14.4 17.45 Q14.0 18.65 12.2 18.8 10.8 18.9 10.1 18.35 M68.2 40.85 Q70.2 40.7 70.4 42.9 70.45 43.45 69.95 44.3 69.3 45.45 68.35 45.5 67.7 45.55 67.25 45.05 66.65 44.5 66.55 43.2 L66.45 42.6 66.85 41.45 67.2 41.15 67.35 41.0 68.0 40.7 68.05 40.7 68.2 40.85 M55.15 8.05 L55.35 7.15 Q55.3 6.5 55.5 6.15 L57.05 5.85 Q58.55 5.85 59.55 6.75 60.35 7.5 60.35 8.3 59.8 10.05 58.05 10.15 57.1 10.2 56.1 9.5 55.25 8.75 55.15 8.05" fill="#caaf46" fill-rule="evenodd" stroke="none"/>
    <path d="M63.95 56.95 L64.25 56.6 Q67.4 53.6 69.55 48.55 L70.45 46.3 Q73.1 38.65 73.1 28.35 73.1 19.55 69.85 14.0 66.45 8.2 58.4 3.6 74.1 9.95 76.55 25.25 L76.1 25.3 76.45 25.45 76.5 25.5 76.6 25.5 Q76.85 26.85 75.85 34.3 74.85 41.7 72.85 45.55 L72.35 46.45 72.05 47.65 Q72.35 46.55 72.65 46.55 71.35 50.35 68.45 53.0 L63.95 56.95 M28.25 12.1 L24.85 15.2 Q18.4 20.65 16.65 28.55 13.5 42.65 20.95 54.85 10.4 45.7 12.6 31.65 14.85 17.55 28.25 12.1" fill="#7e6b23" fill-rule="evenodd" stroke="none"/>
  </g>
</svg>
