<?xml version="1.0" encoding="UTF-8" standalone="no"?>
<svg xmlns:ffdec="https://www.free-decompiler.com/flash" xmlns:xlink="http://www.w3.org/1999/xlink" ffdec:objectType="shape" height="14.5px" width="28.75px" xmlns="http://www.w3.org/2000/svg">
  <g transform="matrix(1.0, 0.0, 0.0, 1.0, -16.25, -7.0)">
    <path d="M37.65 8.15 Q45.0 11.55 45.0 14.9 L44.95 15.6 Q44.15 17.15 42.5 18.5 38.8 21.5 32.6 21.5 25.15 21.5 20.75 19.15 16.25 16.75 16.25 12.4 L16.35 10.95 16.9 10.1 17.0 10.05 Q17.3 9.8 17.7 9.6 L18.0 9.6 37.65 8.15" fill="#990000" fill-rule="evenodd" stroke="none"/>
    <path d="M37.65 8.15 L18.0 9.6 17.7 9.6 17.35 9.55 17.2 9.5 Q18.1 8.4 24.25 7.65 L34.0 7.0 34.95 7.05 37.0 7.85 37.65 8.15" fill="#ffffff" fill-rule="evenodd" stroke="none"/>
  </g>
</svg>
