<?xml version="1.0" encoding="UTF-8" standalone="no"?>
<svg xmlns:ffdec="https://www.free-decompiler.com/flash" xmlns:xlink="http://www.w3.org/1999/xlink" ffdec:objectType="shape" height="27.75px" width="28.75px" xmlns="http://www.w3.org/2000/svg">
  <g transform="matrix(1.0, 0.0, 0.0, 1.0, -16.25, -7.0)">
    <path d="M37.65 9.2 Q45.0 15.65 45.0 22.1 L44.95 23.45 Q44.15 26.45 42.5 29.0 38.8 34.75 32.6 34.75 25.15 34.75 20.75 30.25 16.25 25.6 16.25 17.35 L16.35 14.5 Q16.5 13.65 16.9 12.95 L17.0 12.8 17.7 12.0 18.0 12.0 Q22.2 12.0 37.65 9.2" fill="#990000" fill-rule="evenodd" stroke="none"/>
    <path d="M37.65 9.2 Q22.2 12.0 18.0 12.0 L17.7 12.0 17.35 11.9 17.2 11.8 Q18.1 9.65 24.25 8.25 29.65 7.0 34.0 7.0 L34.95 7.05 37.0 8.65 37.65 9.2" fill="#ffffff" fill-rule="evenodd" stroke="none"/>
  </g>
</svg>
