<?xml version="1.0" encoding="UTF-8" standalone="no"?>
<svg xmlns:ffdec="https://www.free-decompiler.com/flash" xmlns:xlink="http://www.w3.org/1999/xlink" ffdec:objectType="shape" height="93.65px" width="101.45px" xmlns="http://www.w3.org/2000/svg">
  <g transform="matrix(1.0, 0.0, 0.0, 1.0, 52.8, 56.7)">
    <path d="M7.25 -41.5 L7.35 -41.85 6.9 -52.1 Q6.95 -54.05 7.75 -55.1 9.0 -56.8 12.35 -56.7 17.7 -56.55 20.35 -52.25 22.0 -49.55 21.95 -47.35 L22.05 -44.85 Q21.95 -41.2 20.45 -38.2 L19.8 -37.3 18.5 -35.85 18.45 -35.85 15.95 -35.65 Q12.4 -35.8 9.7 -38.0 7.45 -39.8 7.25 -41.5 M19.7 -33.2 Q22.85 -34.6 26.25 -38.2 L30.65 -43.0 Q32.95 -45.15 34.5 -45.1 37.3 -45.05 39.35 -42.1 42.15 -38.05 39.75 -31.25 36.5 -22.2 22.45 -19.6 19.1 -24.45 19.5 -31.55 L19.55 -31.55 19.6 -32.4 19.7 -33.2 M19.05 -12.35 L24.65 -11.85 Q31.4 -11.65 35.5 -14.9 L38.6 -17.1 Q40.5 -18.1 43.3 -18.05 44.8 -18.0 46.4 -16.15 48.15 -14.2 48.55 -11.65 49.5 -4.75 39.8 -0.5 34.7 1.7 26.9 1.25 L15.8 -0.2 Q16.3 -7.75 19.05 -12.35 M9.65 6.4 Q13.45 7.8 19.05 7.95 22.15 8.05 29.15 6.6 L37.45 5.3 Q44.05 5.1 46.1 8.25 48.05 11.0 45.75 15.25 43.5 19.4 38.65 22.45 33.2 25.8 27.0 25.95 11.65 26.4 -0.75 18.45 L0.4 17.0 Q4.25 12.25 9.5 6.55 L9.65 6.4 M-34.0 10.65 L-34.0 10.95 Q-34.05 13.15 -30.5 16.9 -28.45 19.0 -26.15 19.75 L-20.95 20.7 -20.5 20.7 -20.0 20.95 -19.95 20.95 Q-17.35 21.95 -16.25 23.65 -15.25 25.1 -15.3 27.5 -15.4 29.45 -17.05 31.75 -19.1 34.3 -22.25 35.7 -30.8 39.45 -42.45 32.15 -47.3 29.15 -50.3 23.4 -52.95 18.4 -52.8 14.2 -52.75 12.15 -52.2 10.1 -42.4 7.7 -34.0 10.65" fill="#eba594" fill-rule="evenodd" stroke="none"/>
    <path d="M7.25 -41.5 Q7.45 -39.8 9.7 -38.0 12.4 -35.8 15.95 -35.65 L18.45 -35.85 18.5 -35.85 16.25 -34.05 13.9 -32.6 Q13.5 -32.25 13.55 -32.0 16.5 -31.7 19.7 -33.2 L19.6 -32.4 19.5 -31.55 Q19.1 -24.45 22.45 -19.6 L14.0 -18.6 Q13.7 -18.7 13.0 -18.1 12.05 -17.45 12.0 -16.65 11.65 -14.25 19.05 -12.35 16.3 -7.75 15.8 -0.2 L10.6 -1.6 Q6.95 -2.6 4.4 -2.8 2.65 -2.9 1.85 -1.35 1.2 -0.05 1.65 0.5 2.25 2.35 5.2 4.35 7.05 5.6 9.65 6.4 L9.5 6.55 Q4.25 12.25 0.4 17.0 L-0.75 18.45 Q-3.8 16.6 -6.05 14.4 L-12.9 6.95 -14.5 5.35 -14.8 5.05 Q-18.35 1.7 -23.6 1.55 -26.85 1.45 -29.25 2.85 L-31.3 4.45 Q-33.05 6.25 -33.65 8.6 L-34.0 10.65 Q-42.4 7.7 -52.2 10.1 L-51.25 7.05 -50.3 5.0 -50.3 4.95 -49.75 3.8 -47.4 0.4 -44.55 -3.1 -42.0 -6.45 Q-41.25 -7.35 -40.45 -8.9 -39.9 -14.1 -38.05 -19.05 -32.9 -32.15 -26.25 -36.8 L-22.55 -39.3 Q-19.4 -40.95 -15.0 -41.3 -8.95 -41.9 0.35 -40.05 L4.6 -40.4 Q6.95 -40.7 7.25 -41.5" fill="#361616" fill-rule="evenodd" stroke="none"/>
  </g>
</svg>
