<?xml version="1.0" encoding="UTF-8" standalone="no"?>
<svg xmlns:ffdec="https://www.free-decompiler.com/flash" xmlns:xlink="http://www.w3.org/1999/xlink" ffdec:objectType="shape" height="50.95px" width="74.15px" xmlns="http://www.w3.org/2000/svg">
  <g transform="matrix(1.0, 0.0, 0.0, 1.0, -1.15, 3.35)">
    <path d="M64.55 19.7 L63.95 17.4 Q58.1 -2.15 42.4 -3.1 29.1 -4.05 13.95 -1.05 L12.5 -0.55 5.75 1.6 3.55 3.35 Q1.9 4.7 1.55 6.5 0.7 7.9 1.65 9.0 L14.05 9.35 Q41.05 8.05 49.55 26.5 L50.45 28.75 57.75 23.95 64.55 19.7" fill="#7d3535" fill-rule="evenodd" stroke="none"/>
    <path d="M50.45 28.75 L51.5 33.05 51.45 33.95 Q51.9 35.9 52.7 38.1 L52.5 38.2 64.55 33.3 Q66.6 32.35 70.65 29.75 70.3 29.85 70.5 29.75 L66.95 31.05 Q65.95 24.75 64.55 19.7 L57.75 23.95 50.45 28.75" fill="#652c2c" fill-rule="evenodd" stroke="none"/>
    <path d="M53.0 47.15 L52.25 47.2 52.15 46.9 52.15 46.85 49.65 47.6 Q45.8 44.45 40.85 39.35 35.95 34.2 37.9 34.85 L47.5 32.9 63.1 30.25 Q65.95 29.65 70.75 27.95 L75.3 26.2 74.8 34.25 74.45 44.65 70.7 45.75 70.6 45.7 65.85 45.8 53.0 47.15" fill="#cab6a4" fill-rule="evenodd" stroke="none"/>
  </g>
</svg>
