<?xml version="1.0" encoding="UTF-8" standalone="no"?>
<svg xmlns:ffdec="https://www.free-decompiler.com/flash" xmlns:xlink="http://www.w3.org/1999/xlink" ffdec:objectType="shape" height="96.2px" width="101.75px" xmlns="http://www.w3.org/2000/svg">
  <g transform="matrix(1.0, 0.0, 0.0, 1.0, 39.95, 67.45)">
    <path d="M19.8 20.3 L17.5 20.45 Q11.55 20.4 6.55 23.75 -11.4 33.55 -29.6 23.85 -35.05 20.95 -36.0 15.4 -37.3 7.4 -39.2 -0.2 -42.9 -15.15 -28.9 -22.25 L-26.05 -25.55 Q-25.45 -28.3 -25.15 -31.0 -17.85 -26.55 -7.1 -28.2 L-8.15 -24.35 Q-4.5 -25.35 6.55 -26.05 L10.3 -26.25 13.75 -25.6 Q16.7 -24.25 17.2 -20.1 17.7 -15.45 16.3 -14.1 L16.3 -13.85 16.15 -13.85 Q17.65 -13.3 19.55 -10.25 21.4 -7.25 18.25 -3.35 23.0 0.4 22.95 3.0 22.85 5.55 20.7 8.45 22.55 9.95 22.35 12.1 22.0 16.5 19.7 19.95 L19.8 20.3" fill="#361616" fill-rule="evenodd" stroke="none"/>
    <path d="M13.75 -25.6 Q18.95 -24.85 24.3 -25.6 L27.8 -26.0 Q38.2 -26.65 48.45 -24.05 59.05 -21.2 54.15 -12.5 46.3 -14.15 38.95 -14.8 31.6 -15.5 27.1 -14.95 L20.9 -14.2 17.5 -13.6 38.05 -13.15 Q46.9 -13.0 55.75 -10.95 L55.35 -11.2 Q56.6 -10.85 57.7 -9.9 62.4 -5.6 61.7 0.55 61.45 2.8 59.75 4.25 L56.7 4.35 Q56.95 4.4 57.3 5.35 59.15 8.3 57.2 11.45 55.45 12.45 53.75 12.7 58.7 18.75 52.4 21.25 50.4 22.0 47.55 22.35 L45.1 22.5 19.8 20.3 19.7 19.95 Q22.0 16.5 22.35 12.1 22.55 9.95 20.7 8.45 22.85 5.55 22.95 3.0 23.0 0.4 18.25 -3.35 21.4 -7.25 19.55 -10.25 17.65 -13.3 16.15 -13.85 L16.3 -13.85 16.3 -14.1 Q17.7 -15.45 17.2 -20.1 16.7 -24.25 13.75 -25.6 M-25.15 -31.0 Q-23.55 -45.1 -28.65 -54.65 -33.8 -64.2 -19.3 -67.05 -4.85 -69.9 -4.75 -53.2 -4.65 -36.5 -6.45 -30.45 L-7.1 -28.2 Q-17.85 -26.55 -25.15 -31.0 M52.35 11.7 L52.4 11.4 50.9 10.4 Q47.65 8.35 43.75 7.8 L26.6 8.45 26.6 8.75 Q41.8 8.1 52.35 11.7 M22.8 -4.15 L21.45 -3.25 30.65 -3.95 Q41.9 -4.5 52.0 -0.75 54.85 1.45 56.55 4.45 L56.6 4.2 56.65 4.1 Q57.25 1.8 53.2 -1.9 49.15 -5.6 40.2 -5.3 L22.8 -4.15" fill="#eba594" fill-rule="evenodd" stroke="none"/>
    <path d="M54.15 -12.5 Q54.7 -12.75 55.05 -12.3 L55.35 -11.2 55.75 -10.95 Q46.9 -13.0 38.05 -13.15 L17.5 -13.6 20.9 -14.2 27.1 -14.95 Q31.6 -15.5 38.95 -14.8 46.3 -14.15 54.15 -12.5 M22.8 -4.15 L40.2 -5.3 Q49.15 -5.6 53.2 -1.9 57.25 1.8 56.65 4.1 L56.6 4.2 56.55 4.45 Q54.85 1.45 52.0 -0.75 41.9 -4.5 30.65 -3.95 L21.45 -3.25 22.8 -4.15 M52.35 11.7 Q41.8 8.1 26.6 8.75 L26.6 8.45 43.75 7.8 Q47.65 8.35 50.9 10.4 L52.4 11.4 52.35 11.7" fill="#dd694d" fill-rule="evenodd" stroke="none"/>
  </g>
</svg>
