<?xml version="1.0" encoding="UTF-8" standalone="no"?>
<svg xmlns:ffdec="https://www.free-decompiler.com/flash" xmlns:xlink="http://www.w3.org/1999/xlink" ffdec:objectType="shape" height="69.1px" width="91.85px" xmlns="http://www.w3.org/2000/svg">
  <g transform="matrix(1.0, 0.0, 0.0, 1.0, 0.0, 0.0)">
    <path d="M27.15 42.75 L26.75 40.7 26.65 39.9 29.45 39.2 Q29.55 39.0 29.8 38.95 L33.0 38.6 39.15 38.05 49.25 37.9 Q67.65 39.1 76.1 40.8 L79.05 41.45 78.3 43.45 78.25 43.5 78.2 43.5 76.8 43.25 73.2 42.65 66.6 41.7 48.2 40.85 32.95 41.6 27.15 42.75" fill="#3f2e23" fill-rule="evenodd" stroke="none"/>
    <path d="M27.15 42.75 L32.95 41.6 48.2 40.85 66.6 41.7 73.2 42.65 76.8 43.25 78.2 43.5 78.25 43.5 Q76.55 47.4 74.1 51.2 65.9 63.5 55.35 64.4 48.2 64.95 42.5 63.5 40.85 63.35 39.25 62.4 29.9 54.6 27.15 42.75" fill="#997057" fill-rule="evenodd" stroke="none"/>
    <path d="M82.1 28.95 L82.25 29.45 82.55 31.5 82.6 32.25 79.15 31.9 65.85 30.35 65.05 30.35 Q38.0 29.0 24.3 32.7 L24.9 29.35 25.15 28.5 25.15 28.4 25.8 28.25 26.0 28.25 26.1 28.2 32.45 27.45 38.35 27.05 41.45 27.15 48.8 27.15 50.7 27.0 55.3 26.9 55.65 26.75 66.45 26.75 Q74.65 27.35 82.1 28.95" fill="#3f2e23" fill-rule="evenodd" stroke="none"/>
    <path d="M82.1 28.95 Q74.65 27.35 66.45 26.75 L55.65 26.75 55.3 26.9 50.7 27.0 48.8 27.15 41.45 27.15 38.35 27.05 32.45 27.45 26.1 28.2 26.0 28.25 25.8 28.25 25.15 28.4 Q27.55 19.05 35.05 12.0 L36.85 10.9 37.05 10.8 37.4 10.75 38.4 10.25 Q46.3 7.55 53.2 7.55 68.35 7.55 76.5 15.7 L79.35 20.9 Q81.4 25.05 82.1 28.95" fill="#997057" fill-rule="evenodd" stroke="none"/>
    <path d="M82.85 12.3 Q85.25 15.4 86.75 19.25 88.5 23.75 88.95 29.35 L89.05 35.05 89.0 35.2 Q88.4 44.9 83.35 52.65 L83.2 52.85 83.0 53.1 82.95 53.2 80.05 56.8 Q74.1 63.55 66.25 66.6 L65.0 67.05 64.15 67.35 Q59.95 68.6 55.35 69.0 44.85 69.8 34.35 64.75 L32.2 63.65 Q18.3 56.05 16.45 41.85 L16.3 40.2 16.2 39.55 Q15.75 31.0 19.85 21.8 L20.05 21.45 20.95 19.45 Q22.55 16.25 24.15 13.85 25.2 10.85 30.55 7.15 39.15 1.1 52.1 0.1 57.2 -0.25 61.7 0.8 69.4 1.6 76.05 6.0 L78.65 7.95 81.9 11.15 82.6 11.95 82.7 12.15 82.85 12.3 M74.25 10.25 Q73.95 10.85 74.0 11.55 L74.05 11.8 74.25 11.9 76.15 13.7 76.55 13.6 Q79.4 13.4 79.2 10.9 79.1 9.45 77.9 8.85 L76.15 8.4 75.95 8.45 74.9 9.1 Q74.35 9.7 74.25 10.25 M40.65 58.5 Q42.15 59.3 43.65 59.4 48.9 60.65 55.5 60.15 65.25 59.4 72.8 48.8 76.15 44.15 77.85 39.2 L78.4 36.65 Q79.05 33.8 79.05 29.85 79.05 25.05 76.25 19.75 L73.8 15.65 Q66.75 9.2 53.65 9.2 47.7 9.2 40.9 11.3 L40.0 11.7 39.7 11.75 39.55 11.8 38.0 12.7 Q25.65 20.15 25.3 34.4 24.95 48.9 36.95 56.45 38.7 57.65 40.65 58.5 M43.15 8.0 L44.05 6.95 44.5 5.55 Q44.45 4.8 43.55 4.65 L42.75 4.75 Q42.3 4.75 41.7 5.1 40.45 5.35 40.0 5.9 39.55 6.3 39.6 6.9 39.65 7.45 40.55 7.95 L41.7 8.4 43.15 8.0 M75.15 49.15 L74.85 49.95 Q74.6 50.75 74.65 51.8 74.8 53.1 75.1 53.55 75.5 54.1 76.45 54.0 78.4 53.8 79.15 52.1 79.65 51.05 79.5 50.0 79.45 49.1 78.85 48.55 78.3 48.05 77.45 48.1 75.9 48.0 75.15 49.15 M17.9 39.55 Q18.0 40.7 18.6 41.15 19.2 41.65 20.7 41.5 22.45 41.4 22.35 39.95 22.3 38.8 21.05 37.95 20.6 37.55 20.15 37.45 L20.05 37.1 Q19.1 37.15 18.15 38.2 L17.95 39.25 17.9 39.55 M36.6 59.5 L35.3 60.6 Q34.3 61.7 34.35 62.3 34.4 63.15 34.95 63.55 L36.55 63.8 Q37.95 63.7 38.3 63.15 38.55 62.75 38.45 61.7 38.4 60.75 37.8 60.1 37.4 59.65 36.85 59.5 L36.6 59.5" fill="#ba9e34" fill-rule="evenodd" stroke="none"/>
    <path d="M66.25 66.6 Q74.1 63.55 80.05 56.8 L82.95 53.2 83.0 53.1 83.2 52.85 83.35 52.65 Q88.4 44.9 89.0 35.2 L89.05 35.05 88.95 29.35 Q88.5 23.75 86.75 19.25 85.25 15.4 82.85 12.3 L83.45 12.75 Q88.4 16.45 91.0 25.8 91.85 28.55 91.85 33.1 L91.75 35.75 91.75 35.95 90.9 40.5 Q89.45 46.0 85.8 51.6 L85.5 52.05 85.25 52.4 85.8 51.6 Q82.8 56.3 78.9 59.45 L72.4 64.05 Q69.75 65.55 65.4 66.95 L66.25 66.6 M38.0 12.7 Q27.2 22.0 28.65 36.5 29.95 50.15 40.65 58.5 38.7 57.65 36.95 56.45 24.95 48.9 25.3 34.4 25.65 20.15 38.0 12.7" fill="#7e6b23" fill-rule="evenodd" stroke="none"/>
    <path d="M74.25 10.25 Q74.35 9.7 74.9 9.1 L75.95 8.45 76.15 8.4 77.9 8.85 Q79.1 9.45 79.2 10.9 79.4 13.4 76.55 13.6 L76.15 13.7 74.25 11.9 74.05 11.8 74.0 11.55 Q73.95 10.85 74.25 10.25 M75.15 49.15 Q75.9 48.0 77.45 48.1 78.3 48.05 78.85 48.55 79.45 49.1 79.5 50.0 79.65 51.05 79.15 52.1 78.4 53.8 76.45 54.0 75.5 54.1 75.1 53.55 74.8 53.1 74.65 51.8 74.6 50.75 74.85 49.95 L75.15 49.15 M43.15 8.0 L41.7 8.4 40.55 7.95 Q39.65 7.45 39.6 6.9 39.55 6.3 40.0 5.9 40.45 5.35 41.7 5.1 42.3 4.75 42.75 4.75 L43.55 4.65 Q44.45 4.8 44.5 5.55 L44.05 6.95 43.15 8.0 M36.6 59.5 L36.85 59.5 Q37.4 59.65 37.8 60.1 38.4 60.75 38.45 61.7 38.55 62.75 38.3 63.15 37.95 63.7 36.55 63.8 L34.95 63.55 Q34.4 63.15 34.35 62.3 34.3 61.7 35.3 60.6 L36.6 59.5 M17.9 39.55 L17.95 39.25 18.15 38.2 Q19.1 37.15 20.05 37.1 L20.15 37.45 Q20.6 37.55 21.05 37.95 22.3 38.8 22.35 39.95 22.45 41.4 20.7 41.5 19.2 41.65 18.6 41.15 18.0 40.7 17.9 39.55" fill="#caaf46" fill-rule="evenodd" stroke="none"/>
    <path d="M19.85 21.8 Q15.75 31.0 16.2 39.55 L16.3 40.2 16.45 41.85 16.1 41.9 14.05 41.7 13.7 41.5 0.0 39.15 4.5 18.55 15.8 21.1 17.05 21.3 17.55 21.4 18.65 21.3 19.85 21.8" fill="#602828" fill-rule="evenodd" stroke="none"/>
  </g>
</svg>
