<?xml version="1.0" encoding="UTF-8" standalone="no"?>
<svg xmlns:ffdec="https://www.free-decompiler.com/flash" xmlns:xlink="http://www.w3.org/1999/xlink" ffdec:objectType="shape" height="8.6px" width="15.2px" xmlns="http://www.w3.org/2000/svg">
  <g transform="matrix(1.0, 0.0, 0.0, 1.0, -2.1, -3.05)">
    <path d="M15.55 4.35 L11.75 6.6 Q7.85 8.9 3.0 9.75 L2.65 8.85 2.7 8.7 2.75 8.7 Q6.7 7.85 10.9 6.2 L15.55 4.35 M16.6 3.9 L16.25 4.35 15.35 5.4 15.0 5.85 12.45 7.9 Q9.0 10.3 4.35 11.3 L3.7 11.3 3.65 11.25 3.15 10.05 3.05 9.85 3.8 9.9 Q6.7 9.9 11.7 7.0 L16.15 4.1 16.6 3.9" fill="#ffffff" fill-rule="evenodd" stroke="none"/>
    <path d="M17.15 3.05 L17.3 3.05 17.0 3.8 16.75 4.25 16.55 4.45 15.65 5.6 15.55 5.75 15.5 5.85 15.0 6.4 12.5 8.2 Q7.2 11.85 4.5 11.65 L3.45 11.65 2.6 9.8 2.1 8.45 2.4 8.35 Q6.55 7.3 10.75 5.7 L17.1 3.1 17.15 3.05 M16.6 3.9 L16.15 4.1 11.7 7.0 Q6.7 9.9 3.8 9.9 L3.05 9.85 3.15 10.05 3.65 11.25 3.7 11.3 4.35 11.3 Q9.0 10.3 12.45 7.9 L15.0 5.85 15.35 5.4 16.25 4.35 16.6 3.9 M15.55 4.35 L10.9 6.2 Q6.7 7.85 2.75 8.7 L2.7 8.7 2.65 8.85 3.0 9.75 Q7.85 8.9 11.75 6.6 L15.55 4.35" fill="#d1821b" fill-rule="evenodd" stroke="none"/>
  </g>
</svg>
