<?xml version="1.0" encoding="UTF-8" standalone="no"?>
<svg xmlns:ffdec="https://www.free-decompiler.com/flash" xmlns:xlink="http://www.w3.org/1999/xlink" ffdec:objectType="shape" height="42.4px" width="40.05px" xmlns="http://www.w3.org/2000/svg">
  <g transform="matrix(1.0, 0.0, 0.0, 1.0, -0.75, 0.25)">
    <path d="M36.95 29.55 Q34.7 31.75 33.3 33.75 31.9 35.7 30.95 38.75 29.95 41.75 28.65 41.65 27.35 41.55 26.4 40.15 25.35 38.65 25.35 36.65 25.35 33.8 27.15 31.55 28.25 30.2 30.5 28.5 L31.25 27.95 31.3 27.9 31.35 27.85 32.0 27.45 32.4 27.4 32.5 27.4 Q34.45 27.4 36.05 28.65 L36.95 29.55 M23.4 26.25 Q12.25 26.15 7.25 24.85 1.25 23.25 1.25 19.25 1.25 17.8 2.25 16.9 3.2 16.0 4.6 16.0 6.45 16.0 16.25 18.8 L19.1 19.65 19.65 19.85 17.5 18.95 Q15.5 18.2 9.2 14.8 2.9 11.35 2.9 5.2 2.9 4.05 3.85 3.4 4.6 2.85 5.6 2.85 6.75 2.85 8.35 3.65 L10.2 4.65 Q9.85 3.4 9.85 2.15 9.85 1.15 10.45 0.8 L12.0 0.5 Q13.1 0.5 15.7 3.0 L19.05 6.15 Q18.05 3.9 18.05 1.45 18.05 0.65 18.5 0.4 L19.35 0.25 Q20.6 0.25 22.35 2.6 25.85 7.3 28.1 9.75 L31.1 13.0 Q30.35 15.15 28.3 15.9 28.55 17.65 26.1 18.85 26.55 21.35 24.25 21.95 L24.25 22.25 Q24.8 24.25 23.4 26.25 M29.0 15.85 L29.1 15.9 29.0 15.85 M19.65 19.85 L24.25 21.95 19.65 19.85 M10.2 4.65 Q14.1 14.25 26.1 18.85 14.1 14.25 10.2 4.65 M19.05 6.15 Q21.8 12.85 28.3 15.9 21.8 12.85 19.05 6.15" fill="#ffcb85" fill-rule="evenodd" stroke="none"/>
    <path d="M31.1 13.0 Q33.5 15.4 35.65 16.85 37.8 18.3 39.1 20.05 L40.2 21.7 40.55 22.5 40.8 24.05 Q40.8 25.6 38.55 28.0 L36.95 29.55 36.05 28.65 Q34.45 27.4 32.5 27.4 L32.4 27.4 32.0 27.45 31.35 27.85 31.3 27.9 31.25 27.95 30.9 26.25 30.9 26.2 30.85 26.1 24.1 26.25 23.95 26.25 23.4 26.25 Q24.8 24.25 24.25 22.25 L24.25 21.95 Q26.55 21.35 26.1 18.85 28.55 17.65 28.3 15.9 30.35 15.15 31.1 13.0 M29.0 15.85 L29.1 15.9 29.0 15.85" fill="#a5bc39" fill-rule="evenodd" stroke="none"/>
    <path d="M36.95 29.55 Q34.7 31.75 33.3 33.75 31.9 35.7 30.95 38.75 29.95 41.75 28.65 41.65 27.35 41.55 26.4 40.15 25.35 38.65 25.35 36.65 25.35 33.8 27.15 31.55 28.25 30.2 30.5 28.5 L31.25 27.95 31.3 27.9 31.35 27.85 M23.4 26.25 Q12.25 26.15 7.25 24.85 1.25 23.25 1.25 19.25 1.25 17.8 2.25 16.9 3.2 16.0 4.6 16.0 6.45 16.0 16.25 18.8 L19.1 19.65 19.65 19.85 17.5 18.95 Q15.5 18.2 9.2 14.8 2.9 11.35 2.9 5.2 2.9 4.05 3.85 3.4 4.6 2.85 5.6 2.85 6.75 2.85 8.35 3.65 L10.2 4.65 Q9.85 3.4 9.85 2.15 9.85 1.15 10.45 0.8 L12.0 0.5 Q13.1 0.5 15.7 3.0 L19.05 6.15 Q18.05 3.9 18.05 1.45 18.05 0.65 18.5 0.4 L19.35 0.25 Q20.6 0.25 22.35 2.6 25.85 7.3 28.1 9.75 L31.1 13.0 M28.3 15.9 Q21.8 12.85 19.05 6.15 M26.1 18.85 Q14.1 14.25 10.2 4.65 M24.25 21.95 L19.65 19.85" fill="none" stroke="#bf6b19" stroke-linecap="round" stroke-linejoin="round" stroke-width="1.0"/>
  </g>
</svg>
