<?xml version="1.0" encoding="UTF-8" standalone="no"?>
<svg xmlns:ffdec="https://www.free-decompiler.com/flash" xmlns:xlink="http://www.w3.org/1999/xlink" ffdec:objectType="shape" height="10.35px" width="11.15px" xmlns="http://www.w3.org/2000/svg">
  <g transform="matrix(1.0, 0.0, 0.0, 1.0, -2.65, -6.2)">
    <path d="M7.45 7.6 L3.3 8.7 Q3.7 7.9 4.5 7.4 5.95 6.45 8.1 6.7 L9.7 7.05 Q8.7 7.15 7.45 7.6" fill="#ffffff" fill-rule="evenodd" stroke="none"/>
    <path d="M13.75 11.8 Q13.95 12.5 13.25 13.95 12.25 16.05 9.85 16.45 7.65 16.85 5.8 15.75 4.3 14.8 3.5 13.2 3.1 12.4 2.85 10.95 L2.65 9.6 Q2.55 7.9 4.0 6.95 6.0 5.55 10.3 6.7 13.0 7.95 13.75 11.8 M7.45 7.6 Q8.7 7.15 9.7 7.05 L8.1 6.7 Q5.95 6.45 4.5 7.4 3.7 7.9 3.3 8.7 L7.45 7.6" fill="#d1821b" fill-rule="evenodd" stroke="none"/>
  </g>
</svg>
