<?xml version="1.0" encoding="UTF-8" standalone="no"?>
<svg xmlns:ffdec="https://www.free-decompiler.com/flash" xmlns:xlink="http://www.w3.org/1999/xlink" ffdec:objectType="shape" height="37.75px" width="181.65px" xmlns="http://www.w3.org/2000/svg">
  <g transform="matrix(1.0, 0.0, 0.0, 1.0, 16.35, -123.5)">
    <path d="M81.0 144.4 Q118.1 144.0 160.15 130.9 L163.8 145.15 Q123.2 158.3 100.3 159.4 77.4 160.5 51.35 158.05 25.3 155.6 -11.05 137.65 -18.4 132.1 -11.5 126.0 -8.35 123.8 -2.05 126.4 27.05 140.6 60.6 143.6 L81.0 144.4" fill="#ffc906" fill-rule="evenodd" stroke="none"/>
    <path d="M81.0 144.4 L60.6 143.6 Q27.05 140.6 -2.05 126.4 -8.35 123.8 -11.5 126.0 -18.4 132.1 -11.05 137.65 25.3 155.6 51.35 158.05 77.4 160.5 100.3 159.4 123.2 158.3 163.8 145.15 L160.15 130.9 Q118.1 144.0 81.0 144.4 Z" fill="none" stroke="#bf6b19" stroke-linecap="round" stroke-linejoin="round" stroke-width="3.0"/>
  </g>
</svg>
