<?xml version="1.0" encoding="UTF-8" standalone="no"?>
<svg xmlns:ffdec="https://www.free-decompiler.com/flash" xmlns:xlink="http://www.w3.org/1999/xlink" ffdec:objectType="shape" height="51.05px" width="175.9px" xmlns="http://www.w3.org/2000/svg">
  <g transform="matrix(1.0, 0.0, 0.0, 1.0, 15.75, -121.5)">
    <path d="M58.05 154.4 L75.45 155.45 Q112.25 155.05 152.7 130.45 L158.65 143.0 Q144.05 152.95 128.3 160.35 112.05 167.9 93.95 170.0 75.95 172.1 58.0 170.05 39.8 167.65 23.9 159.45 8.2 151.4 0.15 145.35 -7.9 139.25 -12.05 135.65 -16.25 132.05 -12.5 125.9 -8.75 119.75 0.65 126.75 26.0 150.1 58.05 154.4" fill="#ffc906" fill-rule="evenodd" stroke="none"/>
    <path d="M58.05 154.4 Q26.0 150.1 0.65 126.75 -8.75 119.75 -12.5 125.9 -16.25 132.05 -12.05 135.65 -7.9 139.25 0.15 145.35 8.2 151.4 23.9 159.45 39.8 167.65 58.0 170.05 75.95 172.1 93.95 170.0 112.05 167.9 128.3 160.35 144.05 152.95 158.65 143.0 L152.7 130.45 Q112.25 155.05 75.45 155.45 L58.05 154.4 Z" fill="none" stroke="#bf6b19" stroke-linecap="round" stroke-linejoin="round" stroke-width="3.0"/>
  </g>
</svg>
