<?xml version="1.0" encoding="UTF-8" standalone="no"?>
<svg xmlns:ffdec="https://www.free-decompiler.com/flash" xmlns:xlink="http://www.w3.org/1999/xlink" ffdec:objectType="shape" height="11.8px" width="22.05px" xmlns="http://www.w3.org/2000/svg">
  <g transform="matrix(1.0, 0.0, 0.0, 1.0, 0.35, -1.5)">
    <path d="M19.65 3.75 Q17.05 6.2 13.05 8.15 9.0 10.0 1.75 11.15 L0.45 9.4 Q10.45 7.35 19.65 3.75" fill="#ffffff" fill-rule="evenodd" stroke="none"/>
    <path d="M20.85 3.15 Q19.95 5.2 18.45 6.7 L13.55 10.85 12.6 11.55 Q8.7 13.55 5.0 13.25 2.15 12.8 -0.35 9.15 L9.65 6.6 20.7 2.95 19.45 1.5 Q20.5 2.0 21.2 2.9 21.9 3.8 21.65 4.1 L21.25 3.6 20.85 3.15 M19.65 3.75 Q10.45 7.35 0.45 9.4 L1.75 11.15 Q9.0 10.0 13.05 8.15 17.05 6.2 19.65 3.75" fill="#d1821b" fill-rule="evenodd" stroke="none"/>
  </g>
</svg>
