<?xml version="1.0" encoding="UTF-8" standalone="no"?>
<svg xmlns:ffdec="https://www.free-decompiler.com/flash" xmlns:xlink="http://www.w3.org/1999/xlink" ffdec:objectType="shape" height="217.0px" width="389.75px" xmlns="http://www.w3.org/2000/svg">
  <g transform="matrix(1.0, 0.0, 0.0, 1.0, -118.45, 35.65)">
    <path d="M122.8 176.5 L118.45 172.1 163.95 147.2 508.2 -35.65 265.35 99.1 122.8 176.5" fill="#88d5bd" fill-rule="evenodd" stroke="none"/>
    <path d="M508.2 -35.65 Q323.95 74.95 126.6 179.55 L122.8 176.5 265.35 99.1 508.2 -35.65" fill="#61ab95" fill-rule="evenodd" stroke="none"/>
    <path d="M225.35 119.8 Q223.1 121.0 222.05 120.65 L225.35 119.8" fill="#61ab95" fill-rule="evenodd" stroke="none"/>
    <path d="M222.05 120.65 Q217.45 121.65 215.75 123.35 L219.5 130.45 Q223.75 138.45 223.7 143.45 223.6 145.35 221.3 148.85 219.0 152.3 213.8 153.45 209.05 154.5 205.5 153.35 206.3 154.15 204.7 157.85 202.7 162.5 198.4 164.2 194.05 165.85 190.8 165.85 187.55 165.85 185.05 163.45 186.75 170.35 177.35 173.6 169.75 176.2 162.95 172.75 L162.9 172.85 Q160.4 178.85 154.4 180.05 148.35 181.25 144.35 177.9 L139.3 173.4 137.25 170.85 136.45 169.6 Q135.25 168.05 134.25 165.35 L133.8 163.95 Q132.8 160.85 132.45 156.85 L132.45 156.7 132.2 154.05 Q132.05 150.5 132.85 147.55 135.5 142.7 138.5 141.8 L138.9 141.8 Q141.0 141.25 143.9 142.7 144.75 142.9 145.65 143.6 147.2 144.5 148.55 146.0 L148.55 145.95 148.35 144.2 Q147.75 137.55 155.05 132.8 162.3 128.0 170.75 138.35 166.9 126.45 176.15 123.3 178.45 122.1 182.3 122.2 185.8 122.3 190.9 127.5 L190.9 127.15 190.75 126.75 Q189.75 123.2 189.85 120.8 189.85 118.7 190.4 117.15 L190.45 117.05 190.45 116.95 190.45 116.85 Q188.95 114.55 189.0 112.15 189.1 110.1 191.45 106.5 L191.75 106.1 Q201.65 104.55 214.45 99.1 234.1 87.4 240.7 88.75 247.3 90.0 246.3 102.0 242.35 117.05 225.35 119.8 L222.05 120.65 M170.75 138.35 Q177.8 156.55 185.05 163.45 177.8 156.55 170.75 138.35 M190.9 127.5 Q198.75 148.15 205.5 153.35 198.75 148.15 190.9 127.5 M190.45 117.05 Q193.2 113.55 197.15 112.05 207.05 107.65 215.75 123.35 207.05 107.65 197.15 112.05 193.2 113.55 190.45 117.05 M150.55 148.8 L150.75 148.55 150.7 148.6 150.5 148.7 150.55 148.75 150.55 148.8 M162.95 172.75 Q151.95 165.15 148.55 146.0 151.95 165.15 162.95 172.75" fill="#ffcb85" fill-rule="evenodd" stroke="none"/>
    <path d="M191.35 106.15 L191.75 106.1 191.45 106.5 191.35 106.15 M150.55 148.8 L150.55 148.75 150.5 148.7 150.7 148.6 150.75 148.55 150.55 148.8" fill="#ba8201" fill-rule="evenodd" stroke="none"/>
    <path d="M132.85 147.55 Q133.6 140.6 137.55 133.9 141.45 127.1 146.0 123.4 150.5 119.65 156.35 116.3 162.2 112.9 168.85 111.1 L178.65 108.5 Q184.1 107.2 191.35 106.15 L191.45 106.5 Q189.1 110.1 189.0 112.15 188.95 114.55 190.45 116.85 L190.45 116.95 190.45 117.05 190.4 117.15 Q189.85 118.7 189.85 120.8 189.75 123.2 190.75 126.75 L190.9 127.15 190.9 127.5 Q185.8 122.3 182.3 122.2 178.45 122.1 176.15 123.3 166.9 126.45 170.75 138.35 162.3 128.0 155.05 132.8 147.75 137.55 148.35 144.2 L148.55 145.95 148.55 146.0 Q147.2 144.5 145.65 143.6 144.75 142.9 143.9 142.7 141.0 141.25 138.9 141.8 L138.5 141.8 Q135.5 142.7 132.85 147.55" fill="#a5bc39" fill-rule="evenodd" stroke="none"/>
    <path d="M222.05 120.65 Q217.45 121.65 215.75 123.35 L219.5 130.45 Q223.75 138.45 223.7 143.45 223.6 145.35 221.3 148.85 219.0 152.3 213.8 153.45 209.05 154.5 205.5 153.35 206.3 154.15 204.7 157.85 202.7 162.5 198.4 164.2 194.05 165.85 190.8 165.85 187.55 165.85 185.05 163.45 186.75 170.35 177.35 173.6 169.75 176.2 162.95 172.75 L162.9 172.85 Q160.4 178.85 154.4 180.05 148.35 181.25 144.35 177.9 L139.3 173.4 137.25 170.85 136.45 169.6 Q135.25 168.05 134.25 165.35 L133.8 163.95 Q132.8 160.85 132.45 156.85 L132.45 156.7 132.2 154.05 Q132.05 150.5 132.85 147.55 135.5 142.7 138.5 141.8 L138.9 141.8 Q141.0 141.25 143.9 142.7 144.75 142.9 145.65 143.6 147.2 144.5 148.55 146.0 L148.55 145.95 148.35 144.2 Q147.75 137.55 155.05 132.8 162.3 128.0 170.75 138.35 166.9 126.45 176.15 123.3 178.45 122.1 182.3 122.2 185.8 122.3 190.9 127.5 L190.9 127.15 190.75 126.75 Q189.75 123.2 189.85 120.8 189.85 118.7 190.4 117.15 L190.45 117.05 190.45 116.95 M191.75 106.1 Q201.65 104.55 214.45 99.1 234.1 87.4 240.7 88.75 247.3 90.0 246.3 102.0 242.35 117.05 225.35 119.8 L222.05 120.65 M215.75 123.35 Q207.05 107.65 197.15 112.05 193.2 113.55 190.45 117.05 M205.5 153.35 Q198.75 148.15 190.9 127.5 M185.05 163.45 Q177.8 156.55 170.75 138.35 M148.55 146.0 Q151.95 165.15 162.95 172.75" fill="none" stroke="#bf6b19" stroke-linecap="round" stroke-linejoin="round" stroke-width="2.0"/>
  </g>
</svg>
