<?xml version="1.0" encoding="UTF-8" standalone="no"?>
<svg xmlns:ffdec="https://www.free-decompiler.com/flash" xmlns:xlink="http://www.w3.org/1999/xlink" ffdec:objectType="shape" height="5.35px" width="15.65px" xmlns="http://www.w3.org/2000/svg">
  <g transform="matrix(1.0, 0.0, 0.0, 1.0, -0.2, -5.5)">
    <path d="M8.25 9.15 L4.35 10.05 Q2.35 10.4 1.2 9.6 3.8 6.9 14.55 6.1 L8.65 7.9 14.5 6.6 Q10.45 8.5 8.25 9.15" fill="#ffffff" fill-rule="evenodd" stroke="none"/>
    <path d="M0.2 9.7 Q3.35 5.8 15.85 5.5 13.3 8.65 7.5 10.2 1.65 11.7 0.2 9.7 M8.25 9.15 Q10.45 8.5 14.5 6.6 L8.65 7.9 14.55 6.1 Q3.8 6.9 1.2 9.6 2.35 10.4 4.35 10.05 L8.25 9.15" fill="#d1821b" fill-rule="evenodd" stroke="none"/>
  </g>
</svg>
