<?xml version="1.0" encoding="UTF-8" standalone="no"?>
<svg xmlns:ffdec="https://www.free-decompiler.com/flash" xmlns:xlink="http://www.w3.org/1999/xlink" ffdec:objectType="shape" height="114.9px" width="74.4px" xmlns="http://www.w3.org/2000/svg">
  <g transform="matrix(1.0, 0.0, 0.0, 1.0, -0.35, 4.4)">
    <path d="M66.25 -2.75 Q68.55 -3.45 69.95 -1.3 75.5 7.0 71.65 16.9 64.65 51.35 43.05 86.75 35.25 97.1 18.85 109.0 L1.85 95.8 Q7.45 93.2 10.75 92.65 14.0 92.05 21.0 87.5 28.0 82.9 33.35 74.65 45.2 56.3 50.2 35.15 53.9 19.6 58.85 4.65 60.75 -1.05 66.25 -2.75" fill="#ffc906" fill-rule="evenodd" stroke="none"/>
    <path d="M66.25 -2.75 Q60.75 -1.05 58.85 4.65 53.9 19.6 50.2 35.15 45.2 56.3 33.35 74.65 28.0 82.9 21.0 87.5 14.0 92.05 10.75 92.65 7.45 93.2 1.85 95.8 L18.85 109.0 Q35.25 97.1 43.05 86.75 64.65 51.35 71.65 16.9 75.5 7.0 69.95 -1.3 68.55 -3.45 66.25 -2.75 Z" fill="none" stroke="#bf6b19" stroke-linecap="round" stroke-linejoin="round" stroke-width="3.0"/>
  </g>
</svg>
