<?xml version="1.0" encoding="UTF-8" standalone="no"?>
<svg xmlns:ffdec="https://www.free-decompiler.com/flash" xmlns:xlink="http://www.w3.org/1999/xlink" ffdec:objectType="shape" height="235.6px" width="378.4px" xmlns="http://www.w3.org/2000/svg">
  <g transform="matrix(1.0, 0.0, 0.0, 1.0, -119.0, 54.25)">
    <path d="M497.4 -54.25 Q319.15 65.75 127.55 180.5 L123.6 177.65 261.9 92.95 497.4 -54.25" fill="#61ab95" fill-rule="evenodd" stroke="none"/>
    <path d="M123.6 177.65 L119.0 173.5 163.15 146.25 497.4 -54.25 261.9 92.95 123.6 177.65" fill="#88d5bd" fill-rule="evenodd" stroke="none"/>
    <path d="M367.85 14.25 L373.8 23.05 373.8 23.1 373.8 23.05 Q377.55 29.0 379.2 35.6 380.6 41.2 379.9 44.45 L379.6 45.55 Q378.35 48.85 374.25 52.0 L370.5 54.05 374.25 52.0 Q378.35 48.85 379.6 45.55 L379.9 44.45 Q380.6 41.2 379.2 35.6 377.55 29.0 373.8 23.05 L373.8 23.1 373.8 23.05 367.85 14.25 Q368.75 9.0 379.45 5.7 390.95 17.65 392.45 32.3 391.7 36.45 390.0 39.2 392.05 39.4 394.1 41.55 396.25 43.8 393.1 49.5 389.95 55.2 386.0 57.5 382.05 59.75 377.85 58.95 374.5 58.3 370.5 54.05 367.8 54.95 364.7 54.65 366.75 52.25 364.35 45.45 361.7 37.95 353.6 25.1 L353.5 24.95 353.15 24.4 353.5 24.95 353.6 25.1 Q361.7 37.95 364.35 45.45 366.75 52.25 364.7 54.65 362.35 58.7 359.6 61.1 L357.55 62.55 Q353.55 64.85 346.0 64.9 336.0 75.65 328.7 71.8 321.35 67.9 320.0 64.55 318.65 61.15 319.5 57.5 L320.1 56.1 Q321.45 56.55 322.05 52.35 316.6 36.4 334.95 34.35 340.55 23.4 353.15 24.4 359.05 14.55 367.85 14.25 M379.9 44.45 Q386.7 44.5 390.0 39.2 386.7 44.5 379.9 44.45 M334.95 34.35 Q351.35 58.35 346.0 64.9 351.35 58.35 334.95 34.35 M225.35 119.8 L222.05 120.65 Q217.45 121.65 215.75 123.35 L219.5 130.45 Q223.75 138.45 223.7 143.45 223.6 145.35 221.3 148.85 219.0 152.3 213.8 153.45 209.05 154.5 205.5 153.35 206.3 154.15 204.7 157.85 202.7 162.5 198.4 164.2 194.05 165.85 190.8 165.85 187.55 165.85 185.05 163.45 186.75 170.35 177.35 173.6 169.75 176.2 162.95 172.75 L162.9 172.85 Q160.4 178.85 154.4 180.05 148.35 181.25 144.35 177.9 L139.3 173.4 137.25 170.85 136.45 169.6 Q135.25 168.05 134.25 165.35 L133.8 163.95 Q132.8 160.85 132.45 156.85 L132.45 156.7 132.2 154.05 Q132.05 150.5 132.85 147.55 135.5 142.7 138.5 141.8 L138.9 141.8 Q141.0 141.25 143.9 142.7 144.75 142.9 145.65 143.6 147.2 144.5 148.55 146.0 L148.55 145.95 148.35 144.2 Q147.75 137.55 155.05 132.8 162.3 128.0 170.75 138.35 166.9 126.45 176.15 123.3 178.45 122.1 182.3 122.2 185.8 122.3 190.9 127.5 L190.9 127.15 190.75 126.75 Q189.75 123.2 189.85 120.8 189.85 118.7 190.4 117.15 L190.45 117.05 190.45 116.95 190.45 116.85 Q188.95 114.55 189.0 112.15 189.1 110.1 191.45 106.5 L191.75 106.1 Q201.65 104.55 214.45 99.1 234.1 87.4 240.7 88.75 247.3 90.0 246.3 102.0 242.35 117.05 225.35 119.8 M215.75 123.35 Q207.05 107.65 197.15 112.05 193.2 113.55 190.45 117.05 193.2 113.55 197.15 112.05 207.05 107.65 215.75 123.35 M170.75 138.35 Q177.8 156.55 185.05 163.45 177.8 156.55 170.75 138.35 M190.9 127.5 Q198.75 148.15 205.5 153.35 198.75 148.15 190.9 127.5 M150.55 148.8 L150.75 148.55 150.7 148.6 150.5 148.7 150.55 148.75 150.55 148.8 M162.95 172.75 Q151.95 165.15 148.55 146.0 151.95 165.15 162.95 172.75" fill="#ffcb85" fill-rule="evenodd" stroke="none"/>
    <path d="M191.75 106.1 L191.45 106.5 191.35 106.15 191.75 106.1 M150.55 148.8 L150.55 148.75 150.5 148.7 150.7 148.6 150.75 148.55 150.55 148.8" fill="#ba8201" fill-rule="evenodd" stroke="none"/>
    <path d="M367.85 14.25 Q359.05 14.55 353.15 24.4 340.55 23.4 334.95 34.35 316.6 36.4 322.05 52.35 321.45 56.55 320.1 56.1 304.3 34.85 326.5 19.5 L327.0 19.2 327.65 18.75 328.75 18.05 Q363.75 -7.1 379.45 5.7 368.75 9.0 367.85 14.25 L365.95 14.15 367.85 14.25 M191.45 106.5 Q189.1 110.1 189.0 112.15 188.95 114.55 190.45 116.85 L190.45 116.95 190.45 117.05 190.4 117.15 Q189.85 118.7 189.85 120.8 189.75 123.2 190.75 126.75 L190.9 127.15 190.9 127.5 Q185.8 122.3 182.3 122.2 178.45 122.1 176.15 123.3 166.9 126.45 170.75 138.35 162.3 128.0 155.05 132.8 147.75 137.55 148.35 144.2 L148.55 145.95 148.55 146.0 Q147.2 144.5 145.65 143.6 144.75 142.9 143.9 142.7 141.0 141.25 138.9 141.8 L138.5 141.8 Q135.5 142.7 132.85 147.55 133.6 140.6 137.55 133.9 141.45 127.1 146.0 123.4 150.5 119.65 156.35 116.3 162.2 112.9 168.85 111.1 L178.65 108.5 Q184.1 107.2 191.35 106.15 L191.45 106.5" fill="#a5bc39" fill-rule="evenodd" stroke="none"/>
    <path d="M222.05 120.65 L225.35 119.8 Q223.1 121.0 222.05 120.65" fill="#61ab95" fill-rule="evenodd" stroke="none"/>
    <path d="M367.85 14.25 L365.95 14.15" fill="none" stroke="#bf6b19" stroke-linecap="round" stroke-linejoin="round" stroke-width="0.1"/>
    <path d="M370.5 54.05 L374.25 52.0 Q378.35 48.85 379.6 45.55 L379.9 44.45 Q380.6 41.2 379.2 35.6 377.55 29.0 373.8 23.05 L373.8 23.1 373.8 23.05 367.85 14.25 M353.15 24.4 L353.5 24.95 353.6 25.1 Q361.7 37.95 364.35 45.45 366.75 52.25 364.7 54.65 367.8 54.95 370.5 54.05 374.5 58.3 377.85 58.95 382.05 59.75 386.0 57.5 389.95 55.2 393.1 49.5 396.25 43.8 394.1 41.55 392.05 39.4 390.0 39.2 386.7 44.5 379.9 44.45 M379.45 5.7 Q390.95 17.65 392.45 32.3 391.7 36.45 390.0 39.2 M320.1 56.1 L319.5 57.5 Q318.65 61.15 320.0 64.55 321.35 67.9 328.7 71.8 336.0 75.65 346.0 64.9 351.35 58.35 334.95 34.35 M364.7 54.65 Q362.35 58.7 359.6 61.1 L357.55 62.55 Q353.55 64.85 346.0 64.9 M225.35 119.8 L222.05 120.65 Q217.45 121.65 215.75 123.35 L219.5 130.45 Q223.75 138.45 223.7 143.45 223.6 145.35 221.3 148.85 219.0 152.3 213.8 153.45 209.05 154.5 205.5 153.35 206.3 154.15 204.7 157.85 202.7 162.5 198.4 164.2 194.05 165.85 190.8 165.85 187.55 165.85 185.05 163.45 186.75 170.35 177.35 173.6 169.75 176.2 162.95 172.75 L162.9 172.85 Q160.4 178.85 154.4 180.05 148.35 181.25 144.35 177.9 L139.3 173.4 137.25 170.85 136.45 169.6 Q135.25 168.05 134.25 165.35 L133.8 163.95 Q132.8 160.85 132.45 156.85 L132.45 156.7 132.2 154.05 Q132.05 150.5 132.85 147.55 135.5 142.7 138.5 141.8 L138.9 141.8 Q141.0 141.25 143.9 142.7 144.75 142.9 145.65 143.6 147.2 144.5 148.55 146.0 L148.55 145.95 148.35 144.2 Q147.75 137.55 155.05 132.8 162.3 128.0 170.75 138.35 166.9 126.45 176.15 123.3 178.45 122.1 182.3 122.2 185.8 122.3 190.9 127.5 L190.9 127.15 190.75 126.75 Q189.75 123.2 189.85 120.8 189.85 118.7 190.4 117.15 L190.45 117.05 Q193.2 113.55 197.15 112.05 207.05 107.65 215.75 123.35 M225.35 119.8 Q242.35 117.05 246.3 102.0 247.3 90.0 240.7 88.75 234.1 87.4 214.45 99.1 201.65 104.55 191.75 106.1 M190.45 116.95 L190.45 117.05 M205.5 153.35 Q198.75 148.15 190.9 127.5 M185.05 163.45 Q177.8 156.55 170.75 138.35 M148.55 146.0 Q151.95 165.15 162.95 172.75" fill="none" stroke="#bf6b19" stroke-linecap="round" stroke-linejoin="round" stroke-width="2.0"/>
  </g>
</svg>
