<?xml version="1.0" encoding="UTF-8" standalone="no"?>
<svg xmlns:ffdec="https://www.free-decompiler.com/flash" xmlns:xlink="http://www.w3.org/1999/xlink" ffdec:objectType="shape" height="9.55px" width="14.25px" xmlns="http://www.w3.org/2000/svg">
  <g transform="matrix(1.0, 0.0, 0.0, 1.0, -1.25, -4.85)">
    <path d="M4.65 14.35 L4.45 14.4 4.45 14.35 4.65 14.35" fill="#d16402" fill-rule="evenodd" stroke="none"/>
    <path d="M13.85 5.85 L10.8 8.5 Q7.9 10.5 3.55 10.9 L2.4 8.9 13.85 5.85" fill="#ffffff" fill-rule="evenodd" stroke="none"/>
    <path d="M11.65 10.9 Q9.05 13.3 4.35 14.25 L4.15 13.85 4.2 13.85 3.5 12.05 Q2.85 10.45 1.25 8.65 L12.05 5.8 15.5 4.85 15.3 5.4 Q14.4 8.35 11.65 10.9 M13.85 5.85 L2.4 8.9 3.55 10.9 Q7.9 10.5 10.8 8.5 L13.85 5.85" fill="#d1821b" fill-rule="evenodd" stroke="none"/>
  </g>
</svg>
