<?xml version="1.0" encoding="UTF-8" standalone="no"?>
<svg xmlns:ffdec="https://www.free-decompiler.com/flash" xmlns:xlink="http://www.w3.org/1999/xlink" ffdec:objectType="shape" height="8.65px" width="12.5px" xmlns="http://www.w3.org/2000/svg">
  <g transform="matrix(1.0, 0.0, 0.0, 1.0, -2.4, -5.35)">
    <path d="M4.8 7.1 Q6.65 6.1 9.25 5.95 L11.15 6.05 Q9.95 6.25 8.35 6.9 L3.2 8.5 4.8 7.1" fill="#ffffff" fill-rule="evenodd" stroke="none"/>
    <path d="M14.9 7.45 Q14.95 9.35 14.15 11.15 13.25 12.95 10.5 13.65 7.7 14.4 5.7 13.65 3.7 12.85 3.15 11.95 L2.5 10.35 Q2.35 9.65 2.45 8.8 2.5 7.9 5.25 6.55 8.0 5.2 11.5 5.4 14.8 5.45 14.9 7.45 M4.8 7.1 L3.2 8.5 8.35 6.9 Q9.95 6.25 11.15 6.05 L9.25 5.95 Q6.65 6.1 4.8 7.1" fill="#d1821b" fill-rule="evenodd" stroke="none"/>
  </g>
</svg>
