<?xml version="1.0" encoding="UTF-8" standalone="no"?>
<svg xmlns:ffdec="https://www.free-decompiler.com/flash" xmlns:xlink="http://www.w3.org/1999/xlink" ffdec:objectType="shape" height="180.35px" width="318.85px" xmlns="http://www.w3.org/2000/svg">
  <g transform="matrix(1.0, 0.0, 0.0, 1.0, -127.05, 0.0)">
    <path d="M204.6 113.9 Q214.95 115.6 221.5 131.05 228.0 146.45 222.8 152.45 217.55 158.45 210.5 159.8 206.45 166.5 200.9 168.1 195.3 169.65 194.0 169.1 L193.85 169.05 Q182.0 177.55 174.55 176.55 161.65 183.1 158.95 178.3 156.2 173.45 154.6 162.7 153.0 151.95 156.55 143.05 160.05 134.1 177.15 123.15 194.2 112.2 204.6 113.9" fill="#a5bc39" fill-rule="evenodd" stroke="none"/>
    <path d="M442.6 3.3 L441.15 4.75 437.55 7.5 231.15 121.1 168.25 155.7 143.1 169.55 Q138.55 172.1 133.95 174.6 L130.75 172.0 143.1 165.4 163.65 153.15 166.4 151.45 166.45 151.6 Q217.65 125.5 231.15 117.45 L232.3 116.75 251.6 106.35 Q273.25 95.1 295.5 82.85 347.85 53.95 408.2 21.5 432.75 8.25 442.6 3.3" fill="#61ab95" fill-rule="evenodd" stroke="none"/>
    <path d="M130.75 172.0 L127.05 168.25 165.65 147.05 165.65 147.15 321.0 66.3 Q355.8 48.15 415.05 16.75 436.2 5.5 445.9 0.0 L444.25 1.6 442.6 3.3 Q432.75 8.25 408.2 21.5 347.85 53.95 295.5 82.85 273.25 95.1 251.6 106.35 L232.3 116.75 231.15 117.45 Q217.65 125.5 166.45 151.6 L166.4 151.45 163.65 153.15 143.1 165.4 130.75 172.0" fill="#88d5bd" fill-rule="evenodd" stroke="none"/>
    <path d="M210.1 123.25 L210.2 123.4 210.55 126.65 210.3 123.35 210.1 123.25 M210.45 123.35 L213.3 126.9 213.2 126.7 214.2 127.95 217.2 131.9 220.95 137.1 Q223.85 143.4 222.95 147.25 221.85 151.45 215.45 154.7 209.8 157.45 202.7 151.15 L202.65 151.05 202.55 151.0 Q203.75 155.05 203.0 158.4 201.75 162.3 199.05 163.7 192.25 166.95 188.0 163.1 L186.25 161.1 186.2 161.05 Q188.6 168.95 181.7 171.85 174.8 174.75 170.7 170.6 170.6 175.2 164.55 178.05 158.45 180.85 154.55 176.2 150.65 171.55 147.75 164.9 L147.7 164.6 Q145.9 160.55 146.75 154.35 147.6 148.15 151.75 146.3 155.85 144.45 157.75 146.35 159.7 148.2 161.05 151.0 160.45 149.05 160.8 144.75 161.1 139.95 166.05 137.95 170.95 135.9 173.7 138.45 176.2 140.8 177.4 143.8 L177.3 143.45 Q176.4 140.15 177.05 135.7 177.7 130.6 181.85 128.9 186.65 126.3 189.6 129.0 192.5 131.7 193.65 134.55 L193.6 134.2 Q193.05 131.9 192.95 129.55 192.6 124.35 193.55 122.4 L193.45 122.3 Q190.1 116.4 194.7 111.85 200.4 106.2 207.9 103.5 L211.5 103.25 Q214.6 103.7 216.85 105.65 L217.4 106.4 Q219.75 111.8 216.8 116.7 214.45 120.6 210.6 123.4 L210.45 123.35 M193.6 134.2 Q197.3 144.15 202.65 151.05 197.3 144.15 193.6 134.2 M193.55 122.4 Q197.9 130.25 210.2 123.4 197.9 130.25 193.55 122.4 M161.05 151.0 Q164.65 163.1 170.7 170.55 L170.7 170.6 170.7 170.55 Q164.65 163.1 161.05 151.0 M186.25 161.1 Q180.3 153.1 177.55 144.15 L177.4 143.8 177.55 144.15 Q180.3 153.1 186.25 161.1" fill="#ffcb85" fill-rule="evenodd" stroke="none"/>
    <path d="M210.45 123.35 L213.3 126.9 213.2 126.7 214.2 127.95 217.2 131.9 220.95 137.1 Q223.85 143.4 222.95 147.25 221.85 151.45 215.45 154.7 209.8 157.45 202.7 151.15 L202.65 151.05 202.55 151.0 Q203.75 155.05 203.0 158.4 201.75 162.3 199.05 163.7 192.25 166.95 188.0 163.1 L186.25 161.1 186.2 161.05 Q188.6 168.95 181.7 171.85 174.8 174.75 170.7 170.6 170.6 175.2 164.55 178.05 158.45 180.85 154.55 176.2 150.65 171.55 147.75 164.9 L147.7 164.6 Q145.9 160.55 146.75 154.35 147.6 148.15 151.75 146.3 155.85 144.45 157.75 146.35 159.7 148.2 161.05 151.0 160.45 149.05 160.8 144.75 161.1 139.95 166.05 137.95 170.95 135.9 173.7 138.45 176.2 140.8 177.4 143.8 L177.3 143.45 Q176.4 140.15 177.05 135.7 177.7 130.6 181.85 128.9 186.65 126.3 189.6 129.0 192.5 131.7 193.65 134.55 L193.6 134.2 Q193.05 131.9 192.95 129.55 192.6 124.35 193.55 122.4 L193.45 122.3 Q190.1 116.4 194.7 111.85 200.4 106.2 207.9 103.5 L211.5 103.25 Q214.6 103.7 216.85 105.65 L217.4 106.4 Q219.75 111.8 216.8 116.7 214.45 120.6 210.6 123.4 M177.4 143.8 L177.55 144.15 Q180.3 153.1 186.25 161.1 M170.7 170.6 L170.7 170.55 Q164.65 163.1 161.05 151.0 M210.2 123.4 Q197.9 130.25 193.55 122.4 M202.65 151.05 Q197.3 144.15 193.6 134.2" fill="none" stroke="#bf6b19" stroke-linecap="round" stroke-linejoin="round" stroke-width="2.0"/>
  </g>
</svg>
