<?xml version="1.0" encoding="UTF-8" standalone="no"?>
<svg xmlns:ffdec="https://www.free-decompiler.com/flash" xmlns:xlink="http://www.w3.org/1999/xlink" ffdec:objectType="shape" height="56.2px" width="91.6px" xmlns="http://www.w3.org/2000/svg">
  <g transform="matrix(1.0, 0.0, 0.0, 1.0, 4.8, 15.95)">
    <path d="M15.4 -13.2 Q23.0 -15.65 29.7 -13.3 36.6 -17.0 42.25 -15.55 47.8 -14.05 48.7 -12.9 L48.75 -12.8 Q63.25 -14.15 69.2 -9.45 83.65 -8.55 83.55 -3.05 83.45 2.5 79.4 12.55 75.3 22.7 67.7 28.55 60.2 34.45 39.85 35.25 19.6 36.05 11.55 29.25 3.45 22.55 5.7 5.9 7.9 -10.65 15.4 -13.2" fill="#a5bc39" fill-rule="evenodd" stroke="none"/>
    <path d="M30.9 -0.25 L30.95 -0.05 31.0 -0.1 31.0 -0.2 Q31.95 -4.2 34.2 -6.7 37.2 -9.5 40.25 -9.4 47.7 -8.95 49.6 -3.45 L50.1 -0.85 50.15 -0.85 50.85 -3.1 Q53.05 -8.75 59.3 -8.05 66.8 -7.2 68.3 -1.55 L68.3 -1.5 68.35 -1.5 Q70.65 -5.5 77.35 -5.05 84.0 -4.5 85.15 1.45 86.25 7.4 85.55 14.65 L85.45 14.9 Q85.05 19.35 81.25 24.3 77.5 29.3 72.95 28.9 68.45 28.5 67.75 25.95 66.95 23.4 67.15 20.25 66.7 22.25 64.3 25.85 61.7 29.85 56.4 29.2 51.15 28.6 50.0 25.05 49.0 21.9 49.35 18.85 L49.35 18.55 49.3 18.85 Q48.45 22.2 45.75 25.8 42.65 29.95 38.2 29.35 32.75 29.3 31.5 25.45 30.35 21.85 30.7 19.0 L30.7 18.7 30.6 18.7 30.55 18.95 30.55 19.0 Q29.95 21.25 28.85 23.35 26.6 28.1 24.85 29.35 L24.9 29.45 Q24.9 36.2 18.65 37.95 10.9 40.1 3.05 38.75 1.3 38.5 -0.2 37.25 -2.65 35.35 -3.7 32.55 L-3.8 31.6 Q-3.2 25.75 1.75 22.9 5.7 20.65 10.4 20.1 L9.8 15.7 9.8 15.95 9.55 14.4 8.85 9.45 Q7.95 3.85 8.1 3.05 8.65 -3.85 11.35 -6.75 14.35 -9.85 21.55 -9.6 27.8 -9.2 30.9 -0.25 M49.35 18.55 L49.4 18.15 Q51.4 9.0 50.1 -0.85 51.4 9.0 49.4 18.15 L49.35 18.55 M30.95 -0.05 Q32.1 8.35 30.6 18.7 32.1 8.35 30.95 -0.05 M67.15 20.25 Q69.95 7.95 68.3 -1.5 69.95 7.95 67.15 20.25 M10.75 20.3 Q24.85 20.35 24.85 29.35 24.85 20.35 10.75 20.3" fill="#ffcb85" fill-rule="evenodd" stroke="none"/>
    <path d="M30.95 -0.05 L30.95 -0.1 30.9 -0.25 Q27.8 -9.2 21.55 -9.6 14.35 -9.85 11.35 -6.75 8.65 -3.85 8.1 3.05 7.95 3.85 8.85 9.45 L9.55 14.4 9.8 15.95 9.8 15.7 10.4 20.1 Q5.7 20.65 1.75 22.9 -3.2 25.75 -3.8 31.6 L-3.7 32.55 Q-2.65 35.35 -0.2 37.25 1.3 38.5 3.05 38.75 10.9 40.1 18.65 37.95 24.9 36.2 24.9 29.45 L24.85 29.35 Q24.85 20.35 10.75 20.3 M30.95 -0.05 L30.95 -0.1 M30.95 -0.05 L31.0 -0.1 31.0 -0.2 Q31.95 -4.2 34.2 -6.7 37.2 -9.5 40.25 -9.4 47.7 -8.95 49.6 -3.45 L50.1 -0.85 50.15 -0.85 50.85 -3.1 Q53.05 -8.75 59.3 -8.05 66.8 -7.2 68.3 -1.55 L68.3 -1.5 68.35 -1.5 Q70.65 -5.5 77.35 -5.05 84.0 -4.5 85.15 1.45 86.25 7.4 85.55 14.65 L85.45 14.9 Q85.05 19.35 81.25 24.3 77.5 29.3 72.95 28.9 68.45 28.5 67.75 25.95 66.95 23.4 67.15 20.25 66.7 22.25 64.3 25.85 61.7 29.85 56.4 29.2 51.15 28.6 50.0 25.05 49.0 21.9 49.35 18.85 L49.35 18.55 49.3 18.85 Q48.45 22.2 45.75 25.8 42.65 29.95 38.2 29.35 32.75 29.3 31.5 25.45 30.35 21.85 30.7 19.0 L30.7 18.7 30.6 18.95 30.55 19.0 Q29.95 21.25 28.85 23.35 26.6 28.1 24.85 29.35 M50.1 -0.85 Q51.4 9.0 49.4 18.15 L49.35 18.55 M30.6 18.7 L30.55 18.95 30.55 19.0 M68.3 -1.5 Q69.95 7.95 67.15 20.25 M30.6 18.7 Q32.1 8.35 30.95 -0.05" fill="none" stroke="#bf6b19" stroke-linecap="round" stroke-linejoin="round" stroke-width="2.0"/>
  </g>
</svg>
