<?xml version="1.0" encoding="UTF-8" standalone="no"?>
<svg xmlns:ffdec="https://www.free-decompiler.com/flash" xmlns:xlink="http://www.w3.org/1999/xlink" ffdec:objectType="shape" height="27.75px" width="189.95px" xmlns="http://www.w3.org/2000/svg">
  <g transform="matrix(1.0, 0.0, 0.0, 1.0, 10.55, -121.8)">
    <path d="M177.9 129.35 L176.75 144.65 176.7 144.65 Q131.2 149.15 90.5 147.7 L54.35 145.85 Q27.6 144.4 11.85 141.45 -3.85 138.5 -7.05 136.3 -10.25 134.1 -8.3 127.75 -6.4 121.35 2.4 124.2 36.25 129.9 72.25 131.7 L90.9 132.4 Q135.9 133.55 177.9 129.35" fill="#ffc906" fill-rule="evenodd" stroke="none"/>
    <path d="M177.9 129.35 Q135.9 133.55 90.9 132.4 L72.25 131.7 Q36.25 129.9 2.4 124.2 -6.4 121.35 -8.3 127.75 -10.25 134.1 -7.05 136.3 -3.85 138.5 11.85 141.45 27.6 144.4 54.35 145.85 L90.5 147.7 Q131.2 149.15 176.7 144.65 L176.75 144.65 177.9 129.35 Z" fill="none" stroke="#bf6b19" stroke-linecap="round" stroke-linejoin="round" stroke-width="3.0"/>
  </g>
</svg>
