<?xml version="1.0" encoding="UTF-8" standalone="no"?>
<svg xmlns:ffdec="https://www.free-decompiler.com/flash" xmlns:xlink="http://www.w3.org/1999/xlink" ffdec:objectType="shape" height="25.4px" width="214.5px" xmlns="http://www.w3.org/2000/svg">
  <g transform="matrix(1.0, 0.0, 0.0, 1.0, 14.25, -121.15)">
    <path d="M198.75 145.05 L151.3 145.05 117.5 144.15 75.6 142.2 35.95 139.9 13.35 138.25 -0.1 136.75 -0.4 136.65 Q-12.35 135.15 -12.75 127.9 -11.0 122.0 5.45 122.75 43.15 126.35 75.5 126.9 L96.85 127.2 117.5 127.45 160.9 127.65 188.85 127.75 198.2 127.65 198.5 143.55 Q198.05 143.55 198.75 145.05" fill="#ffc906" fill-rule="evenodd" stroke="none"/>
    <path d="M198.75 145.05 L151.3 145.05 117.5 144.15 75.6 142.2 35.95 139.9 13.35 138.25 -0.1 136.75 -0.4 136.65 Q-12.35 135.15 -12.75 127.9 -11.0 122.0 5.45 122.75 43.15 126.35 75.5 126.9 L96.85 127.2 117.5 127.45 160.9 127.65 188.85 127.75 198.2 127.65 198.5 143.55 Q198.05 143.55 198.75 145.05 Z" fill="none" stroke="#bf6b19" stroke-linecap="round" stroke-linejoin="round" stroke-width="3.0"/>
  </g>
</svg>
